if (_typeface_js && _typeface_js.loadFace) _typeface_js.loadFace({"glyphs":{"ợ":{"x_min":65.78125,"x_max":851.84375,"ha":797,"o":"m 65 373 q 153 641 65 536 q 393 747 242 747 q 520 723 462 747 q 621 656 577 699 q 703 713 676 669 q 731 829 731 758 l 851 829 q 806 668 851 732 q 674 583 761 604 q 710 485 697 538 q 722 373 722 431 l 722 358 q 634 90 722 194 q 394 -14 546 -14 q 154 90 242 -14 q 65 358 65 195 l 65 373 m 199 358 q 248 166 199 242 q 394 90 297 90 q 539 166 490 90 q 589 358 589 242 l 589 373 q 539 565 589 488 q 393 641 489 641 q 248 565 297 641 q 199 373 199 488 l 199 358 m 468 -233 l 320 -233 l 320 -97 l 468 -97 l 468 -233 "},"ҷ":{"x_min":86.140625,"x_max":768.71875,"ha":767,"o":"m 670 0 l 536 0 l 536 262 q 457 247 497 252 q 370 242 416 242 q 161 312 237 242 q 86 519 86 382 l 86 735 l 219 735 l 219 519 q 257 389 219 430 q 370 348 295 348 q 455 353 415 348 q 536 368 496 358 l 536 734 l 670 734 l 670 0 m 768 -243 l 635 -243 l 635 106 l 768 106 l 768 -243 "},"Ẩ":{"x_min":13.5625,"x_max":885.765625,"ha":899,"o":"m 657 254 l 243 254 l 149 0 l 13 0 l 395 988 l 510 988 l 885 0 l 749 0 l 657 254 m 284 365 l 617 365 l 454 816 l 450 816 l 284 365 m 701 1062 l 699 1058 l 584 1058 l 451 1184 l 318 1058 l 203 1058 l 202 1062 l 384 1236 l 518 1236 l 701 1062 m 684 1151 l 683 1241 q 746 1253 728 1244 q 765 1283 765 1262 q 740 1317 765 1306 q 672 1328 714 1328 l 676 1392 q 809 1362 762 1392 q 855 1282 855 1333 q 830 1219 855 1241 q 766 1192 804 1197 l 765 1151 l 684 1151 "},"Ҿ":{"x_min":54.8125,"x_max":1071.59375,"ha":1078,"o":"m 742 -16 q 394 118 518 -16 q 269 475 269 253 l 269 479 q 107 559 162 493 q 54 730 52 626 l 56 733 l 158 733 q 186 628 158 670 q 272 573 215 585 q 405 881 290 762 q 677 1000 519 1000 q 970 879 869 1000 q 1071 548 1071 759 l 1071 475 l 408 475 l 406 472 q 487 195 403 302 q 742 88 571 88 q 867 104 815 88 q 970 145 919 119 l 1003 51 q 904 5 969 26 q 742 -16 838 -16 m 677 894 q 490 803 561 894 q 408 570 419 711 l 411 567 l 937 567 l 937 588 q 876 811 937 727 q 677 894 815 894 m 729 -288 l 596 -288 l 596 61 l 729 61 l 729 -288 "},"ӱ":{"x_min":17.640625,"x_max":678.21875,"ha":699,"o":"m 321 272 l 345 180 l 349 180 l 529 734 l 678 734 l 369 -112 q 289 -241 341 -186 q 149 -296 238 -296 q 108 -292 133 -296 q 69 -285 83 -288 l 83 -180 q 107 -181 79 -179 q 143 -183 135 -183 q 212 -145 185 -183 q 258 -61 240 -107 l 290 15 l 17 734 l 166 734 l 321 272 m 582 856 l 434 856 l 434 991 l 582 991 l 582 856 m 263 856 l 115 856 l 115 991 l 263 991 l 263 856 "},"ǻ":{"x_min":71.890625,"x_max":685.6875,"ha":764,"o":"m 548 0 q 537 58 541 33 q 533 109 533 84 q 435 21 495 56 q 306 -14 375 -14 q 131 44 191 -14 q 71 206 71 103 q 157 370 71 311 q 387 430 242 430 l 533 430 l 533 502 q 493 604 533 566 q 382 641 454 641 q 277 609 318 641 q 237 530 237 576 l 109 530 l 108 534 q 184 680 104 614 q 389 747 263 747 q 590 683 514 747 q 666 500 666 620 l 666 147 q 670 71 666 108 q 685 0 674 35 l 548 0 m 326 97 q 457 135 398 97 q 533 220 515 172 l 533 339 l 383 339 q 253 299 302 339 q 205 203 205 258 q 236 126 205 154 q 326 97 266 97 m 444 1196 l 579 1196 l 580 1192 l 434 1070 l 346 1070 l 444 1196 m 260 924 q 294 1005 260 973 q 378 1037 329 1037 q 460 1005 426 1037 q 494 924 494 973 q 460 844 494 875 q 378 813 426 813 q 294 844 329 813 q 260 924 260 875 m 319 924 q 337 883 319 900 q 378 867 354 867 q 418 883 401 867 q 435 924 435 899 q 418 966 435 949 q 378 983 401 983 q 337 966 354 983 q 319 924 319 949 "},"‥":{"x_min":109.1875,"x_max":542.796875,"ha":658,"o":"m 242 0 l 109 0 l 109 137 l 242 137 l 242 0 m 542 0 l 409 0 l 409 137 l 542 137 l 542 0 "},"Ổ":{"x_min":76.640625,"x_max":871.734375,"ha":947,"o":"m 869 405 q 757 105 869 224 q 465 -14 644 -14 q 184 105 293 -14 q 76 405 76 224 l 76 581 q 184 881 76 761 q 465 1002 293 1002 q 757 882 644 1002 q 869 581 869 762 l 869 405 m 735 582 q 662 805 735 718 q 465 892 589 892 q 279 805 349 892 q 210 582 210 718 l 210 405 q 279 182 210 268 q 465 95 349 95 q 662 181 590 95 q 735 405 735 268 l 735 582 m 717 1076 l 715 1072 l 600 1072 l 467 1198 l 334 1072 l 219 1072 l 218 1076 l 400 1250 l 534 1250 l 717 1076 m 700 1165 l 699 1255 q 762 1267 744 1258 q 781 1297 781 1276 q 756 1331 781 1320 q 688 1342 730 1342 l 692 1406 q 825 1376 778 1406 q 871 1296 871 1347 q 846 1233 871 1255 q 782 1206 820 1211 l 781 1165 l 700 1165 "},"Ừ":{"x_min":99.703125,"x_max":1099.4375,"ha":970,"o":"m 843 988 l 843 866 l 847 865 q 937 938 906 883 q 968 1079 968 994 l 1097 1079 l 1099 1075 q 1034 862 1100 944 q 843 756 967 779 l 843 318 q 738 71 843 156 q 465 -14 634 -14 q 201 71 302 -14 q 99 318 99 157 l 99 988 l 233 988 l 233 318 q 297 148 233 206 q 465 90 360 90 q 642 148 575 90 q 710 318 710 206 l 710 988 l 843 988 m 528 1058 l 421 1058 l 251 1234 l 253 1238 l 409 1238 l 528 1058 "},"Á":{"x_min":13.5625,"x_max":885.765625,"ha":899,"o":"m 657 254 l 243 254 l 149 0 l 13 0 l 395 988 l 510 988 l 885 0 l 749 0 l 657 254 m 284 365 l 617 365 l 454 816 l 450 816 l 284 365 m 541 1235 l 697 1235 l 698 1230 l 515 1054 l 415 1054 l 541 1235 "},"ѩ":{"x_min":126.15625,"x_max":1025.46875,"ha":1051,"o":"m 259 304 l 435 304 l 610 734 l 725 734 l 1025 0 l 889 0 l 808 199 l 736 199 l 736 0 l 603 0 l 603 199 l 526 199 l 448 0 l 311 0 l 392 198 l 259 198 l 259 0 l 126 0 l 126 734 l 259 734 l 259 304 m 568 304 l 766 304 l 680 516 l 668 562 l 664 562 l 652 516 l 568 304 "},"ĥ":{"x_min":96.984375,"x_max":694.5,"ha":789,"o":"m 230 635 q 323 717 268 687 q 446 747 379 747 q 629 676 563 747 q 694 459 694 606 l 694 0 l 560 0 l 560 460 q 521 595 560 551 q 405 638 482 638 q 304 612 349 638 q 230 541 259 586 l 230 0 l 96 0 l 96 1058 l 230 1058 l 230 635 m 554 1101 l 554 1085 l 445 1085 l 345 1185 l 246 1085 l 137 1085 l 137 1102 l 304 1263 l 386 1263 l 554 1101 "},"ѷ":{"x_min":-1.65625,"x_max":704,"ha":699,"o":"m 327 216 l 339 164 l 343 164 l 356 216 l 457 579 q 529 706 484 665 q 630 747 574 747 q 670 743 653 747 q 704 730 687 740 l 689 627 q 678 631 685 629 q 661 633 670 633 q 620 615 640 633 q 591 569 600 597 l 390 0 l 289 0 l 31 734 l 168 734 l 327 216 m 319 886 l 317 883 l 201 883 l -1 1059 l 0 1063 l 155 1063 l 319 886 m 501 883 l 395 883 l 231 1060 l 233 1063 l 376 1063 l 501 883 "},"Κ":{"x_min":122.078125,"x_max":889.828125,"ha":893,"o":"m 370 445 l 255 445 l 255 0 l 122 0 l 122 988 l 255 988 l 255 551 l 358 551 l 712 988 l 859 988 l 862 984 l 478 510 l 889 3 l 887 0 l 728 0 l 370 445 "},"҅":{"x_min":173.625,"x_max":339.796875,"ha":534,"o":"m 173 1016 l 173 1100 l 300 1100 l 299 1005 l 339 926 l 284 882 l 173 1016 "},"»":{"x_min":74.6875,"x_max":610.140625,"ha":655,"o":"m 175 644 l 375 379 l 375 367 l 175 103 l 74 103 l 247 373 l 74 644 l 175 644 m 410 644 l 610 379 l 610 367 l 410 103 l 309 103 l 482 373 l 309 644 l 410 644 "},"ỹ":{"x_min":17.640625,"x_max":678.21875,"ha":699,"o":"m 321 272 l 345 180 l 349 180 l 529 734 l 678 734 l 369 -112 q 289 -241 341 -186 q 149 -296 238 -296 q 108 -292 133 -296 q 69 -285 83 -288 l 83 -180 q 107 -181 79 -179 q 143 -183 135 -183 q 212 -145 185 -183 q 258 -61 240 -107 l 290 15 l 17 734 l 166 734 l 321 272 m 584 1017 q 543 910 584 954 q 442 866 503 866 q 342 897 394 866 q 255 929 289 929 q 206 907 226 929 q 186 853 186 885 l 113 871 q 153 980 113 934 q 255 1027 193 1027 q 350 995 293 1027 q 442 963 407 963 q 490 985 470 963 q 511 1039 511 1007 l 584 1017 "},"ў":{"x_min":17.640625,"x_max":678.21875,"ha":699,"o":"m 321 272 l 345 180 l 349 180 l 529 734 l 678 734 l 369 -112 q 289 -241 341 -186 q 149 -296 238 -296 q 108 -292 133 -296 q 69 -285 83 -288 l 83 -180 q 107 -181 79 -179 q 143 -183 135 -183 q 212 -145 185 -183 q 258 -61 240 -107 l 290 15 l 17 734 l 166 734 l 321 272 m 547 1035 l 549 1031 q 496 903 551 953 q 348 854 441 854 q 200 903 255 854 q 148 1031 145 953 l 150 1035 l 252 1035 q 275 963 252 991 q 348 935 298 935 q 421 963 397 935 q 445 1035 445 991 l 547 1035 "},"ţ":{"x_min":23.0625,"x_max":419.140625,"ha":480,"o":"m 273 911 l 273 734 l 412 734 l 412 634 l 273 634 l 273 189 q 294 116 273 137 q 351 95 316 95 q 376 98 362 95 q 401 105 390 101 l 419 13 q 375 -6 404 1 q 317 -14 346 -14 q 187 35 236 -14 q 139 189 139 84 l 139 634 l 23 634 l 23 734 l 139 734 l 139 911 l 273 911 m 357 -167 l 274 -328 l 208 -328 l 249 -161 l 249 -73 l 357 -73 l 357 -167 "},"«":{"x_min":66.25,"x_max":593.703125,"ha":655,"o":"m 193 350 l 366 80 l 266 80 l 66 344 l 66 356 l 266 621 l 366 621 l 193 350 m 420 350 l 593 80 l 493 80 l 293 344 l 293 356 l 493 621 l 593 621 l 420 350 "},"ử":{"x_min":94.265625,"x_max":938.046875,"ha":817,"o":"m 935 832 l 937 827 q 879 642 940 707 q 691 568 819 577 l 691 0 l 571 0 l 562 108 q 474 17 528 49 q 348 -14 419 -14 q 161 62 228 -14 q 94 301 94 139 l 94 734 l 227 734 l 227 299 q 262 138 227 182 q 370 94 297 94 q 487 123 441 94 q 558 205 534 152 l 558 734 l 691 734 l 691 656 l 695 655 q 792 703 763 659 q 821 832 821 746 l 935 832 m 348 841 l 347 945 q 421 959 399 948 q 443 994 443 969 q 413 1034 443 1021 q 334 1047 384 1047 l 339 1120 q 492 1085 439 1120 q 546 992 546 1050 q 517 920 546 944 q 444 889 488 895 l 443 841 l 348 841 "},"í":{"x_min":103.765625,"x_max":392.671875,"ha":349,"o":"m 237 0 l 103 0 l 103 734 l 237 734 l 237 0 m 235 1002 l 391 1002 l 392 998 l 209 822 l 109 822 l 235 1002 "},"ң":{"x_min":96.984375,"x_max":789.71875,"ha":789,"o":"m 691 0 l 557 0 l 557 311 l 230 311 l 230 0 l 96 0 l 96 734 l 230 734 l 230 416 l 557 416 l 557 734 l 691 734 l 691 0 m 789 -243 l 656 -243 l 656 106 l 789 106 l 789 -243 "},"ņ":{"x_min":96.984375,"x_max":692.46875,"ha":789,"o":"m 216 734 l 225 624 q 317 715 262 683 q 443 747 373 747 q 627 677 562 747 q 692 462 692 608 l 692 0 l 558 0 l 558 460 q 520 597 558 557 q 403 638 482 638 q 301 610 345 638 q 230 534 257 582 l 230 0 l 96 0 l 96 734 l 216 734 m 440 -160 l 357 -321 l 291 -321 l 332 -154 l 332 -66 l 440 -66 l 440 -160 "},"µ":{"x_min":103.765625,"x_max":685,"ha":789,"o":"m 236 734 l 236 298 q 275 134 238 177 q 381 90 313 90 q 488 114 447 90 q 551 186 529 139 l 551 734 l 685 734 l 685 0 l 564 0 l 558 73 q 485 8 529 30 q 386 -14 442 -14 q 300 -2 337 -14 q 236 32 263 8 l 236 -282 l 103 -282 l 103 734 l 236 734 "},"ỳ":{"x_min":17.640625,"x_max":678.21875,"ha":699,"o":"m 321 272 l 345 180 l 349 180 l 529 734 l 678 734 l 369 -112 q 289 -241 341 -186 q 149 -296 238 -296 q 108 -292 133 -296 q 69 -285 83 -288 l 83 -180 q 107 -181 79 -179 q 143 -183 135 -183 q 212 -145 185 -183 q 258 -61 240 -107 l 290 15 l 17 734 l 166 734 l 321 272 m 405 825 l 298 825 l 128 1001 l 130 1005 l 286 1005 l 405 825 "},"Ҫ":{"x_min":80.03125,"x_max":821.40625,"ha":880,"o":"m 819 316 l 821 312 q 723 79 824 173 q 458 -14 623 -14 q 185 104 290 -14 q 80 405 80 223 l 80 581 q 185 882 80 763 q 458 1002 290 1002 q 725 912 626 1002 q 821 676 824 823 l 819 672 l 691 672 q 630 836 691 776 q 458 896 569 896 q 280 806 346 896 q 213 582 213 716 l 213 405 q 280 180 213 270 q 458 90 346 90 q 630 150 569 90 q 691 316 691 210 l 819 316 m 527 -291 l 394 -291 l 394 58 l 527 58 l 527 -291 "},"қ":{"x_min":103.765625,"x_max":771.71875,"ha":737,"o":"m 324 311 l 237 311 l 237 0 l 103 0 l 103 734 l 237 734 l 237 424 l 314 424 l 556 734 l 713 734 l 715 730 l 427 382 l 738 3 l 736 0 l 572 0 l 324 311 m 771 -243 l 638 -243 l 638 106 l 771 106 l 771 -243 "},"Ι":{"x_min":128.859375,"x_max":263.15625,"ha":393,"o":"m 263 0 l 128 0 l 128 988 l 263 988 l 263 0 "},"Ύ":{"x_min":-85.75,"x_max":902.21875,"ha":916,"o":"m 491 485 l 749 988 l 902 988 l 555 347 l 555 0 l 422 0 l 422 356 l 81 988 l 234 988 l 491 485 m -44 1119 l 96 1119 l -22 861 l -85 861 l -44 1119 "},"ѕ":{"x_min":73.734375,"x_max":657.203125,"ha":726,"o":"m 523 194 q 490 267 523 238 q 362 316 456 295 q 161 395 229 345 q 94 531 94 445 q 170 683 94 620 q 368 747 246 747 q 572 681 496 747 q 644 521 647 615 l 642 517 l 515 517 q 475 603 515 565 q 368 641 434 641 q 262 610 297 641 q 227 535 227 579 q 258 467 227 492 q 382 422 288 442 q 589 341 521 392 q 657 204 657 290 q 578 46 657 106 q 371 -14 499 -14 q 150 57 231 -14 q 73 223 69 128 l 75 227 l 202 227 q 255 123 206 156 q 371 90 305 90 q 483 119 442 90 q 523 194 523 148 "},"Ш":{"x_min":122.078125,"x_max":1188.25,"ha":1310,"o":"m 255 988 l 255 104 l 589 104 l 589 988 l 722 988 l 722 104 l 1054 104 l 1054 988 l 1188 988 l 1188 0 l 122 0 l 122 988 l 255 988 "},"M":{"x_min":122.078125,"x_max":1097.359375,"ha":1220,"o":"m 293 988 l 607 185 l 611 185 l 926 988 l 1097 988 l 1097 0 l 963 0 l 963 390 l 977 792 l 973 793 l 653 0 l 564 0 l 246 791 l 242 790 l 255 390 l 255 0 l 122 0 l 122 988 l 293 988 "},"Ψ":{"x_min":59,"x_max":886.4375,"ha":960,"o":"m 533 328 l 537 327 q 694 412 635 340 q 752 600 752 483 l 752 988 l 886 988 l 886 600 q 789 333 886 434 q 533 216 692 232 l 533 0 l 399 0 l 399 217 q 152 333 245 233 q 59 600 59 434 l 59 988 l 191 988 l 191 600 q 247 413 191 485 q 395 328 303 342 l 399 329 l 399 988 l 533 988 l 533 328 "},"ӊ":{"x_min":96.984375,"x_max":802.640625,"ha":789,"o":"m 691 0 l 557 0 l 557 311 l 230 311 l 230 0 l 96 0 l 96 734 l 230 734 l 230 416 l 557 416 l 557 734 l 691 734 l 691 0 m 802 6 l 700 -200 l 621 -200 l 669 13 l 669 124 l 802 124 l 802 6 "},"ũ":{"x_min":94.265625,"x_max":691.78125,"ha":789,"o":"m 562 108 q 474 17 528 49 q 348 -14 419 -14 q 161 62 228 -14 q 94 301 94 139 l 94 734 l 227 734 l 227 299 q 262 138 227 182 q 370 94 297 94 q 487 123 441 94 q 558 205 534 152 l 558 734 l 691 734 l 691 0 l 571 0 l 562 108 m 628 1017 q 587 910 628 954 q 486 866 547 866 q 386 897 438 866 q 299 929 333 929 q 250 907 270 929 q 230 853 230 885 l 157 871 q 197 980 157 934 q 299 1027 237 1027 q 394 995 337 1027 q 486 963 451 963 q 534 985 514 963 q 555 1039 555 1007 l 628 1017 "},"ŭ":{"x_min":94.265625,"x_max":691.78125,"ha":789,"o":"m 562 108 q 474 17 528 49 q 348 -14 419 -14 q 161 62 228 -14 q 94 301 94 139 l 94 734 l 227 734 l 227 299 q 262 138 227 182 q 370 94 297 94 q 487 123 441 94 q 558 205 534 152 l 558 734 l 691 734 l 691 0 l 571 0 l 562 108 m 592 1035 l 594 1031 q 541 903 596 953 q 393 854 486 854 q 245 903 300 854 q 193 1031 190 953 l 195 1035 l 297 1035 q 320 963 297 991 q 393 935 343 935 q 466 963 442 935 q 490 1035 490 991 l 592 1035 "},"―":{"x_min":127.625,"x_max":1033.71875,"ha":1126,"o":"m 1033 439 l 127 439 l 127 545 l 1033 545 l 1033 439 "},"{":{"x_min":42.734375,"x_max":455.09375,"ha":472,"o":"m 427 -247 q 240 -128 295 -209 q 184 68 184 -46 l 184 207 q 149 325 184 283 q 42 368 114 368 l 42 468 q 149 509 114 468 q 184 628 184 551 l 184 767 q 240 964 184 883 q 427 1083 295 1045 l 455 1003 q 349 918 380 979 q 318 767 318 857 l 318 627 q 289 502 318 556 q 202 417 260 448 q 289 331 260 386 q 318 207 318 277 l 318 68 q 349 -81 318 -21 q 455 -166 380 -142 l 427 -247 "},"ҿ":{"x_min":-22.375,"x_max":755.546875,"ha":824,"o":"m 475 -14 q 231 88 322 -14 q 141 352 141 190 l 141 358 q 18 437 60 378 q -22 588 -22 496 l 84 588 q 99 508 84 541 q 147 458 114 475 q 257 666 169 585 q 455 747 344 747 q 679 657 603 747 q 755 419 755 568 l 755 336 l 279 336 l 277 332 q 330 158 279 226 q 475 90 382 90 q 594 109 543 90 q 682 163 645 129 l 735 76 q 631 11 695 37 q 475 -14 567 -14 m 455 641 q 340 585 387 641 q 282 443 293 529 l 283 440 l 621 440 l 621 458 q 579 589 621 536 q 455 641 537 641 m 548 -286 l 415 -286 l 415 63 l 548 63 l 548 -286 "},"¼":{"x_min":124.4375,"x_max":1021,"ha":1082,"o":"m 328 450 l 210 450 l 210 894 l 124 894 l 124 985 l 328 1001 l 328 450 m 303 80 l 230 125 l 712 897 l 786 851 l 303 80 m 935 191 l 1021 191 l 1021 103 l 935 103 l 935 0 l 820 0 l 820 103 l 537 103 l 532 172 l 818 543 l 935 543 l 935 191 m 655 191 l 820 191 l 820 401 l 816 401 l 807 387 l 655 191 "},"Ḿ":{"x_min":122.078125,"x_max":1097.359375,"ha":1220,"o":"m 293 988 l 607 185 l 611 185 l 926 988 l 1097 988 l 1097 0 l 963 0 l 963 390 l 977 792 l 973 793 l 653 0 l 564 0 l 246 791 l 242 790 l 255 390 l 255 0 l 122 0 l 122 988 l 293 988 m 674 1235 l 830 1235 l 831 1230 l 648 1054 l 548 1054 l 674 1235 "},"Ӄ":{"x_min":110.546875,"x_max":835.578125,"ha":878,"o":"m 480 560 q 739 442 647 544 q 830 170 830 340 q 748 -102 830 -7 q 512 -195 666 -197 l 507 -193 l 506 -97 q 653 -28 609 -97 q 697 170 697 41 q 628 379 695 307 q 423 450 560 450 l 244 450 l 244 0 l 110 0 l 110 988 l 244 988 l 244 563 l 330 563 l 683 988 l 834 988 l 835 984 l 480 560 "},"ι":{"x_min":133.609375,"x_max":425.25,"ha":456,"o":"m 267 733 l 267 181 q 285 113 267 132 q 333 94 303 94 q 366 99 350 94 q 395 112 383 104 l 425 21 q 364 -6 394 0 q 298 -14 334 -14 q 175 34 217 -14 q 133 189 133 82 l 133 733 l 267 733 "},"Ĳ":{"x_min":128.859375,"x_max":1046.125,"ha":1159,"o":"m 263 0 l 128 0 l 128 988 l 263 988 l 263 0 m 912 988 l 1046 988 l 1046 273 q 962 63 1046 141 q 745 -14 878 -14 q 518 58 602 -14 q 437 268 434 130 l 439 272 l 567 272 q 613 135 567 180 q 745 90 660 90 q 865 140 818 90 q 912 273 912 190 l 912 988 "},"Ê":{"x_min":122.078125,"x_max":777.25,"ha":812,"o":"m 708 457 l 255 457 l 255 104 l 777 104 l 777 0 l 122 0 l 122 988 l 769 988 l 769 882 l 255 882 l 255 563 l 708 563 l 708 457 m 634 1102 l 634 1086 l 525 1086 l 425 1186 l 326 1086 l 217 1086 l 217 1103 l 384 1264 l 466 1264 l 634 1102 "},"Ά":{"x_min":13.5625,"x_max":885.765625,"ha":899,"o":"m 657 254 l 243 254 l 149 0 l 13 0 l 395 988 l 510 988 l 885 0 l 749 0 l 657 254 m 284 365 l 617 365 l 454 816 l 450 816 l 284 365 m 204 1119 l 345 1119 l 227 861 l 163 861 l 204 1119 "},")":{"x_min":4.0625,"x_max":368.28125,"ha":466,"o":"m 368 394 q 260 -61 368 126 q 33 -314 151 -250 l 29 -314 l 4 -240 q 165 -6 95 -169 q 234 393 234 156 l 234 402 q 163 798 234 634 q 4 1036 91 962 l 29 1110 l 33 1110 q 260 857 151 1046 q 368 401 368 668 l 368 394 "},"ε":{"x_min":66.46875,"x_max":675.640625,"ha":748,"o":"m 364 323 q 241 294 282 323 q 200 206 200 265 q 247 123 200 157 q 373 89 293 89 q 498 127 449 89 q 548 216 548 165 l 674 216 l 675 212 q 588 44 678 102 q 373 -13 498 -13 q 151 45 236 -13 q 66 206 66 104 q 101 311 66 268 q 203 376 136 355 q 111 441 144 400 q 79 532 79 483 q 158 690 79 634 q 373 746 237 746 q 582 686 497 746 q 663 533 666 627 l 661 528 l 535 528 q 488 609 535 576 q 373 642 441 642 q 254 610 295 642 q 212 532 212 578 q 249 453 212 482 q 364 425 286 425 l 506 425 l 506 323 l 364 323 "},"э":{"x_min":70.390625,"x_max":674.828125,"ha":747,"o":"m 352 641 q 241 600 290 641 q 193 500 193 559 l 72 500 l 71 504 q 153 672 67 598 q 352 747 240 747 q 588 640 501 747 q 674 381 674 534 l 674 352 q 588 92 674 198 q 352 -14 501 -14 q 147 61 228 -14 q 70 247 67 137 l 71 251 l 193 251 q 239 137 193 184 q 352 90 284 90 q 484 156 438 90 q 537 318 531 223 l 535 321 l 274 321 l 274 426 l 533 426 l 535 429 q 481 579 528 518 q 352 641 435 641 "},"Ӷ":{"x_min":122.078125,"x_max":727.734375,"ha":773,"o":"m 727 882 l 255 882 l 255 0 l 122 0 l 122 988 l 727 988 l 727 882 m 353 -243 l 220 -243 l 220 106 l 353 106 l 353 -243 "},"ӫ":{"x_min":65.78125,"x_max":722.984375,"ha":790,"o":"m 65 373 q 153 641 65 536 q 393 747 242 747 q 634 641 545 747 q 722 373 722 536 l 722 358 q 634 90 722 194 q 394 -14 546 -14 q 154 90 242 -14 q 65 358 65 195 l 65 373 m 394 90 q 530 153 481 90 q 583 315 578 216 l 582 318 l 205 318 l 204 315 q 258 153 209 216 q 394 90 306 90 m 393 641 q 260 581 308 641 q 204 427 212 521 l 206 424 l 581 424 l 583 427 q 526 581 575 520 q 393 641 478 641 m 613 889 l 465 889 l 465 1024 l 613 1024 l 613 889 m 294 889 l 146 889 l 146 1024 l 294 1024 l 294 889 "},"ш":{"x_min":96.984375,"x_max":1014.625,"ha":1116,"o":"m 230 734 l 230 104 l 489 104 l 489 734 l 622 734 l 622 104 l 881 104 l 881 734 l 1014 734 l 1014 0 l 96 0 l 96 734 l 230 734 "},"Я":{"x_min":67.140625,"x_max":769.109375,"ha":891,"o":"m 208 0 l 67 0 l 298 422 q 152 526 202 458 q 103 690 103 594 q 196 909 103 831 q 453 988 289 988 l 769 988 l 769 0 l 635 0 l 635 386 l 414 386 l 208 0 m 635 882 l 453 882 q 291 831 347 882 q 236 692 236 781 q 292 547 236 603 q 451 492 347 492 l 635 492 l 635 882 "},"a":{"x_min":71.890625,"x_max":685.6875,"ha":764,"o":"m 548 0 q 537 58 541 33 q 533 109 533 84 q 435 21 495 56 q 306 -14 375 -14 q 131 44 191 -14 q 71 206 71 103 q 157 370 71 311 q 387 430 242 430 l 533 430 l 533 502 q 493 604 533 566 q 382 641 454 641 q 277 609 318 641 q 237 530 237 576 l 109 530 l 108 534 q 184 680 104 614 q 389 747 263 747 q 590 683 514 747 q 666 500 666 620 l 666 147 q 670 71 666 108 q 685 0 674 35 l 548 0 m 326 97 q 457 135 398 97 q 533 220 515 172 l 533 339 l 383 339 q 253 299 302 339 q 205 203 205 258 q 236 126 205 154 q 326 97 266 97 "},"Ę":{"x_min":122.078125,"x_max":777.25,"ha":812,"o":"m 708 457 l 255 457 l 255 104 l 777 104 l 777 0 l 122 0 l 122 988 l 769 988 l 769 882 l 255 882 l 255 563 l 708 563 l 708 457 m 487 0 q 412 -67 439 -35 q 386 -136 386 -99 q 401 -181 386 -164 q 451 -197 416 -197 q 485 -192 469 -197 q 518 -179 500 -187 l 540 -263 q 486 -284 516 -276 q 416 -293 457 -293 q 311 -255 352 -293 q 270 -151 270 -218 q 311 -48 270 -96 q 438 38 352 0 l 487 0 "},"Ӣ":{"x_min":122.078125,"x_max":868.796875,"ha":991,"o":"m 735 988 l 868 988 l 868 0 l 735 0 l 735 753 l 731 754 l 255 0 l 122 0 l 122 988 l 255 988 l 255 235 l 259 233 l 735 988 m 745 1112 l 256 1112 l 256 1211 l 745 1211 l 745 1112 "},"Z":{"x_min":65.78125,"x_max":768.421875,"ha":831,"o":"m 216 104 l 768 104 l 768 0 l 65 0 l 65 99 l 593 882 l 73 882 l 73 988 l 746 988 l 746 892 l 216 104 "}," ":{"x_min":0,"x_max":0,"ha":236},"k":{"x_min":97.671875,"x_max":713.484375,"ha":712,"o":"m 318 338 l 231 338 l 231 0 l 97 0 l 97 1058 l 231 1058 l 231 445 l 316 445 l 517 734 l 677 734 l 426 400 l 713 0 l 556 0 l 318 338 "},"Ù":{"x_min":99.703125,"x_max":843.703125,"ha":940,"o":"m 843 988 l 843 318 q 738 71 843 156 q 465 -14 634 -14 q 201 71 302 -14 q 99 318 99 157 l 99 988 l 233 988 l 233 318 q 297 148 233 206 q 465 90 360 90 q 642 148 575 90 q 710 318 710 206 l 710 988 l 843 988 m 529 1057 l 422 1057 l 252 1233 l 254 1238 l 410 1238 l 529 1057 "},"Ҷ":{"x_min":99.703125,"x_max":930.71875,"ha":956,"o":"m 832 988 l 832 0 l 699 0 l 699 408 q 574 380 634 388 q 431 371 514 371 q 183 442 267 371 q 99 675 99 514 l 99 988 l 233 988 l 233 675 q 280 520 233 563 q 431 477 327 477 q 567 486 501 477 q 699 514 632 496 l 699 988 l 832 988 m 930 -243 l 797 -243 l 797 106 l 930 106 l 930 -243 "},"Ů":{"x_min":99.703125,"x_max":843.703125,"ha":940,"o":"m 843 988 l 843 318 q 738 71 843 156 q 465 -14 634 -14 q 201 71 302 -14 q 99 318 99 157 l 99 988 l 233 988 l 233 318 q 297 148 233 206 q 465 90 360 90 q 642 148 575 90 q 710 318 710 206 l 710 988 l 843 988 m 331 1176 q 372 1272 331 1233 q 472 1310 413 1310 q 570 1272 529 1310 q 611 1176 611 1234 q 570 1081 611 1118 q 472 1045 530 1045 q 372 1081 413 1045 q 331 1176 331 1118 m 401 1176 q 422 1126 401 1147 q 472 1106 443 1106 q 521 1126 500 1106 q 541 1176 541 1146 q 521 1228 541 1207 q 472 1249 500 1249 q 422 1228 443 1249 q 401 1176 401 1207 "},"¢":{"x_min":72.5625,"x_max":692.53125,"ha":761,"o":"m 402 90 q 519 131 468 90 q 569 231 569 172 l 690 231 l 692 227 q 626 76 694 144 q 458 -9 557 7 l 458 -166 l 324 -166 l 324 -6 q 136 117 200 18 q 72 352 72 216 l 72 381 q 137 615 72 516 q 324 739 201 713 l 324 894 l 458 894 l 458 743 q 629 654 564 726 q 692 484 694 582 l 691 481 l 569 481 q 522 595 569 548 q 402 642 474 642 q 251 566 297 642 q 206 381 206 491 l 206 352 q 251 165 206 240 q 402 90 296 90 "},"В":{"x_min":122.078125,"x_max":813.1875,"ha":888,"o":"m 122 0 l 122 988 l 444 988 q 686 921 598 988 q 773 720 773 854 q 731 602 773 654 q 621 525 689 551 q 761 438 710 506 q 813 278 813 369 q 725 71 813 143 q 486 0 637 0 l 122 0 m 255 463 l 255 104 l 486 104 q 628 149 577 104 q 679 277 679 194 q 637 413 679 364 q 506 463 594 463 l 255 463 m 255 568 l 472 568 q 593 609 546 568 q 640 723 640 650 q 589 843 640 803 q 444 882 539 882 l 255 882 l 255 568 "},"І":{"x_min":128.859375,"x_max":263.15625,"ha":393,"o":"m 263 0 l 128 0 l 128 988 l 263 988 l 263 0 "},"ē":{"x_min":67.140625,"x_max":681.609375,"ha":735,"o":"m 401 -14 q 157 87 248 -14 q 67 352 67 189 l 67 382 q 160 642 67 538 q 381 747 253 747 q 605 657 529 747 q 681 419 681 568 l 681 336 l 205 336 l 203 332 q 257 158 205 226 q 401 90 308 90 q 520 109 469 90 q 609 163 571 129 l 661 76 q 557 11 621 37 q 401 -14 493 -14 m 381 641 q 266 585 314 641 q 208 443 219 529 l 209 440 l 548 440 l 548 458 q 505 589 548 536 q 381 641 463 641 m 626 894 l 137 894 l 137 993 l 626 993 l 626 894 "},"Ẹ":{"x_min":122.078125,"x_max":777.25,"ha":812,"o":"m 708 457 l 255 457 l 255 104 l 777 104 l 777 0 l 122 0 l 122 988 l 769 988 l 769 882 l 255 882 l 255 563 l 708 563 l 708 457 m 499 -221 l 351 -221 l 351 -85 l 499 -85 l 499 -221 "},"β":{"x_min":106.484375,"x_max":748.078125,"ha":823,"o":"m 411 1002 q 623 927 543 1002 q 704 734 704 852 q 670 620 704 672 q 577 538 636 568 q 702 442 657 508 q 748 288 748 375 q 662 66 748 146 q 439 -14 576 -14 q 331 1 383 -14 q 240 47 280 16 l 240 -260 l 106 -260 l 106 727 q 196 920 106 839 q 411 1002 286 1002 m 408 583 q 531 624 491 583 q 570 737 570 665 q 528 849 570 801 q 411 896 485 896 q 289 848 339 896 q 240 728 240 799 l 240 165 q 317 110 269 129 q 425 90 365 90 q 563 144 513 90 q 614 285 614 198 q 570 419 614 361 q 450 477 525 477 l 353 477 l 353 583 l 408 583 "},"‼":{"x_min":115.96875,"x_max":616.265625,"ha":731,"o":"m 249 324 l 115 324 l 115 988 l 249 988 l 249 324 m 250 0 l 115 0 l 115 138 l 250 138 l 250 0 m 615 324 l 481 324 l 481 988 l 615 988 l 615 324 m 616 0 l 481 0 l 481 138 l 616 138 l 616 0 "},"Ғ":{"x_min":-2.71875,"x_max":727.734375,"ha":773,"o":"m 432 461 l 255 461 l 255 0 l 122 0 l 122 461 l -2 461 l -2 567 l 122 567 l 122 988 l 727 988 l 727 882 l 255 882 l 255 567 l 432 567 l 432 461 "},"¥":{"x_min":20.34375,"x_max":813.1875,"ha":843,"o":"m 417 538 l 661 988 l 813 988 l 529 501 l 741 501 l 741 395 l 481 395 l 481 304 l 741 304 l 741 198 l 481 198 l 481 0 l 347 0 l 347 198 l 93 198 l 93 304 l 347 304 l 347 395 l 93 395 l 93 501 l 304 501 l 20 988 l 173 988 l 417 538 "},"Ĥ":{"x_min":122.078125,"x_max":868.796875,"ha":991,"o":"m 868 0 l 735 0 l 735 435 l 255 435 l 255 0 l 122 0 l 122 988 l 255 988 l 255 541 l 735 541 l 735 988 l 868 988 l 868 0 m 697 1102 l 697 1086 l 588 1086 l 488 1186 l 389 1086 l 280 1086 l 280 1103 l 447 1264 l 529 1264 l 697 1102 "},"U":{"x_min":99.703125,"x_max":843.703125,"ha":940,"o":"m 843 988 l 843 318 q 738 71 843 156 q 465 -14 634 -14 q 201 71 302 -14 q 99 318 99 157 l 99 988 l 233 988 l 233 318 q 297 148 233 206 q 465 90 360 90 q 642 148 575 90 q 710 318 710 206 l 710 988 l 843 988 "},"Ñ":{"x_min":122.078125,"x_max":868.796875,"ha":991,"o":"m 868 0 l 735 0 l 259 764 l 255 762 l 255 0 l 122 0 l 122 988 l 255 988 l 731 225 l 735 226 l 735 988 l 868 988 l 868 0 m 729 1249 q 688 1142 729 1186 q 587 1098 648 1098 q 487 1129 539 1098 q 400 1161 434 1161 q 351 1139 371 1161 q 331 1085 331 1117 l 258 1103 q 298 1212 258 1166 q 400 1259 338 1259 q 495 1227 438 1259 q 587 1195 552 1195 q 635 1217 615 1195 q 656 1271 656 1239 l 729 1249 "},"F":{"x_min":122.078125,"x_max":775.203125,"ha":809,"o":"m 706 436 l 255 436 l 255 0 l 122 0 l 122 988 l 775 988 l 775 882 l 255 882 l 255 542 l 706 542 l 706 436 "},"ả":{"x_min":71.890625,"x_max":685.6875,"ha":764,"o":"m 548 0 q 537 58 541 33 q 533 109 533 84 q 435 21 495 56 q 306 -14 375 -14 q 131 44 191 -14 q 71 206 71 103 q 157 370 71 311 q 387 430 242 430 l 533 430 l 533 502 q 493 604 533 566 q 382 641 454 641 q 277 609 318 641 q 237 530 237 576 l 109 530 l 108 534 q 184 680 104 614 q 389 747 263 747 q 590 683 514 747 q 666 500 666 620 l 666 147 q 670 71 666 108 q 685 0 674 35 l 548 0 m 326 97 q 457 135 398 97 q 533 220 515 172 l 533 339 l 383 339 q 253 299 302 339 q 205 203 205 258 q 236 126 205 154 q 326 97 266 97 m 331 854 l 330 958 q 404 972 382 961 q 426 1007 426 982 q 396 1047 426 1034 q 317 1060 367 1060 l 322 1133 q 475 1098 422 1133 q 529 1005 529 1063 q 500 933 529 957 q 427 902 471 908 l 426 854 l 331 854 "},"ϑ":{"x_min":76.640625,"x_max":813.875,"ha":858,"o":"m 353 702 l 353 744 q 417 931 353 861 q 583 1002 481 1002 q 752 933 690 1002 q 813 744 813 865 l 813 401 q 710 99 813 213 q 438 -14 607 -14 q 177 103 277 -14 q 76 401 76 221 l 76 848 l 210 850 l 210 401 q 271 180 210 265 q 438 95 333 95 q 615 175 550 95 q 680 397 679 255 q 443 487 533 402 q 353 702 353 572 m 680 744 q 656 855 680 818 q 583 892 631 892 q 513 855 539 892 q 486 744 486 818 l 486 701 q 537 566 486 620 q 676 510 588 512 l 680 511 l 680 744 "},"Ӹ":{"x_min":122.546875,"x_max":1087.15625,"ha":1209,"o":"m 256 584 l 499 584 q 745 505 658 584 q 833 294 833 427 q 745 80 833 161 q 499 0 657 0 l 122 0 l 122 988 l 256 988 l 256 584 m 256 478 l 256 104 l 499 104 q 649 158 600 104 q 699 296 699 213 q 649 427 699 376 q 499 478 600 478 l 256 478 m 1087 0 l 952 0 l 952 988 l 1087 988 l 1087 0 m 838 1089 l 690 1089 l 690 1224 l 838 1224 l 838 1089 m 519 1089 l 371 1089 l 371 1224 l 519 1224 l 519 1089 "},"Ќ":{"x_min":122.078125,"x_max":889.828125,"ha":893,"o":"m 370 445 l 255 445 l 255 0 l 122 0 l 122 988 l 255 988 l 255 551 l 358 551 l 712 988 l 859 988 l 862 984 l 478 510 l 889 3 l 887 0 l 728 0 l 370 445 m 481 1235 l 637 1235 l 638 1230 l 455 1054 l 355 1054 l 481 1235 "},"ờ":{"x_min":65.78125,"x_max":851.84375,"ha":797,"o":"m 65 373 q 153 641 65 536 q 393 747 242 747 q 520 723 462 747 q 621 656 577 699 q 703 713 676 669 q 731 829 731 758 l 851 829 q 806 668 851 732 q 674 583 761 604 q 710 485 697 538 q 722 373 722 431 l 722 358 q 634 90 722 194 q 394 -14 546 -14 q 154 90 242 -14 q 65 358 65 195 l 65 373 m 199 358 q 248 166 199 242 q 394 90 297 90 q 539 166 490 90 q 589 358 589 242 l 589 373 q 539 565 589 488 q 393 641 489 641 q 248 565 297 641 q 199 373 199 488 l 199 358 m 451 839 l 344 839 l 174 1015 l 176 1019 l 332 1019 l 451 839 "},"҄":{"x_min":170.234375,"x_max":685.6875,"ha":820,"o":"m 200 972 q 375 1014 276 972 q 524 1056 474 1056 q 643 1018 600 1056 q 685 908 685 981 l 685 883 l 594 883 l 594 896 q 574 949 594 931 q 521 968 554 968 q 390 926 492 968 q 201 884 289 884 l 170 884 l 170 972 l 200 972 "},"å":{"x_min":71.890625,"x_max":685.6875,"ha":764,"o":"m 548 0 q 537 58 541 33 q 533 109 533 84 q 435 21 495 56 q 306 -14 375 -14 q 131 44 191 -14 q 71 206 71 103 q 157 370 71 311 q 387 430 242 430 l 533 430 l 533 502 q 493 604 533 566 q 382 641 454 641 q 277 609 318 641 q 237 530 237 576 l 109 530 l 108 534 q 184 680 104 614 q 389 747 263 747 q 590 683 514 747 q 666 500 666 620 l 666 147 q 670 71 666 108 q 685 0 674 35 l 548 0 m 326 97 q 457 135 398 97 q 533 220 515 172 l 533 339 l 383 339 q 253 299 302 339 q 205 203 205 258 q 236 126 205 154 q 326 97 266 97 m 234 958 q 275 1054 234 1015 q 375 1092 316 1092 q 473 1054 432 1092 q 514 958 514 1016 q 473 863 514 900 q 375 827 433 827 q 275 863 316 827 q 234 958 234 900 m 304 958 q 325 908 304 929 q 375 888 346 888 q 424 908 403 888 q 444 958 444 928 q 424 1010 444 989 q 375 1031 403 1031 q 325 1010 346 1031 q 304 958 304 989 "},"Ϋ":{"x_min":13.5625,"x_max":834.21875,"ha":848,"o":"m 423 485 l 681 988 l 834 988 l 487 347 l 487 0 l 354 0 l 354 356 l 13 988 l 166 988 l 423 485 m 657 1088 l 509 1088 l 509 1223 l 657 1223 l 657 1088 m 338 1088 l 190 1088 l 190 1223 l 338 1223 l 338 1088 "},"0":{"x_min":76.640625,"x_max":705.359375,"ha":783,"o":"m 705 376 q 621 86 705 187 q 392 -14 537 -14 q 161 87 246 -14 q 76 376 76 188 l 76 610 q 161 900 76 799 q 390 1002 245 1002 q 620 900 536 1002 q 705 610 705 799 l 705 376 m 571 639 q 525 832 571 767 q 390 896 478 896 q 256 832 302 896 q 210 639 210 767 l 210 349 q 257 155 210 221 q 392 90 303 90 q 525 155 480 90 q 571 349 571 220 l 571 639 "},"ō":{"x_min":65.78125,"x_max":722.984375,"ha":789,"o":"m 65 373 q 153 641 65 536 q 393 747 242 747 q 634 641 545 747 q 722 373 722 536 l 722 358 q 634 90 722 194 q 394 -14 546 -14 q 154 90 242 -14 q 65 358 65 195 l 65 373 m 199 358 q 248 166 199 242 q 394 90 297 90 q 539 166 490 90 q 589 358 589 242 l 589 373 q 539 565 589 488 q 393 641 489 641 q 248 565 297 641 q 199 373 199 488 l 199 358 m 643 893 l 154 893 l 154 992 l 643 992 l 643 893 "},"”":{"x_min":54.265625,"x_max":457.5625,"ha":510,"o":"m 228 927 l 120 692 l 54 692 l 94 925 l 94 1058 l 228 1058 l 228 927 m 457 927 l 349 692 l 283 692 l 323 925 l 323 1058 l 457 1058 l 457 927 "},"Ӕ":{"x_min":-13.5625,"x_max":1281.15625,"ha":1304,"o":"m 1281 0 l 674 0 l 663 238 l 286 238 l 149 0 l -13 0 l 583 988 l 1239 988 l 1239 882 l 770 882 l 784 566 l 1184 566 l 1184 460 l 788 460 l 803 104 l 1281 104 l 1281 0 m 356 359 l 659 359 l 638 840 l 634 842 l 356 359 "},"҆":{"x_min":203.46875,"x_max":369.625,"ha":574,"o":"m 257 882 l 203 926 l 242 1005 l 242 1100 l 369 1100 l 369 1016 l 257 882 "},"ö":{"x_min":65.78125,"x_max":722.984375,"ha":789,"o":"m 65 373 q 153 641 65 536 q 393 747 242 747 q 634 641 545 747 q 722 373 722 536 l 722 358 q 634 90 722 194 q 394 -14 546 -14 q 154 90 242 -14 q 65 358 65 195 l 65 373 m 199 358 q 248 166 199 242 q 394 90 297 90 q 539 166 490 90 q 589 358 589 242 l 589 373 q 539 565 589 488 q 393 641 489 641 q 248 565 297 641 q 199 373 199 488 l 199 358 m 628 870 l 480 870 l 480 1005 l 628 1005 l 628 870 m 309 870 l 161 870 l 161 1005 l 309 1005 l 309 870 "},"ć":{"x_min":65.78125,"x_max":685.09375,"ha":737,"o":"m 395 90 q 512 131 461 90 q 562 232 562 172 l 682 232 l 684 228 q 599 59 687 133 q 395 -14 512 -14 q 150 90 235 -14 q 65 352 65 194 l 65 381 q 150 642 65 537 q 395 747 236 747 q 605 671 524 747 q 685 484 687 595 l 683 480 l 562 480 q 515 594 562 547 q 395 641 467 641 q 245 566 290 641 q 200 381 200 490 l 200 352 q 244 165 200 240 q 395 90 289 90 m 428 1017 l 584 1017 l 585 1013 l 402 837 l 302 837 l 428 1017 "},"þ":{"x_min":103.765625,"x_max":729.09375,"ha":804,"o":"m 729 339 q 653 83 729 180 q 443 -14 577 -14 q 324 8 375 -14 q 237 76 273 31 l 237 -282 l 103 -282 l 103 1058 l 237 1058 l 237 652 q 324 722 273 698 q 441 747 375 747 q 653 638 577 747 q 729 353 729 530 l 729 339 m 595 353 q 546 558 595 477 q 401 638 497 638 q 303 612 343 638 q 237 540 262 586 l 237 186 q 303 115 262 141 q 402 90 343 90 q 546 159 497 90 q 595 339 595 229 l 595 353 "},"]":{"x_min":7.453125,"x_max":269.25,"ha":374,"o":"m 7 1129 l 269 1129 l 269 -212 l 7 -212 l 7 -106 l 135 -106 l 135 1023 l 7 1023 l 7 1129 "},"А":{"x_min":13.5625,"x_max":885.765625,"ha":899,"o":"m 657 254 l 243 254 l 149 0 l 13 0 l 395 988 l 510 988 l 885 0 l 749 0 l 657 254 m 284 365 l 617 365 l 454 816 l 450 816 l 284 365 "},"′":{"x_min":54.265625,"x_max":188.546875,"ha":243,"o":"m 188 906 l 120 715 l 54 715 l 54 895 l 54 1058 l 188 1058 l 188 906 "},"Ы":{"x_min":122.078125,"x_max":1087.1875,"ha":1209,"o":"m 255 597 l 499 597 q 745 515 657 597 q 832 301 832 434 q 744 83 832 166 q 499 0 656 0 l 122 0 l 122 988 l 255 988 l 255 597 m 255 491 l 255 104 l 499 104 q 649 161 598 104 q 699 302 699 219 q 649 437 699 383 q 499 491 599 491 l 255 491 m 1087 0 l 952 0 l 952 988 l 1087 988 l 1087 0 "},"ẁ":{"x_min":30.515625,"x_max":1017.328125,"ha":1051,"o":"m 284 267 l 300 178 l 304 178 l 323 267 l 470 734 l 577 734 l 724 267 l 745 168 l 749 168 l 769 267 l 884 734 l 1017 734 l 804 0 l 696 0 l 554 447 l 524 571 l 520 571 l 491 447 l 351 0 l 243 0 l 30 734 l 163 734 l 284 267 m 580 825 l 473 825 l 303 1001 l 305 1005 l 461 1005 l 580 825 "},"ệ":{"x_min":67.140625,"x_max":681.609375,"ha":735,"o":"m 401 -14 q 157 87 248 -14 q 67 352 67 189 l 67 382 q 160 642 67 538 q 381 747 253 747 q 605 657 529 747 q 681 419 681 568 l 681 336 l 205 336 l 203 332 q 257 158 205 226 q 401 90 308 90 q 520 109 469 90 q 609 163 571 129 l 661 76 q 557 11 621 37 q 401 -14 493 -14 m 381 641 q 266 585 314 641 q 208 443 219 529 l 209 440 l 548 440 l 548 458 q 505 589 548 536 q 381 641 463 641 m 587 884 l 587 868 l 478 868 l 378 968 l 279 868 l 170 868 l 170 885 l 337 1046 l 419 1046 l 587 884 m 462 -228 l 314 -228 l 314 -92 l 462 -92 l 462 -228 "},"ĭ":{"x_min":-27.328125,"x_max":373.15625,"ha":349,"o":"m 237 0 l 103 0 l 103 734 l 237 734 l 237 0 m 371 1035 l 373 1031 q 320 903 375 953 q 172 854 265 854 q 24 903 79 854 q -27 1031 -30 953 l -25 1035 l 76 1035 q 99 963 76 991 q 172 935 122 935 q 245 963 221 935 q 269 1035 269 991 l 371 1035 "},"8":{"x_min":69.171875,"x_max":712.140625,"ha":782,"o":"m 685 729 q 641 594 685 652 q 524 508 598 536 q 660 414 609 478 q 712 267 712 350 q 622 58 712 130 q 391 -14 533 -14 q 157 58 246 -14 q 69 267 69 130 q 119 414 69 350 q 255 508 169 478 q 139 594 181 536 q 96 729 96 652 q 177 931 96 860 q 389 1002 257 1002 q 602 931 520 1002 q 685 729 685 860 m 579 270 q 525 403 579 351 q 389 455 472 455 q 254 403 306 455 q 202 270 202 351 q 254 138 202 186 q 391 90 305 90 q 526 138 474 90 q 579 270 579 186 m 551 727 q 505 848 551 800 q 389 896 459 896 q 274 850 318 896 q 230 727 230 803 q 275 606 230 651 q 391 561 319 561 q 506 606 461 561 q 551 727 551 651 "},"ѯ":{"x_min":49.515625,"x_max":602.9375,"ha":669,"o":"m 278 419 q 411 447 368 419 q 453 526 453 475 q 412 599 453 570 q 291 628 370 628 l 86 628 l 86 734 l 291 734 q 504 676 421 734 q 588 523 588 619 q 553 433 588 474 q 456 369 518 393 q 565 305 527 347 q 602 205 602 264 q 520 44 602 103 q 307 -14 438 -14 l 274 -14 q 199 -33 223 -14 q 176 -89 176 -53 q 208 -166 176 -137 q 284 -215 240 -195 l 230 -301 q 102 -213 155 -269 q 49 -82 50 -158 q 110 47 49 4 q 280 91 170 91 l 307 91 q 425 122 382 91 q 468 203 468 152 q 420 286 468 258 q 278 313 371 313 l 181 313 l 181 419 l 278 419 m 314 959 l 413 1059 l 529 1059 l 529 1047 l 354 881 l 274 881 l 101 1045 l 101 1059 l 214 1059 l 314 959 "},"Ӝ":{"x_min":18.984375,"x_max":1249.28125,"ha":1144,"o":"m 807 452 l 704 452 l 704 0 l 570 0 l 570 452 l 460 452 l 185 0 l 18 0 l 349 522 l 46 988 l 202 988 l 459 558 l 570 558 l 570 988 l 704 988 l 704 558 l 809 558 l 1066 988 l 1222 988 l 918 522 l 1249 0 l 1083 0 l 807 452 m 873 1089 l 725 1089 l 725 1224 l 873 1224 l 873 1089 m 554 1089 l 406 1089 l 406 1224 l 554 1224 l 554 1089 "},"Ữ":{"x_min":99.703125,"x_max":1099.4375,"ha":970,"o":"m 843 988 l 843 866 l 847 865 q 937 938 906 883 q 968 1079 968 994 l 1097 1079 l 1099 1075 q 1034 862 1100 944 q 843 756 967 779 l 843 318 q 738 71 843 156 q 465 -14 634 -14 q 201 71 302 -14 q 99 318 99 157 l 99 988 l 233 988 l 233 318 q 297 148 233 206 q 465 90 360 90 q 642 148 575 90 q 710 318 710 206 l 710 988 l 843 988 m 707 1249 q 666 1142 707 1186 q 565 1098 626 1098 q 465 1129 517 1098 q 378 1161 412 1161 q 329 1139 349 1161 q 309 1085 309 1117 l 236 1103 q 276 1212 236 1166 q 378 1259 316 1259 q 473 1227 416 1259 q 565 1195 530 1195 q 613 1217 593 1195 q 634 1271 634 1239 l 707 1249 "},"ѡ":{"x_min":84.09375,"x_max":979.359375,"ha":1058,"o":"m 979 734 l 979 238 q 908 50 979 115 q 722 -14 836 -14 q 609 10 659 -14 q 530 82 560 34 q 446 10 498 34 q 328 -14 394 -14 q 150 50 217 -14 q 84 238 84 114 l 84 734 l 217 734 l 217 238 q 247 128 217 165 q 328 90 277 90 q 426 128 388 90 q 464 238 464 166 l 464 734 l 598 734 l 598 238 q 632 128 598 165 q 722 90 666 90 q 811 128 777 90 q 845 238 845 166 l 845 734 l 979 734 "},"R":{"x_min":122.078125,"x_max":855.234375,"ha":920,"o":"m 255 428 l 255 0 l 122 0 l 122 987 l 479 987 q 727 915 641 987 q 812 706 812 843 q 772 573 812 630 q 657 484 733 517 q 774 398 738 457 q 809 251 809 339 l 809 158 q 819 75 809 112 q 855 16 830 39 l 855 0 l 717 0 q 683 67 691 23 q 676 160 676 112 l 676 250 q 629 379 676 330 q 503 428 582 428 l 255 428 m 255 533 l 465 533 q 629 576 579 533 q 678 707 678 619 q 630 836 678 790 q 479 882 581 882 l 255 882 l 255 533 "},"Ż":{"x_min":65.78125,"x_max":768.421875,"ha":831,"o":"m 216 104 l 768 104 l 768 0 l 65 0 l 65 99 l 593 882 l 73 882 l 73 988 l 746 988 l 746 892 l 216 104 m 487 1088 l 339 1088 l 339 1224 l 487 1224 l 487 1088 "},"Ң":{"x_min":122.078125,"x_max":966.71875,"ha":991,"o":"m 868 0 l 735 0 l 735 435 l 255 435 l 255 0 l 122 0 l 122 988 l 255 988 l 255 541 l 735 541 l 735 988 l 868 988 l 868 0 m 966 -243 l 833 -243 l 833 106 l 966 106 l 966 -243 "},"ħ":{"x_min":0.671875,"x_max":714.84375,"ha":810,"o":"m 435 834 l 250 834 l 250 635 q 344 717 288 687 q 466 747 399 747 q 649 676 583 747 q 714 459 714 606 l 714 0 l 581 0 l 581 460 q 542 595 581 551 q 425 638 503 638 q 325 612 370 638 q 250 541 280 586 l 250 0 l 117 0 l 117 834 l 0 834 l 0 940 l 117 940 l 117 1058 l 250 1058 l 250 940 l 435 940 l 435 834 "},"õ":{"x_min":65.78125,"x_max":722.984375,"ha":789,"o":"m 65 373 q 153 641 65 536 q 393 747 242 747 q 634 641 545 747 q 722 373 722 536 l 722 358 q 634 90 722 194 q 394 -14 546 -14 q 154 90 242 -14 q 65 358 65 195 l 65 373 m 199 358 q 248 166 199 242 q 394 90 297 90 q 539 166 490 90 q 589 358 589 242 l 589 373 q 539 565 589 488 q 393 641 489 641 q 248 565 297 641 q 199 373 199 488 l 199 358 m 630 1031 q 589 924 630 968 q 488 880 549 880 q 388 911 440 880 q 301 943 335 943 q 252 921 272 943 q 232 867 232 899 l 159 885 q 199 994 159 948 q 301 1041 239 1041 q 396 1009 339 1041 q 488 977 453 977 q 536 999 516 977 q 557 1053 557 1021 l 630 1031 "},"ẫ":{"x_min":71.890625,"x_max":685.6875,"ha":764,"o":"m 548 0 q 537 58 541 33 q 533 109 533 84 q 435 21 495 56 q 306 -14 375 -14 q 131 44 191 -14 q 71 206 71 103 q 157 370 71 311 q 387 430 242 430 l 533 430 l 533 502 q 493 604 533 566 q 382 641 454 641 q 277 609 318 641 q 237 530 237 576 l 109 530 l 108 534 q 184 680 104 614 q 389 747 263 747 q 590 683 514 747 q 666 500 666 620 l 666 147 q 670 71 666 108 q 685 0 674 35 l 548 0 m 326 97 q 457 135 398 97 q 533 220 515 172 l 533 339 l 383 339 q 253 299 302 339 q 205 203 205 258 q 236 126 205 154 q 326 97 266 97 m 623 846 l 621 842 l 506 842 l 373 961 l 240 842 l 125 842 l 124 846 l 320 1020 l 427 1020 l 623 846 m 550 1189 q 517 1106 550 1143 q 439 1070 484 1070 q 365 1094 404 1070 q 301 1118 327 1118 q 263 1098 280 1118 q 246 1055 246 1078 l 191 1068 q 224 1152 191 1115 q 301 1190 256 1190 q 371 1167 330 1190 q 439 1143 413 1143 q 478 1162 460 1143 q 496 1205 496 1181 l 550 1189 "},"ҭ":{"x_min":48.15625,"x_max":662.625,"ha":711,"o":"m 662 630 l 420 630 l 420 0 l 286 0 l 286 630 l 48 630 l 48 734 l 662 734 l 662 630 m 518 -243 l 385 -243 l 385 106 l 518 106 l 518 -243 "},"ғ":{"x_min":-8.8125,"x_max":563.609375,"ha":576,"o":"m 425 322 l 230 322 l 230 0 l 96 0 l 96 322 l -8 322 l -8 428 l 96 428 l 96 734 l 563 734 l 563 628 l 230 628 l 230 428 l 425 428 l 425 322 "},"Ӎ":{"x_min":122.078125,"x_max":1208.640625,"ha":1220,"o":"m 293 988 l 607 185 l 611 185 l 926 988 l 1097 988 l 1097 0 l 963 0 l 963 390 l 977 792 l 973 793 l 653 0 l 564 0 l 246 791 l 242 790 l 255 390 l 255 0 l 122 0 l 122 988 l 293 988 m 1208 6 l 1106 -200 l 1027 -200 l 1075 13 l 1075 124 l 1208 124 l 1208 6 "},"ê":{"x_min":67.140625,"x_max":681.609375,"ha":735,"o":"m 401 -14 q 157 87 248 -14 q 67 352 67 189 l 67 382 q 160 642 67 538 q 381 747 253 747 q 605 657 529 747 q 681 419 681 568 l 681 336 l 205 336 l 203 332 q 257 158 205 226 q 401 90 308 90 q 520 109 469 90 q 609 163 571 129 l 661 76 q 557 11 621 37 q 401 -14 493 -14 m 381 641 q 266 585 314 641 q 208 443 219 529 l 209 440 l 548 440 l 548 458 q 505 589 548 536 q 381 641 463 641 m 587 884 l 587 868 l 478 868 l 378 968 l 279 868 l 170 868 l 170 885 l 337 1046 l 419 1046 l 587 884 "},"″":{"x_min":54.265625,"x_max":398.109375,"ha":453,"o":"m 188 874 l 120 705 l 54 705 l 54 868 l 54 1058 l 188 1058 l 188 874 m 398 874 l 329 705 l 263 705 l 264 873 l 264 1058 l 398 1058 l 398 874 "},"„":{"x_min":54.265625,"x_max":437.453125,"ha":492,"o":"m 228 65 l 120 -162 l 54 -162 l 94 58 l 94 190 l 228 190 l 228 65 m 437 65 l 328 -162 l 263 -162 l 303 63 l 303 190 l 437 190 l 437 65 "},"ӷ":{"x_min":96.984375,"x_max":563.609375,"ha":576,"o":"m 563 628 l 230 628 l 230 0 l 96 0 l 96 734 l 563 734 l 563 628 m 306 -243 l 173 -243 l 173 106 l 306 106 l 306 -243 "},"ч":{"x_min":86.140625,"x_max":670.078125,"ha":767,"o":"m 670 0 l 536 0 l 536 262 q 457 247 497 252 q 370 242 416 242 q 161 312 237 242 q 86 519 86 382 l 86 735 l 219 735 l 219 519 q 257 389 219 430 q 370 348 295 348 q 455 353 415 348 q 536 368 496 358 l 536 734 l 670 734 l 670 0 "},"δ":{"x_min":65.78125,"x_max":722.984375,"ha":789,"o":"m 636 988 l 636 885 l 328 885 l 326 881 l 578 693 q 685 559 647 642 q 722 374 722 475 l 722 359 q 634 90 722 194 q 394 -14 546 -14 q 154 90 242 -14 q 65 359 65 195 l 65 374 q 137 621 65 519 q 334 743 208 722 l 339 743 l 340 747 l 139 907 l 139 988 l 636 988 m 393 642 q 248 565 297 642 q 199 374 199 489 l 199 359 q 248 166 199 242 q 394 90 297 90 q 539 166 490 90 q 589 359 589 242 l 589 374 q 539 565 589 489 q 393 642 489 642 "},"Â":{"x_min":13.5625,"x_max":885.765625,"ha":899,"o":"m 657 254 l 243 254 l 149 0 l 13 0 l 395 988 l 510 988 l 885 0 l 749 0 l 657 254 m 284 365 l 617 365 l 454 816 l 450 816 l 284 365 m 657 1102 l 657 1086 l 548 1086 l 448 1186 l 349 1086 l 240 1086 l 240 1103 l 407 1264 l 489 1264 l 657 1102 "},"Į":{"x_min":31.125,"x_max":301.734375,"ha":393,"o":"m 263 0 l 128 0 l 128 988 l 263 988 l 263 0 m 248 0 q 173 -67 200 -35 q 147 -136 147 -99 q 162 -181 147 -164 q 212 -197 177 -197 q 246 -192 230 -197 q 279 -179 261 -187 l 301 -263 q 247 -284 277 -276 q 177 -293 218 -293 q 72 -255 113 -293 q 31 -151 31 -218 q 72 -48 31 -96 q 199 38 113 0 l 248 0 "},"ҫ":{"x_min":65.78125,"x_max":685.09375,"ha":737,"o":"m 395 90 q 512 131 461 90 q 562 232 562 172 l 682 232 l 684 228 q 599 59 687 133 q 395 -14 512 -14 q 150 90 235 -14 q 65 352 65 194 l 65 381 q 150 642 65 537 q 395 747 236 747 q 605 671 524 747 q 685 484 687 595 l 683 480 l 562 480 q 515 594 562 547 q 395 641 467 641 q 245 566 290 641 q 200 381 200 490 l 200 352 q 244 165 200 240 q 395 90 289 90 m 431 -291 l 298 -291 l 298 58 l 431 58 l 431 -291 "},"ω":{"x_min":73.25,"x_max":1106.859375,"ha":1181,"o":"m 318 734 q 238 555 267 643 q 206 381 209 467 q 244 171 206 252 q 364 90 282 90 q 479 145 436 90 q 522 319 522 200 l 522 522 l 657 522 l 657 319 q 699 145 657 200 q 815 90 742 90 q 935 170 897 90 q 973 381 973 251 q 940 555 969 467 q 862 734 911 643 l 1002 734 q 1077 573 1048 662 q 1106 381 1106 485 q 1038 97 1106 208 q 823 -14 969 -14 q 677 27 737 -14 q 590 149 618 68 q 501 27 560 68 q 357 -14 442 -14 q 141 97 210 -14 q 73 381 73 208 q 102 574 73 486 q 178 734 130 662 l 318 734 "},"Ţ":{"x_min":23.0625,"x_max":790.8125,"ha":814,"o":"m 790 882 l 473 882 l 473 0 l 339 0 l 339 882 l 23 882 l 23 988 l 790 988 l 790 882 m 457 -160 l 374 -321 l 308 -321 l 349 -154 l 349 -66 l 457 -66 l 457 -160 "},"´":{"x_min":88.84375,"x_max":371.671875,"ha":444,"o":"m 214 1001 l 370 1001 l 371 997 l 188 821 l 88 821 l 214 1001 "},"ỏ":{"x_min":65.78125,"x_max":722.984375,"ha":789,"o":"m 65 373 q 153 641 65 536 q 393 747 242 747 q 634 641 545 747 q 722 373 722 536 l 722 358 q 634 90 722 194 q 394 -14 546 -14 q 154 90 242 -14 q 65 358 65 195 l 65 373 m 199 358 q 248 166 199 242 q 394 90 297 90 q 539 166 490 90 q 589 358 589 242 l 589 373 q 539 565 589 488 q 393 641 489 641 q 248 565 297 641 q 199 373 199 488 l 199 358 m 350 854 l 349 958 q 423 972 401 961 q 445 1007 445 982 q 415 1047 445 1034 q 336 1060 386 1060 l 341 1133 q 494 1098 441 1133 q 548 1005 548 1063 q 519 933 548 957 q 446 902 490 908 l 445 854 l 350 854 "},"Ĉ":{"x_min":80.03125,"x_max":821.40625,"ha":880,"o":"m 819 316 l 821 312 q 723 79 824 173 q 458 -14 623 -14 q 185 104 290 -14 q 80 405 80 223 l 80 581 q 185 882 80 763 q 458 1002 290 1002 q 725 912 626 1002 q 821 676 824 823 l 819 672 l 691 672 q 630 836 691 776 q 458 896 569 896 q 280 806 346 896 q 213 582 213 716 l 213 405 q 280 180 213 270 q 458 90 346 90 q 630 150 569 90 q 691 316 691 210 l 819 316 m 668 1116 l 668 1100 l 559 1100 l 459 1200 l 360 1100 l 251 1100 l 251 1117 l 418 1278 l 500 1278 l 668 1116 "},"И":{"x_min":122.078125,"x_max":868.796875,"ha":991,"o":"m 735 988 l 868 988 l 868 0 l 735 0 l 735 753 l 731 754 l 255 0 l 122 0 l 122 988 l 255 988 l 255 235 l 259 233 l 735 988 "},"Љ":{"x_min":33.90625,"x_max":1438.515625,"ha":1493,"o":"m 862 988 l 862 603 l 1105 603 q 1350 519 1262 603 q 1438 301 1438 435 q 1350 83 1438 166 q 1105 0 1262 0 l 728 0 l 728 882 l 386 882 l 385 522 q 312 125 385 250 q 69 0 239 0 l 33 0 l 33 104 l 61 104 q 207 201 162 104 q 252 522 252 297 l 252 988 l 862 988 m 862 498 l 862 104 l 1105 104 q 1255 161 1205 104 q 1304 302 1304 219 q 1255 441 1304 384 q 1105 498 1205 498 l 862 498 "},"Ờ":{"x_min":73.25,"x_max":1041.078125,"ha":952,"o":"m 866 405 q 753 105 866 224 q 462 -14 641 -14 q 181 105 289 -14 q 73 405 73 224 l 73 581 q 181 881 73 761 q 462 1002 289 1002 q 613 974 543 1002 q 737 898 683 947 q 864 963 820 905 q 907 1121 907 1021 l 1041 1121 q 981 908 1041 990 q 811 801 921 826 q 851 697 837 753 q 866 581 866 640 l 866 405 m 732 582 q 659 805 732 718 q 462 892 585 892 q 276 805 345 892 q 206 582 206 718 l 206 405 q 276 182 206 268 q 462 95 345 95 q 659 181 586 95 q 732 405 732 268 l 732 582 m 531 1045 l 424 1045 l 254 1221 l 256 1225 l 412 1225 l 531 1045 "},"р":{"x_min":96.984375,"x_max":722.3125,"ha":789,"o":"m 722 339 q 646 83 722 180 q 436 -14 570 -14 q 317 8 368 -14 q 230 76 266 31 l 230 -282 l 96 -282 l 96 734 l 199 734 l 220 639 q 309 719 256 691 q 434 747 363 747 q 646 638 571 747 q 722 353 722 530 l 722 339 m 588 353 q 539 558 588 477 q 394 638 490 638 q 296 612 337 638 q 230 540 255 586 l 230 186 q 296 115 255 141 q 396 90 337 90 q 539 159 491 90 q 588 339 588 229 l 588 353 "},"Ω":{"x_min":75.96875,"x_max":835.578125,"ha":926,"o":"m 498 107 q 647 222 594 124 q 700 489 700 319 l 700 569 q 635 812 700 727 q 454 896 569 896 q 274 812 339 896 q 209 569 209 727 l 209 489 q 264 221 209 319 q 415 107 318 124 l 415 0 l 80 0 l 80 104 l 238 104 q 119 274 162 170 q 75 489 75 378 l 75 568 q 180 881 75 761 q 454 1002 285 1002 q 728 881 623 1002 q 834 568 834 761 l 834 489 q 790 274 834 378 q 672 104 747 170 l 835 104 l 835 0 l 498 0 l 498 107 "},"т":{"x_min":48.15625,"x_max":662.625,"ha":711,"o":"m 662 630 l 420 630 l 420 0 l 286 0 l 286 630 l 48 630 l 48 734 l 662 734 l 662 630 "},"П":{"x_min":122.078125,"x_max":870.15625,"ha":992,"o":"m 870 0 l 735 0 l 735 882 l 255 882 l 255 0 l 122 0 l 122 988 l 870 988 l 870 0 "},"Ö":{"x_min":76.640625,"x_max":869.484375,"ha":947,"o":"m 869 405 q 757 105 869 224 q 465 -14 644 -14 q 184 105 293 -14 q 76 405 76 224 l 76 581 q 184 881 76 761 q 465 1002 293 1002 q 757 882 644 1002 q 869 581 869 762 l 869 405 m 735 582 q 662 805 735 718 q 465 892 589 892 q 279 805 349 892 q 210 582 210 718 l 210 405 q 279 182 210 268 q 465 95 349 95 q 662 181 590 95 q 735 405 735 268 l 735 582 m 707 1103 l 559 1103 l 559 1238 l 707 1238 l 707 1103 m 388 1103 l 240 1103 l 240 1238 l 388 1238 l 388 1103 "},"z":{"x_min":63.75,"x_max":647.03125,"ha":699,"o":"m 223 104 l 647 104 l 647 0 l 63 0 l 63 93 l 460 628 l 68 628 l 68 734 l 623 734 l 623 643 l 223 104 "},"ặ":{"x_min":71.890625,"x_max":685.6875,"ha":764,"o":"m 548 0 q 537 58 541 33 q 533 109 533 84 q 435 21 495 56 q 306 -14 375 -14 q 131 44 191 -14 q 71 206 71 103 q 157 370 71 311 q 387 430 242 430 l 533 430 l 533 502 q 493 604 533 566 q 382 641 454 641 q 277 609 318 641 q 237 530 237 576 l 109 530 l 108 534 q 184 680 104 614 q 389 747 263 747 q 590 683 514 747 q 666 500 666 620 l 666 147 q 670 71 666 108 q 685 0 674 35 l 548 0 m 326 97 q 457 135 398 97 q 533 220 515 172 l 533 339 l 383 339 q 253 299 302 339 q 205 203 205 258 q 236 126 205 154 q 326 97 266 97 m 575 1049 l 577 1045 q 524 917 579 967 q 376 868 469 868 q 228 917 283 868 q 176 1045 173 967 l 178 1049 l 280 1049 q 303 977 280 1005 q 376 949 326 949 q 449 977 425 949 q 473 1049 473 1005 l 575 1049 m 417 -228 l 269 -228 l 269 -92 l 417 -92 l 417 -228 "},"Θ":{"x_min":76.640625,"x_max":869.484375,"ha":947,"o":"m 650 446 l 305 446 l 305 551 l 650 551 l 650 446 m 869 405 q 757 105 869 224 q 465 -14 644 -14 q 184 105 293 -14 q 76 405 76 224 l 76 581 q 184 881 76 761 q 465 1002 293 1002 q 757 882 644 1002 q 869 581 869 762 l 869 405 m 735 582 q 662 805 735 718 q 465 892 589 892 q 279 805 349 892 q 210 582 210 718 l 210 405 q 279 182 210 268 q 465 95 349 95 q 662 181 590 95 q 735 405 735 268 l 735 582 "},"Ř":{"x_min":122.078125,"x_max":855.234375,"ha":920,"o":"m 255 428 l 255 0 l 122 0 l 122 987 l 479 987 q 727 915 641 987 q 812 706 812 843 q 772 573 812 630 q 657 484 733 517 q 774 398 738 457 q 809 251 809 339 l 809 158 q 819 75 809 112 q 855 16 830 39 l 855 0 l 717 0 q 683 67 691 23 q 676 160 676 112 l 676 250 q 629 379 676 330 q 503 428 582 428 l 255 428 m 255 533 l 465 533 q 629 576 579 533 q 678 707 678 619 q 630 836 678 790 q 479 882 581 882 l 255 882 l 255 533 m 420 1164 l 519 1264 l 635 1264 l 635 1252 l 460 1086 l 380 1086 l 207 1250 l 207 1264 l 320 1264 l 420 1164 "},"Ň":{"x_min":122.078125,"x_max":868.796875,"ha":991,"o":"m 868 0 l 735 0 l 259 764 l 255 762 l 255 0 l 122 0 l 122 988 l 255 988 l 731 225 l 735 226 l 735 988 l 868 988 l 868 0 m 493 1164 l 592 1264 l 708 1264 l 708 1252 l 533 1086 l 453 1086 l 280 1250 l 280 1264 l 393 1264 l 493 1164 "},"ừ":{"x_min":94.265625,"x_max":938.046875,"ha":817,"o":"m 935 832 l 937 827 q 879 642 940 707 q 691 568 819 577 l 691 0 l 571 0 l 562 108 q 474 17 528 49 q 348 -14 419 -14 q 161 62 228 -14 q 94 301 94 139 l 94 734 l 227 734 l 227 299 q 262 138 227 182 q 370 94 297 94 q 487 123 441 94 q 558 205 534 152 l 558 734 l 691 734 l 691 656 l 695 655 q 792 703 763 659 q 821 832 821 746 l 935 832 m 449 825 l 342 825 l 172 1001 l 174 1005 l 330 1005 l 449 825 "},"Ợ":{"x_min":73.25,"x_max":1041.078125,"ha":952,"o":"m 866 405 q 753 105 866 224 q 462 -14 641 -14 q 181 105 289 -14 q 73 405 73 224 l 73 581 q 181 881 73 761 q 462 1002 289 1002 q 613 974 543 1002 q 737 898 683 947 q 864 963 820 905 q 907 1121 907 1021 l 1041 1121 q 981 908 1041 990 q 811 801 921 826 q 851 697 837 753 q 866 581 866 640 l 866 405 m 732 582 q 659 805 732 718 q 462 892 585 892 q 276 805 345 892 q 206 582 206 718 l 206 405 q 276 182 206 268 q 462 95 345 95 q 659 181 586 95 q 732 405 732 268 l 732 582 m 543 -228 l 395 -228 l 395 -92 l 543 -92 l 543 -228 "},"É":{"x_min":122.078125,"x_max":777.25,"ha":812,"o":"m 708 457 l 255 457 l 255 104 l 777 104 l 777 0 l 122 0 l 122 988 l 769 988 l 769 882 l 255 882 l 255 563 l 708 563 l 708 457 m 490 1235 l 646 1235 l 647 1230 l 464 1054 l 364 1054 l 490 1235 "},"ұ":{"x_min":31.203125,"x_max":675.515625,"ha":699,"o":"m 575 -9 l 421 -9 l 421 -283 l 287 -283 l 287 -9 l 141 -9 l 141 96 l 268 96 l 31 734 l 168 734 l 341 216 l 353 164 l 357 164 l 370 216 l 539 734 l 675 734 l 440 96 l 575 96 l 575 -9 "},"ѿ":{"x_min":84.09375,"x_max":979.359375,"ha":1059,"o":"m 257 914 l 257 988 l 814 988 l 816 914 l 590 914 l 590 827 l 470 827 l 470 914 l 257 914 m 979 734 l 979 238 q 908 50 979 115 q 722 -14 836 -14 q 609 10 659 -14 q 530 82 560 34 q 446 10 498 34 q 328 -14 394 -14 q 150 50 217 -14 q 84 238 84 114 l 84 734 l 217 734 l 217 238 q 247 128 217 165 q 328 90 277 90 q 426 128 388 90 q 464 238 464 166 l 464 734 l 598 734 l 598 238 q 632 128 598 165 q 722 90 666 90 q 811 128 777 90 q 845 238 845 166 l 845 734 l 979 734 "},"и":{"x_min":96.984375,"x_max":691.78125,"ha":789,"o":"m 558 734 l 691 734 l 691 0 l 558 0 l 558 521 l 554 522 l 229 0 l 96 0 l 96 734 l 229 734 l 229 212 l 233 211 l 558 734 "},"³":{"x_min":75.71875,"x_max":501.890625,"ha":594,"o":"m 287 771 q 355 790 333 771 q 377 844 377 809 q 352 893 377 873 q 280 913 327 913 q 219 896 242 913 q 196 853 196 880 l 86 853 l 84 857 q 138 961 80 921 q 280 1002 195 1002 q 436 961 379 1002 q 493 846 493 921 q 468 778 493 809 q 402 730 444 747 q 476 682 450 714 q 501 603 501 649 q 440 485 501 528 q 280 443 379 443 q 133 483 194 443 q 75 597 71 522 l 76 601 l 187 601 q 212 551 187 570 q 280 532 238 532 q 358 552 329 532 q 386 604 386 572 q 361 666 386 646 q 287 685 337 685 l 198 685 l 198 771 l 287 771 "},"Ӿ":{"x_min":44.765625,"x_max":839.640625,"ha":878,"o":"m 665 452 l 548 452 l 839 0 l 680 0 l 443 392 l 206 0 l 44 0 l 335 452 l 230 452 l 230 558 l 326 558 l 51 988 l 211 988 l 440 602 l 671 988 l 832 988 l 557 558 l 665 558 l 665 452 "},"Ӫ":{"x_min":76.640625,"x_max":869.484375,"ha":947,"o":"m 869 405 q 757 105 869 224 q 465 -14 644 -14 q 184 105 293 -14 q 76 405 76 224 l 76 581 q 184 881 76 761 q 465 1002 293 1002 q 757 882 644 1002 q 869 581 869 762 l 869 405 m 210 541 l 735 541 l 735 583 q 662 805 735 718 q 465 892 589 892 q 279 805 349 892 q 210 583 210 718 l 210 541 m 735 435 l 210 435 l 210 406 q 279 182 210 269 q 465 95 349 95 q 662 181 590 95 q 735 406 735 268 l 735 435 m 722 1085 l 574 1085 l 574 1220 l 722 1220 l 722 1085 m 403 1085 l 255 1085 l 255 1220 l 403 1220 l 403 1085 "},"Ѧ":{"x_min":29.15625,"x_max":848.453125,"ha":838,"o":"m 611 297 l 501 297 l 501 0 l 368 0 l 368 297 l 268 297 l 165 0 l 29 0 l 385 988 l 499 988 l 848 0 l 712 0 l 611 297 m 307 408 l 573 408 l 443 790 l 439 790 l 307 408 "},"[":{"x_min":96.984375,"x_max":358.109375,"ha":374,"o":"m 358 1023 l 230 1023 l 230 -106 l 358 -106 l 358 -212 l 96 -212 l 96 1129 l 358 1129 l 358 1023 "},"Ҝ":{"x_min":110.546875,"x_max":867.453125,"ha":878,"o":"m 838 988 l 569 520 l 867 0 l 700 0 l 470 446 l 417 446 l 417 281 l 310 281 l 310 446 l 244 446 l 244 0 l 110 0 l 110 988 l 244 988 l 244 551 l 310 551 l 310 723 l 417 723 l 417 551 l 468 551 l 683 988 l 838 988 "},"ζ":{"x_min":78,"x_max":657.875,"ha":726,"o":"m 657 988 l 657 912 l 425 618 q 300 437 338 515 q 261 262 261 360 q 297 144 261 183 q 402 104 333 104 l 423 104 q 592 61 531 104 q 653 -68 653 18 q 599 -200 652 -144 q 473 -288 547 -256 l 418 -201 q 495 -151 463 -180 q 526 -74 526 -122 q 499 -19 526 -39 q 410 0 471 0 l 375 0 q 190 72 253 0 q 128 259 128 145 q 175 449 128 340 q 320 673 222 558 l 501 879 l 500 882 l 78 882 l 78 988 l 657 988 "},"Έ":{"x_min":-19.75,"x_max":845.25,"ha":880,"o":"m 776 457 l 323 457 l 323 104 l 845 104 l 845 0 l 190 0 l 190 988 l 837 988 l 837 882 l 323 882 l 323 563 l 776 563 l 776 457 m 21 1120 l 162 1120 l 44 862 l -19 862 l 21 1120 "},"Ρ":{"x_min":122.078125,"x_max":832.859375,"ha":890,"o":"m 255 396 l 255 0 l 122 0 l 122 988 l 499 988 q 745 906 657 988 q 832 692 832 825 q 745 476 832 556 q 499 396 657 396 l 255 396 m 255 500 l 499 500 q 649 554 600 500 q 699 690 699 608 q 649 827 699 772 q 499 882 599 882 l 255 882 l 255 500 "},"ğ":{"x_min":67.828125,"x_max":692.46875,"ha":789,"o":"m 67 353 q 145 638 67 530 q 358 747 222 747 q 481 719 428 747 q 569 638 534 691 l 585 734 l 692 734 l 692 -3 q 610 -220 692 -144 q 373 -296 528 -296 q 259 -281 320 -296 q 151 -241 198 -266 l 185 -137 q 271 -170 221 -158 q 372 -183 322 -183 q 514 -139 470 -183 q 558 -3 558 -94 l 558 78 q 472 9 522 32 q 357 -14 422 -14 q 145 83 222 -14 q 67 339 67 181 l 67 353 m 201 339 q 248 161 201 228 q 390 94 295 94 q 491 121 451 94 q 558 199 532 149 l 558 536 q 491 611 533 583 q 392 638 450 638 q 248 558 296 638 q 201 353 201 478 l 201 339 m 581 1049 l 583 1045 q 530 917 585 967 q 382 868 475 868 q 234 917 289 868 q 182 1045 179 967 l 184 1049 l 286 1049 q 309 977 286 1005 q 382 949 332 949 q 455 977 431 949 q 479 1049 479 1005 l 581 1049 "},"Ở":{"x_min":73.25,"x_max":1041.078125,"ha":952,"o":"m 866 405 q 753 105 866 224 q 462 -14 641 -14 q 181 105 289 -14 q 73 405 73 224 l 73 581 q 181 881 73 761 q 462 1002 289 1002 q 613 974 543 1002 q 737 898 683 947 q 864 963 820 905 q 907 1121 907 1021 l 1041 1121 q 981 908 1041 990 q 811 801 921 826 q 851 697 837 753 q 866 581 866 640 l 866 405 m 732 582 q 659 805 732 718 q 462 892 585 892 q 276 805 345 892 q 206 582 206 718 l 206 405 q 276 182 206 268 q 462 95 345 95 q 659 181 586 95 q 732 405 732 268 l 732 582 m 430 1086 l 429 1190 q 503 1204 481 1193 q 525 1239 525 1214 q 495 1279 525 1266 q 416 1292 466 1292 l 421 1365 q 574 1330 521 1365 q 628 1237 628 1295 q 599 1165 628 1189 q 526 1134 570 1140 l 525 1086 l 430 1086 "},"Ӏ":{"x_min":128.859375,"x_max":263.15625,"ha":393,"o":"m 263 0 l 128 0 l 128 988 l 263 988 l 263 0 "},"ª":{"x_min":81.390625,"x_max":533.765625,"ha":622,"o":"m 415 478 q 406 509 410 492 q 401 542 403 525 q 340 490 379 511 q 250 469 302 469 q 125 510 169 469 q 81 623 81 551 q 138 739 81 698 q 305 780 196 780 l 399 780 l 399 815 q 379 881 399 858 q 319 904 358 904 q 249 885 274 904 q 224 834 224 867 l 114 843 l 113 847 q 167 957 109 913 q 319 1002 224 1002 q 463 953 410 1002 q 516 814 516 905 l 516 601 q 520 537 516 567 q 533 478 524 507 l 415 478 m 278 563 q 350 583 313 563 q 399 627 387 604 l 399 702 l 305 702 q 226 680 255 702 q 198 626 198 657 q 218 579 198 595 q 278 563 238 563 "},"ї":{"x_min":-60.703125,"x_max":406.59375,"ha":349,"o":"m 237 0 l 103 0 l 103 734 l 237 734 l 237 0 m 406 856 l 258 856 l 258 991 l 406 991 l 406 856 m 87 856 l -60 856 l -60 991 l 87 991 l 87 856 "},"T":{"x_min":23.0625,"x_max":790.8125,"ha":814,"o":"m 790 882 l 473 882 l 473 0 l 339 0 l 339 882 l 23 882 l 23 988 l 790 988 l 790 882 "},"š":{"x_min":73.734375,"x_max":657.203125,"ha":726,"o":"m 523 194 q 490 267 523 238 q 362 316 456 295 q 161 395 229 345 q 94 531 94 445 q 170 683 94 620 q 368 747 246 747 q 572 681 496 747 q 644 521 647 615 l 642 517 l 515 517 q 475 603 515 565 q 368 641 434 641 q 262 610 297 641 q 227 535 227 579 q 258 467 227 492 q 382 422 288 442 q 589 341 521 392 q 657 204 657 290 q 578 46 657 106 q 371 -14 499 -14 q 150 57 231 -14 q 73 223 69 128 l 75 227 l 202 227 q 255 123 206 156 q 371 90 305 90 q 483 119 442 90 q 523 194 523 148 m 362 946 l 461 1046 l 577 1046 l 577 1034 l 402 868 l 322 868 l 149 1032 l 149 1046 l 262 1046 l 362 946 "},"є":{"x_min":72.5625,"x_max":691.875,"ha":748,"o":"m 402 90 q 519 131 468 90 q 569 232 569 172 l 689 232 l 691 228 q 606 59 694 133 q 402 -14 518 -14 q 157 90 242 -14 q 72 352 72 194 l 72 381 q 157 642 72 537 q 402 747 242 747 q 612 671 531 747 q 691 484 694 595 l 690 480 l 569 480 q 522 594 569 547 q 402 641 474 641 q 260 578 306 641 q 211 421 215 515 l 212 418 l 467 418 l 467 313 l 212 313 l 211 310 q 260 152 215 214 q 402 90 305 90 "},"Þ":{"x_min":110.546875,"x_max":760.28125,"ha":820,"o":"m 244 988 l 244 789 l 426 789 q 672 708 583 789 q 760 500 760 628 q 672 291 760 371 q 426 212 583 212 l 244 212 l 244 0 l 110 0 l 110 988 l 244 988 m 244 684 l 244 316 l 426 316 q 576 369 526 316 q 626 499 626 422 q 576 630 626 576 q 426 684 526 684 l 244 684 "},"j":{"x_min":-44.765625,"x_max":250.9375,"ha":359,"o":"m 250 734 l 250 -60 q 192 -234 250 -173 q 30 -296 134 -296 q -7 -292 9 -296 q -44 -283 -25 -289 l -35 -178 q -8 -184 -25 -182 q 21 -186 9 -186 q 91 -156 65 -186 q 117 -60 117 -127 l 117 734 l 250 734 m 246 924 l 113 924 l 113 1058 l 246 1058 l 246 924 "},"Ѱ":{"x_min":59,"x_max":886.4375,"ha":960,"o":"m 533 328 l 537 327 q 694 412 635 340 q 752 600 752 483 l 752 988 l 886 988 l 886 600 q 789 333 886 434 q 533 216 692 232 l 533 0 l 399 0 l 399 217 q 152 333 245 233 q 59 600 59 434 l 59 988 l 191 988 l 191 600 q 247 413 191 485 q 395 328 303 342 l 399 329 l 399 988 l 533 988 l 533 328 "},"Σ":{"x_min":47.46875,"x_max":743.328125,"ha":796,"o":"m 514 485 l 212 108 l 214 105 l 743 105 l 743 0 l 47 0 l 47 99 l 373 494 l 47 888 l 47 988 l 709 988 l 709 882 l 214 882 l 212 879 l 514 501 l 514 485 "},"1":{"x_min":126.15625,"x_max":461.875,"ha":782,"o":"m 461 0 l 328 0 l 328 857 l 126 855 l 126 951 l 461 988 l 461 0 "},"ϒ":{"x_min":-14.921875,"x_max":750.796875,"ha":739,"o":"m 503 840 q 579 959 537 924 q 676 995 621 995 q 716 991 699 995 q 750 978 733 988 l 735 875 q 724 879 731 877 q 708 881 716 881 q 667 869 685 881 q 637 830 648 857 l 434 392 l 434 0 l 301 0 l 301 392 l 97 830 q 67 869 86 857 q 27 881 48 881 q 10 879 17 881 q 0 875 3 877 l -14 978 q 18 991 1 988 q 59 995 35 995 q 154 959 113 995 q 231 840 196 924 l 352 565 l 365 517 l 369 517 l 382 565 l 503 840 "},"ҍ":{"x_min":-25.09375,"x_max":694.5,"ha":755,"o":"m 455 882 l 237 882 l 237 508 l 419 508 q 622 438 550 508 q 694 256 694 368 q 621 72 694 144 q 419 0 548 0 l 103 0 l 103 882 l -25 882 l -25 988 l 103 988 l 103 1119 l 237 1119 l 237 988 l 455 988 l 455 882 m 237 403 l 237 104 l 419 104 q 525 146 491 104 q 560 251 560 189 q 525 358 560 313 q 419 403 491 403 l 237 403 "},"ӡ":{"x_min":74.484375,"x_max":725.015625,"ha":810,"o":"m 515 624 l 513 628 l 100 628 l 100 734 l 689 734 l 690 652 l 421 318 q 646 231 567 307 q 725 21 725 154 q 631 -190 725 -113 q 389 -268 538 -268 q 165 -195 259 -268 q 74 15 71 -122 l 75 19 l 204 19 q 255 -109 204 -56 q 389 -162 307 -162 q 537 -112 483 -162 q 591 18 591 -61 q 536 171 591 123 q 373 219 481 219 l 273 219 l 273 324 l 515 624 "},"Ү":{"x_min":13.5625,"x_max":834.21875,"ha":848,"o":"m 423 485 l 681 988 l 834 988 l 487 347 l 487 0 l 354 0 l 354 356 l 13 988 l 166 988 l 423 485 "},"ĉ":{"x_min":65.78125,"x_max":685.09375,"ha":737,"o":"m 395 90 q 512 131 461 90 q 562 232 562 172 l 682 232 l 684 228 q 599 59 687 133 q 395 -14 512 -14 q 150 90 235 -14 q 65 352 65 194 l 65 381 q 150 642 65 537 q 395 747 236 747 q 605 671 524 747 q 685 484 687 595 l 683 480 l 562 480 q 515 594 562 547 q 395 641 467 641 q 245 566 290 641 q 200 381 200 490 l 200 352 q 244 165 200 240 q 395 90 289 90 m 573 883 l 573 867 l 464 867 l 364 967 l 265 867 l 156 867 l 156 884 l 323 1045 l 405 1045 l 573 883 "},"ī":{"x_min":-68.578125,"x_max":420.421875,"ha":349,"o":"m 237 0 l 103 0 l 103 734 l 237 734 l 237 0 m 420 881 l -68 881 l -68 980 l 420 980 l 420 881 "},"ӹ":{"x_min":117.765625,"x_max":971.375,"ha":1097,"o":"m 251 454 l 433 454 q 636 391 564 454 q 708 229 708 329 q 635 64 708 129 q 433 0 562 0 l 117 0 l 117 734 l 251 734 l 251 454 m 251 349 l 251 104 l 433 104 q 539 138 505 104 q 574 224 574 173 q 539 312 574 275 q 433 349 505 349 l 251 349 m 971 0 l 837 0 l 837 734 l 971 734 l 971 0 m 779 856 l 631 856 l 631 991 l 779 991 l 779 856 m 460 856 l 312 856 l 312 991 l 460 991 l 460 856 "},"О":{"x_min":76.640625,"x_max":869.484375,"ha":947,"o":"m 869 405 q 757 105 869 224 q 465 -14 644 -14 q 184 105 293 -14 q 76 405 76 224 l 76 581 q 184 881 76 761 q 465 1002 293 1002 q 757 882 644 1002 q 869 581 869 762 l 869 405 m 735 582 q 662 805 735 718 q 465 892 589 892 q 279 805 349 892 q 210 582 210 718 l 210 405 q 279 182 210 268 q 465 95 349 95 q 662 181 590 95 q 735 405 735 268 l 735 582 "},"ξ":{"x_min":58.328125,"x_max":674.828125,"ha":707,"o":"m 625 988 l 625 882 l 424 882 q 298 833 341 877 q 256 724 256 789 q 305 624 256 660 q 459 589 354 589 l 556 589 l 556 483 l 459 483 q 266 430 332 483 q 200 274 200 377 q 254 141 200 192 q 404 90 308 90 l 444 90 q 614 47 554 90 q 674 -82 674 4 q 620 -213 673 -157 q 494 -301 568 -269 l 440 -214 q 516 -165 484 -193 q 548 -88 548 -136 q 524 -33 548 -53 q 450 -13 501 -13 l 404 -13 q 160 64 253 -13 q 66 276 66 141 q 120 442 66 375 q 277 538 174 508 q 163 613 204 565 q 122 721 122 661 q 143 814 122 773 q 204 882 164 855 l 58 882 l 58 988 l 625 988 "},"Ď":{"x_min":122.078125,"x_max":853.875,"ha":915,"o":"m 122 0 l 122 988 l 425 988 q 736 868 619 988 q 853 561 853 749 l 853 426 q 736 118 853 236 q 425 0 619 0 l 122 0 m 255 882 l 255 104 l 425 104 q 641 194 562 104 q 720 426 720 284 l 720 562 q 641 792 720 702 q 425 882 562 882 l 255 882 m 420 1164 l 519 1264 l 635 1264 l 635 1252 l 460 1086 l 380 1086 l 207 1250 l 207 1264 l 320 1264 l 420 1164 "},"&":{"x_min":43.40625,"x_max":835.578125,"ha":865,"o":"m 43 266 q 91 410 43 348 q 233 535 139 472 q 155 655 181 602 q 129 763 129 707 q 195 939 129 877 q 377 1002 261 1002 q 552 940 484 1002 q 619 791 619 878 q 583 676 619 725 q 478 577 548 628 l 404 523 l 634 245 q 678 343 662 289 q 693 456 693 397 l 813 456 q 786 291 813 367 q 710 154 760 215 l 835 3 l 834 0 l 678 0 l 621 69 q 501 7 567 28 q 364 -14 435 -14 q 130 64 217 -14 q 43 266 43 142 m 364 90 q 461 107 413 90 q 550 154 508 123 l 305 449 l 278 430 q 197 342 217 384 q 177 266 177 300 q 225 139 177 189 q 364 90 273 90 m 263 764 q 281 689 263 728 q 336 604 299 650 l 430 668 q 482 724 468 694 q 496 791 496 755 q 463 865 496 833 q 377 896 430 896 q 292 858 322 896 q 263 764 263 820 "},"G":{"x_min":81.390625,"x_max":837.609375,"ha":947,"o":"m 837 131 q 715 31 802 76 q 489 -14 628 -14 q 197 99 312 -14 q 81 392 81 212 l 81 595 q 189 888 81 775 q 467 1002 297 1002 q 733 918 636 1002 q 832 703 830 835 l 831 699 l 704 699 q 638 841 697 785 q 467 896 579 896 q 284 812 354 896 q 215 597 215 727 l 215 392 q 292 175 215 260 q 489 90 370 90 q 627 112 573 90 q 704 163 680 135 l 704 387 l 487 387 l 487 493 l 837 493 l 837 131 "},"ΰ":{"x_min":95.625,"x_max":720.265625,"ha":789,"o":"m 229 734 l 229 318 q 276 145 229 200 q 402 90 322 90 q 540 176 495 90 q 586 381 586 262 q 562 554 584 466 q 502 734 539 641 l 642 734 q 698 573 676 661 q 720 381 720 485 q 644 97 720 208 q 408 -14 569 -14 q 177 68 259 -14 q 95 320 95 150 l 95 734 l 229 734 m 646 803 l 511 803 l 511 938 l 646 938 l 646 803 m 300 803 l 166 803 l 166 938 l 300 938 l 300 803 m 394 1124 l 541 1124 l 455 946 l 359 946 l 394 1124 "},"`":{"x_min":55.609375,"x_max":332.328125,"ha":435,"o":"m 332 821 l 225 821 l 55 997 l 57 1001 l 213 1001 l 332 821 "},"ỗ":{"x_min":65.78125,"x_max":722.984375,"ha":789,"o":"m 65 373 q 153 641 65 536 q 393 747 242 747 q 634 641 545 747 q 722 373 722 536 l 722 358 q 634 90 722 194 q 394 -14 546 -14 q 154 90 242 -14 q 65 358 65 195 l 65 373 m 199 358 q 248 166 199 242 q 394 90 297 90 q 539 166 490 90 q 589 358 589 242 l 589 373 q 539 565 589 488 q 393 641 489 641 q 248 565 297 641 q 199 373 199 488 l 199 358 m 642 846 l 640 842 l 525 842 l 392 961 l 259 842 l 144 842 l 143 846 l 339 1020 l 446 1020 l 642 846 m 569 1189 q 536 1106 569 1143 q 458 1070 503 1070 q 384 1094 423 1070 q 320 1118 346 1118 q 282 1098 299 1118 q 265 1055 265 1078 l 210 1068 q 243 1152 210 1115 q 320 1190 275 1190 q 390 1167 349 1190 q 458 1143 432 1143 q 497 1162 479 1143 q 515 1205 515 1181 l 569 1189 "},"Ễ":{"x_min":122.078125,"x_max":777.25,"ha":812,"o":"m 708 457 l 255 457 l 255 104 l 777 104 l 777 0 l 122 0 l 122 988 l 769 988 l 769 882 l 255 882 l 255 563 l 708 563 l 708 457 m 673 1063 l 671 1059 l 556 1059 l 423 1178 l 290 1059 l 175 1059 l 174 1063 l 370 1237 l 477 1237 l 673 1063 m 600 1406 q 567 1323 600 1360 q 489 1287 534 1287 q 415 1311 454 1287 q 351 1335 377 1335 q 313 1315 330 1335 q 296 1272 296 1295 l 241 1285 q 274 1369 241 1332 q 351 1407 306 1407 q 421 1384 380 1407 q 489 1360 463 1360 q 528 1379 510 1360 q 546 1422 546 1398 l 600 1406 "},"ằ":{"x_min":71.890625,"x_max":685.6875,"ha":764,"o":"m 548 0 q 537 58 541 33 q 533 109 533 84 q 435 21 495 56 q 306 -14 375 -14 q 131 44 191 -14 q 71 206 71 103 q 157 370 71 311 q 387 430 242 430 l 533 430 l 533 502 q 493 604 533 566 q 382 641 454 641 q 277 609 318 641 q 237 530 237 576 l 109 530 l 108 534 q 184 680 104 614 q 389 747 263 747 q 590 683 514 747 q 666 500 666 620 l 666 147 q 670 71 666 108 q 685 0 674 35 l 548 0 m 326 97 q 457 135 398 97 q 533 220 515 172 l 533 339 l 383 339 q 253 299 302 339 q 205 203 205 258 q 236 126 205 154 q 326 97 266 97 m 417 1014 l 336 1014 l 201 1144 l 202 1148 l 323 1148 l 417 1014 m 572 999 l 574 995 q 522 896 578 935 q 372 858 466 858 q 222 896 277 858 q 171 995 166 935 l 172 999 l 275 999 q 298 943 275 965 q 372 922 321 922 q 445 943 422 922 q 469 999 469 965 l 572 999 "},"ŏ":{"x_min":65.78125,"x_max":722.984375,"ha":789,"o":"m 65 373 q 153 641 65 536 q 393 747 242 747 q 634 641 545 747 q 722 373 722 536 l 722 358 q 634 90 722 194 q 394 -14 546 -14 q 154 90 242 -14 q 65 358 65 195 l 65 373 m 199 358 q 248 166 199 242 q 394 90 297 90 q 539 166 490 90 q 589 358 589 242 l 589 373 q 539 565 589 488 q 393 641 489 641 q 248 565 297 641 q 199 373 199 488 l 199 358 m 593 1049 l 595 1045 q 542 917 597 967 q 394 868 487 868 q 246 917 301 868 q 194 1045 191 967 l 196 1049 l 298 1049 q 321 977 298 1005 q 394 949 344 949 q 467 977 443 949 q 491 1049 491 1005 l 593 1049 "},"Ả":{"x_min":13.5625,"x_max":885.765625,"ha":899,"o":"m 657 254 l 243 254 l 149 0 l 13 0 l 395 988 l 510 988 l 885 0 l 749 0 l 657 254 m 284 365 l 617 365 l 454 816 l 450 816 l 284 365 m 406 1072 l 405 1176 q 479 1190 457 1179 q 501 1225 501 1200 q 471 1265 501 1252 q 392 1278 442 1278 l 397 1351 q 550 1316 497 1351 q 604 1223 604 1281 q 575 1151 604 1175 q 502 1120 546 1126 l 501 1072 l 406 1072 "},"ý":{"x_min":17.640625,"x_max":678.21875,"ha":699,"o":"m 321 272 l 345 180 l 349 180 l 529 734 l 678 734 l 369 -112 q 289 -241 341 -186 q 149 -296 238 -296 q 108 -292 133 -296 q 69 -285 83 -288 l 83 -180 q 107 -181 79 -179 q 143 -183 135 -183 q 212 -145 185 -183 q 258 -61 240 -107 l 290 15 l 17 734 l 166 734 l 321 272 m 413 1002 l 569 1002 l 570 998 l 387 822 l 287 822 l 413 1002 "},"º":{"x_min":81.390625,"x_max":550.03125,"ha":633,"o":"m 81 774 q 145 938 81 875 q 315 1002 208 1002 q 486 938 422 1002 q 550 774 550 875 l 550 695 q 486 531 550 594 q 316 468 423 468 q 145 531 209 468 q 81 695 81 594 l 81 774 m 198 695 q 228 600 198 635 q 316 564 258 564 q 403 600 373 564 q 433 695 433 636 l 433 774 q 402 868 433 831 q 315 904 372 904 q 228 868 258 904 q 198 774 198 831 l 198 695 "},"ź":{"x_min":63.75,"x_max":647.03125,"ha":699,"o":"m 223 104 l 647 104 l 647 0 l 63 0 l 63 93 l 460 628 l 68 628 l 68 734 l 623 734 l 623 643 l 223 104 m 420 1002 l 576 1002 l 577 998 l 394 822 l 294 822 l 420 1002 "},"я":{"x_min":52.90625,"x_max":685,"ha":789,"o":"m 685 734 l 685 0 l 551 0 l 551 285 l 370 285 l 196 0 l 52 0 l 238 304 q 131 384 168 329 q 93 509 93 438 q 168 671 93 608 q 375 734 243 734 l 685 734 m 227 508 q 261 424 227 459 q 360 390 294 390 l 551 390 l 551 630 l 375 630 q 265 593 302 630 q 227 508 227 557 "},"ӛ":{"x_min":78.46875,"x_max":692.875,"ha":739,"o":"m 358 747 q 602 645 511 747 q 692 381 692 543 l 692 351 q 599 91 692 195 q 378 -13 506 -13 q 154 76 230 -13 q 78 314 78 165 l 78 397 l 554 397 l 556 401 q 502 575 554 507 q 358 643 451 643 q 239 624 290 643 q 151 570 188 604 l 98 657 q 202 722 138 696 q 358 747 267 747 m 378 92 q 493 148 446 92 q 551 290 540 204 l 550 293 l 212 293 l 212 275 q 254 144 212 197 q 378 92 296 92 m 619 870 l 471 870 l 471 1005 l 619 1005 l 619 870 m 300 870 l 152 870 l 152 1005 l 300 1005 l 300 870 "},"Ё":{"x_min":122.078125,"x_max":777.25,"ha":812,"o":"m 708 457 l 255 457 l 255 104 l 777 104 l 777 0 l 122 0 l 122 988 l 769 988 l 769 882 l 255 882 l 255 563 l 708 563 l 708 457 m 659 1089 l 511 1089 l 511 1224 l 659 1224 l 659 1089 m 340 1089 l 192 1089 l 192 1224 l 340 1224 l 340 1089 "},"Ư":{"x_min":99.703125,"x_max":1099.4375,"ha":970,"o":"m 843 988 l 843 866 l 847 865 q 937 938 906 883 q 968 1079 968 994 l 1097 1079 l 1099 1075 q 1034 862 1100 944 q 843 756 967 779 l 843 318 q 738 71 843 156 q 465 -14 634 -14 q 201 71 302 -14 q 99 318 99 157 l 99 988 l 233 988 l 233 318 q 297 148 233 206 q 465 90 360 90 q 642 148 575 90 q 710 318 710 206 l 710 988 l 843 988 "},"ń":{"x_min":96.984375,"x_max":692.46875,"ha":789,"o":"m 216 734 l 225 624 q 317 715 262 683 q 443 747 373 747 q 627 677 562 747 q 692 462 692 608 l 692 0 l 558 0 l 558 460 q 520 597 558 557 q 403 638 482 638 q 301 610 345 638 q 230 534 257 582 l 230 0 l 96 0 l 96 734 l 216 734 m 456 1017 l 612 1017 l 613 1013 l 430 837 l 330 837 l 456 1017 "}," ":{"x_min":0,"x_max":0,"ha":354},"Г":{"x_min":122.078125,"x_max":727.734375,"ha":773,"o":"m 727 882 l 255 882 l 255 0 l 122 0 l 122 988 l 727 988 l 727 882 "},"Ь":{"x_min":110.546875,"x_max":821.328125,"ha":875,"o":"m 244 584 l 487 584 q 733 505 646 584 q 821 294 821 427 q 733 80 821 161 q 487 0 645 0 l 110 0 l 110 988 l 244 988 l 244 584 m 244 478 l 244 104 l 487 104 q 637 158 588 104 q 687 296 687 213 q 637 427 687 376 q 487 478 588 478 l 244 478 "},"ѝ":{"x_min":96.984375,"x_max":691.78125,"ha":789,"o":"m 558 734 l 691 734 l 691 0 l 558 0 l 558 521 l 554 522 l 229 0 l 96 0 l 96 734 l 229 734 l 229 212 l 233 211 l 558 734 m 450 825 l 343 825 l 173 1001 l 175 1005 l 331 1005 l 450 825 "},"¤":{"x_min":70.53125,"x_max":929.171875,"ha":988,"o":"m 744 72 q 629 8 691 30 q 497 -14 566 -14 q 366 8 429 -14 q 252 71 303 30 l 164 -18 l 70 75 l 164 170 q 112 283 130 222 q 94 412 94 345 q 113 545 94 481 q 169 661 132 608 l 70 763 l 164 857 l 261 758 q 372 816 311 795 q 497 837 432 837 q 623 815 563 837 q 735 756 684 794 l 834 858 l 929 763 l 827 659 q 882 543 862 606 q 901 412 901 480 q 883 284 901 345 q 832 172 865 224 l 929 75 l 834 -18 l 744 72 m 217 412 q 299 194 217 284 q 497 104 381 104 q 694 194 613 104 q 776 412 776 284 q 694 628 776 538 q 497 717 613 717 q 299 628 381 717 q 217 412 217 538 "},"Ĝ":{"x_min":81.390625,"x_max":837.609375,"ha":947,"o":"m 837 131 q 715 31 802 76 q 489 -14 628 -14 q 197 99 312 -14 q 81 392 81 212 l 81 595 q 189 888 81 775 q 467 1002 297 1002 q 733 918 636 1002 q 832 703 830 835 l 831 699 l 704 699 q 638 841 697 785 q 467 896 579 896 q 284 812 354 896 q 215 597 215 727 l 215 392 q 292 175 215 260 q 489 90 370 90 q 627 112 573 90 q 704 163 680 135 l 704 387 l 487 387 l 487 493 l 837 493 l 837 131 m 662 1116 l 662 1100 l 553 1100 l 453 1200 l 354 1100 l 245 1100 l 245 1117 l 412 1278 l 494 1278 l 662 1116 "},"p":{"x_min":96.984375,"x_max":722.3125,"ha":789,"o":"m 722 339 q 646 83 722 180 q 436 -14 570 -14 q 317 8 368 -14 q 230 76 266 31 l 230 -282 l 96 -282 l 96 734 l 199 734 l 220 639 q 309 719 256 691 q 434 747 363 747 q 646 638 571 747 q 722 353 722 530 l 722 339 m 588 353 q 539 558 588 477 q 394 638 490 638 q 296 612 337 638 q 230 540 255 586 l 230 186 q 296 115 255 141 q 396 90 337 90 q 539 159 491 90 q 588 339 588 229 l 588 353 "},"ӓ":{"x_min":71.890625,"x_max":685.6875,"ha":764,"o":"m 548 0 q 537 58 541 33 q 533 109 533 84 q 435 21 495 56 q 306 -14 375 -14 q 131 44 191 -14 q 71 206 71 103 q 157 370 71 311 q 387 430 242 430 l 533 430 l 533 502 q 493 604 533 566 q 382 641 454 641 q 277 609 318 641 q 237 530 237 576 l 109 530 l 108 534 q 184 680 104 614 q 389 747 263 747 q 590 683 514 747 q 666 500 666 620 l 666 147 q 670 71 666 108 q 685 0 674 35 l 548 0 m 326 97 q 457 135 398 97 q 533 220 515 172 l 533 339 l 383 339 q 253 299 302 339 q 205 203 205 258 q 236 126 205 154 q 326 97 266 97 m 610 870 l 462 870 l 462 1005 l 610 1005 l 610 870 m 291 870 l 143 870 l 143 1005 l 291 1005 l 291 870 "},"Ѹ":{"x_min":76.640625,"x_max":1625.21875,"ha":1645,"o":"m 869 405 q 757 105 869 224 q 465 -14 644 -14 q 184 105 293 -14 q 76 405 76 224 l 76 581 q 184 881 76 761 q 465 1002 293 1002 q 757 882 644 1002 q 869 581 869 762 l 869 405 m 735 582 q 662 805 735 718 q 465 892 589 892 q 279 805 349 892 q 210 582 210 718 l 210 405 q 279 182 210 268 q 465 95 349 95 q 662 181 590 95 q 735 405 735 268 l 735 582 m 1268 272 l 1292 180 l 1296 180 l 1476 734 l 1625 734 l 1316 -112 q 1236 -241 1288 -186 q 1096 -296 1185 -296 q 1055 -292 1080 -296 q 1016 -285 1030 -288 l 1030 -180 q 1054 -181 1026 -179 q 1090 -183 1082 -183 q 1159 -145 1132 -183 q 1205 -61 1187 -107 l 1237 15 l 964 734 l 1113 734 l 1268 272 "},"Ю":{"x_min":128.859375,"x_max":1195.03125,"ha":1238,"o":"m 1195 405 q 1082 105 1195 224 q 791 -14 970 -14 q 510 105 618 -14 q 402 405 402 224 l 402 428 l 263 428 l 263 0 l 128 0 l 128 988 l 263 988 l 263 533 l 402 533 l 402 581 q 510 881 402 761 q 791 1002 618 1002 q 1082 882 970 1002 q 1195 581 1195 762 l 1195 405 m 1061 582 q 988 805 1061 718 q 791 892 914 892 q 605 805 674 892 q 535 582 535 718 l 535 405 q 605 182 535 268 q 791 95 674 95 q 988 181 915 95 q 1061 405 1061 268 l 1061 582 "},"ο":{"x_min":65.78125,"x_max":722.984375,"ha":789,"o":"m 65 373 q 153 641 65 536 q 393 747 242 747 q 634 641 545 747 q 722 373 722 536 l 722 358 q 634 90 722 194 q 394 -14 546 -14 q 154 90 242 -14 q 65 358 65 195 l 65 373 m 199 358 q 248 166 199 242 q 394 90 297 90 q 539 166 490 90 q 589 358 589 242 l 589 373 q 539 565 589 488 q 393 641 489 641 q 248 565 297 641 q 199 373 199 488 l 199 358 "},"S":{"x_min":69.078125,"x_max":793.515625,"ha":866,"o":"m 659 249 q 609 362 659 316 q 428 439 558 408 q 184 549 271 477 q 96 732 96 622 q 190 924 96 847 q 436 1002 285 1002 q 694 913 598 1002 q 786 706 790 824 l 785 702 l 657 702 q 600 843 657 789 q 436 896 543 896 q 283 851 336 896 q 229 734 229 806 q 287 626 229 669 q 474 550 345 583 q 712 437 630 512 q 793 250 793 361 q 695 58 793 131 q 440 -14 598 -14 q 179 66 293 -14 q 69 280 65 146 l 70 284 l 198 284 q 267 139 198 189 q 440 90 337 90 q 600 133 541 90 q 659 249 659 175 "},"ễ":{"x_min":67.140625,"x_max":681.609375,"ha":735,"o":"m 401 -14 q 157 87 248 -14 q 67 352 67 189 l 67 382 q 160 642 67 538 q 381 747 253 747 q 605 657 529 747 q 681 419 681 568 l 681 336 l 205 336 l 203 332 q 257 158 205 226 q 401 90 308 90 q 520 109 469 90 q 609 163 571 129 l 661 76 q 557 11 621 37 q 401 -14 493 -14 m 381 641 q 266 585 314 641 q 208 443 219 529 l 209 440 l 548 440 l 548 458 q 505 589 548 536 q 381 641 463 641 m 625 847 l 623 843 l 508 843 l 375 962 l 242 843 l 127 843 l 126 847 l 322 1021 l 429 1021 l 625 847 m 552 1190 q 519 1107 552 1144 q 441 1071 486 1071 q 367 1095 406 1071 q 303 1119 329 1119 q 265 1099 282 1119 q 248 1056 248 1079 l 193 1069 q 226 1153 193 1116 q 303 1191 258 1191 q 373 1168 332 1191 q 441 1144 415 1144 q 480 1163 462 1144 q 498 1206 498 1182 l 552 1190 "},"/":{"x_min":10.859375,"x_max":536.46875,"ha":576,"o":"m 124 -85 l 10 -85 l 423 988 l 536 988 l 124 -85 "},"Ọ":{"x_min":76.640625,"x_max":869.484375,"ha":947,"o":"m 869 405 q 757 105 869 224 q 465 -14 644 -14 q 184 105 293 -14 q 76 405 76 224 l 76 581 q 184 881 76 761 q 465 1002 293 1002 q 757 882 644 1002 q 869 581 869 762 l 869 405 m 735 582 q 662 805 735 718 q 465 892 589 892 q 279 805 349 892 q 210 582 210 718 l 210 405 q 279 182 210 268 q 465 95 349 95 q 662 181 590 95 q 735 405 735 268 l 735 582 m 547 -233 l 399 -233 l 399 -97 l 547 -97 l 547 -233 "},"Ӭ":{"x_min":126.046875,"x_max":867.453125,"ha":939,"o":"m 127 671 l 126 675 q 223 907 122 812 q 488 1002 324 1002 q 761 882 655 1002 q 867 581 867 763 l 867 405 q 761 104 867 222 q 488 -14 655 -14 q 221 74 320 -14 q 126 310 122 163 l 127 314 l 255 314 q 316 150 255 210 q 488 90 376 90 q 666 180 599 90 q 733 404 733 270 l 733 459 l 343 459 l 343 565 l 733 565 l 733 581 q 666 806 733 716 q 488 896 599 896 q 316 836 376 896 q 255 671 255 776 l 127 671 m 703 1104 l 555 1104 l 555 1239 l 703 1239 l 703 1104 m 384 1104 l 236 1104 l 236 1239 l 384 1239 l 384 1104 "},"Ŧ":{"x_min":23.0625,"x_max":790.8125,"ha":814,"o":"m 622 555 l 473 555 l 473 0 l 339 0 l 339 555 l 187 555 l 187 661 l 339 661 l 339 882 l 23 882 l 23 988 l 790 988 l 790 882 l 473 882 l 473 661 l 622 661 l 622 555 "},"ђ":{"x_min":-16.953125,"x_max":695.171875,"ha":789,"o":"m 417 818 l 230 818 l 230 635 q 323 717 268 687 q 446 747 379 747 q 629 676 563 747 q 694 459 694 606 l 694 309 l 695 309 l 695 -60 q 636 -234 695 -173 q 474 -296 578 -296 q 434 -293 451 -296 q 397 -284 416 -290 l 407 -182 q 439 -188 416 -185 q 474 -190 462 -190 q 537 -155 514 -190 q 560 -60 560 -121 l 560 460 q 521 595 560 551 q 405 638 482 638 q 304 612 349 638 q 230 541 259 586 l 230 0 l 96 0 l 96 818 l -16 818 l -16 924 l 96 924 l 96 1058 l 230 1058 l 230 924 l 417 924 l 417 818 "},"y":{"x_min":17.640625,"x_max":678.21875,"ha":699,"o":"m 321 272 l 345 180 l 349 180 l 529 734 l 678 734 l 369 -112 q 289 -241 341 -186 q 149 -296 238 -296 q 108 -292 133 -296 q 69 -285 83 -288 l 83 -180 q 107 -181 79 -179 q 143 -183 135 -183 q 212 -145 185 -183 q 258 -61 240 -107 l 290 15 l 17 734 l 166 734 l 321 272 "},"Π":{"x_min":122.078125,"x_max":870.15625,"ha":992,"o":"m 870 0 l 735 0 l 735 882 l 255 882 l 255 0 l 122 0 l 122 988 l 870 988 l 870 0 "},"‗":{"x_min":3.71875,"x_max":629.71875,"ha":634,"o":"m 629 -276 l 3 -276 l 3 -172 l 629 -172 l 629 -276 m 629 -104 l 3 -104 l 3 0 l 629 0 l 629 -104 "},"–":{"x_min":122.125,"x_max":858.3125,"ha":960,"o":"m 858 439 l 122 439 l 122 545 l 858 545 l 858 439 "},"ë":{"x_min":67.140625,"x_max":681.609375,"ha":735,"o":"m 401 -14 q 157 87 248 -14 q 67 352 67 189 l 67 382 q 160 642 67 538 q 381 747 253 747 q 605 657 529 747 q 681 419 681 568 l 681 336 l 205 336 l 203 332 q 257 158 205 226 q 401 90 308 90 q 520 109 469 90 q 609 163 571 129 l 661 76 q 557 11 621 37 q 401 -14 493 -14 m 381 641 q 266 585 314 641 q 208 443 219 529 l 209 440 l 548 440 l 548 458 q 505 589 548 536 q 381 641 463 641 m 612 871 l 464 871 l 464 1006 l 612 1006 l 612 871 m 293 871 l 145 871 l 145 1006 l 293 1006 l 293 871 "},"б":{"x_min":65.78125,"x_max":722.984375,"ha":768,"o":"m 419 692 q 641 598 560 692 q 722 359 722 505 l 722 344 q 634 86 722 186 q 394 -14 546 -14 q 154 86 242 -14 q 65 344 65 186 l 65 439 q 157 785 65 656 q 401 945 248 914 q 525 982 486 960 q 563 1053 563 1003 l 666 1053 l 668 1048 q 611 892 670 929 q 426 834 553 855 q 268 762 334 818 q 187 599 202 707 l 190 595 q 290 665 230 638 q 419 692 351 692 m 393 587 q 248 522 297 587 q 200 359 200 457 l 200 344 q 248 162 200 234 q 394 90 297 90 q 539 162 490 90 q 589 344 589 234 l 589 359 q 539 522 589 457 q 393 587 489 587 "},"ƒ":{"x_min":-15.59375,"x_max":477.46875,"ha":476,"o":"m 413 634 l 280 634 l 280 -60 q 222 -234 280 -173 q 59 -296 164 -296 q 20 -292 37 -296 q -15 -283 2 -289 l -6 -182 q 24 -188 2 -185 q 59 -190 47 -190 q 123 -155 100 -190 q 146 -60 146 -121 l 146 634 l 31 634 l 31 734 l 146 734 l 146 826 q 207 1007 146 943 q 379 1072 269 1072 q 425 1068 402 1072 q 477 1057 448 1064 l 461 956 q 431 960 448 958 q 396 962 414 962 q 308 927 337 962 q 280 826 280 893 l 280 734 l 413 734 l 413 634 "},"у":{"x_min":17.640625,"x_max":678.21875,"ha":699,"o":"m 321 272 l 345 180 l 349 180 l 529 734 l 678 734 l 369 -112 q 289 -241 341 -186 q 149 -296 238 -296 q 108 -292 133 -296 q 69 -285 83 -288 l 83 -180 q 107 -181 79 -179 q 143 -183 135 -183 q 212 -145 185 -183 q 258 -61 240 -107 l 290 15 l 17 734 l 166 734 l 321 272 "},"J":{"x_min":44.640625,"x_max":653.125,"ha":766,"o":"m 519 988 l 653 988 l 653 273 q 569 63 653 141 q 352 -14 485 -14 q 125 58 209 -14 q 44 268 41 130 l 46 272 l 174 272 q 220 135 174 180 q 352 90 267 90 q 472 140 425 90 q 519 273 519 190 l 519 988 "},"ŷ":{"x_min":17.640625,"x_max":678.21875,"ha":699,"o":"m 321 272 l 345 180 l 349 180 l 529 734 l 678 734 l 369 -112 q 289 -241 341 -186 q 149 -296 238 -296 q 108 -292 133 -296 q 69 -285 83 -288 l 83 -180 q 107 -181 79 -179 q 143 -183 135 -183 q 212 -145 185 -183 q 258 -61 240 -107 l 290 15 l 17 734 l 166 734 l 321 272 m 557 869 l 557 853 l 448 853 l 348 953 l 249 853 l 140 853 l 140 870 l 307 1031 l 389 1031 l 557 869 "},"ŕ":{"x_min":96.984375,"x_max":501.671875,"ha":476,"o":"m 444 615 l 375 619 q 286 594 322 619 q 230 523 250 569 l 230 0 l 96 0 l 96 734 l 216 734 l 229 626 q 306 715 260 683 q 411 747 352 747 q 440 744 426 747 q 462 739 453 742 l 444 615 m 344 1017 l 500 1017 l 501 1013 l 318 837 l 218 837 l 344 1017 "},"ӌ":{"x_min":86.140625,"x_max":670.078125,"ha":767,"o":"m 670 0 l 536 0 l 536 262 q 457 247 497 252 q 370 242 416 242 q 161 312 237 242 q 86 519 86 382 l 86 735 l 219 735 l 219 519 q 257 389 219 430 q 370 348 295 348 q 455 353 415 348 q 536 368 496 358 l 536 734 l 670 734 l 670 0 m 570 -243 l 437 -243 l 437 106 l 570 106 l 570 -243 "},"ώ":{"x_min":73.25,"x_max":1106.859375,"ha":1181,"o":"m 318 734 q 238 555 267 643 q 206 381 209 467 q 244 171 206 252 q 364 90 282 90 q 479 145 436 90 q 522 319 522 200 l 522 522 l 657 522 l 657 319 q 699 145 657 200 q 815 90 742 90 q 935 170 897 90 q 973 381 973 251 q 940 555 969 467 q 862 734 911 643 l 1002 734 q 1077 573 1048 662 q 1106 381 1106 485 q 1038 97 1106 208 q 823 -14 969 -14 q 677 27 737 -14 q 590 149 618 68 q 501 27 560 68 q 357 -14 442 -14 q 141 97 210 -14 q 73 381 73 208 q 102 574 73 486 q 178 734 130 662 l 318 734 m 592 1111 l 733 1111 l 615 853 l 551 853 l 592 1111 "},"҃":{"x_min":143.78125,"x_max":631.421875,"ha":790,"o":"m 262 891 l 262 805 l 143 806 l 144 965 l 513 965 l 512 1038 l 631 1038 l 631 891 l 262 891 "},"D":{"x_min":122.078125,"x_max":853.875,"ha":915,"o":"m 122 0 l 122 988 l 425 988 q 736 868 619 988 q 853 561 853 749 l 853 426 q 736 118 853 236 q 425 0 619 0 l 122 0 m 255 882 l 255 104 l 425 104 q 641 194 562 104 q 720 426 720 284 l 720 562 q 641 792 720 702 q 425 882 562 882 l 255 882 "},"ł":{"x_min":25.09375,"x_max":356.75,"ha":378,"o":"m 255 591 l 356 630 l 356 518 l 255 479 l 255 0 l 121 0 l 121 428 l 25 391 l 25 503 l 121 540 l 121 1058 l 255 1058 l 255 591 "},"ĺ":{"x_min":107.84375,"x_max":396.671875,"ha":350,"o":"m 241 0 l 107 0 l 107 1058 l 241 1058 l 241 0 m 239 1261 l 395 1261 l 396 1257 l 213 1081 l 113 1081 l 239 1261 "},"ӳ":{"x_min":17.640625,"x_max":692.0625,"ha":699,"o":"m 321 272 l 345 180 l 349 180 l 529 734 l 678 734 l 369 -112 q 289 -241 341 -186 q 149 -296 238 -296 q 108 -292 133 -296 q 69 -285 83 -288 l 83 -180 q 107 -181 79 -179 q 143 -183 135 -183 q 212 -145 185 -183 q 258 -61 240 -107 l 290 15 l 17 734 l 166 734 l 321 272 m 534 1033 l 690 1033 l 692 1029 l 488 853 l 372 853 l 371 856 l 534 1033 m 313 1033 l 456 1033 l 458 1030 l 295 853 l 188 853 l 313 1033 "},"ц":{"x_min":96.984375,"x_max":781.3125,"ha":826,"o":"m 96 734 l 230 734 l 230 104 l 558 104 l 558 734 l 691 734 l 691 104 l 781 104 l 781 -240 l 647 -240 l 647 0 l 96 0 l 96 734 "},"Л":{"x_min":33.234375,"x_max":862.015625,"ha":984,"o":"m 862 988 l 862 0 l 728 0 l 728 882 l 371 882 l 370 522 q 301 125 370 251 q 69 0 231 0 l 33 0 l 33 104 l 61 104 q 196 201 154 104 q 238 522 237 297 l 238 988 l 862 988 "},"$":{"x_min":77.21875,"x_max":708.75,"ha":782,"o":"m 575 254 q 531 358 575 314 q 389 435 488 401 q 182 546 252 477 q 112 730 112 615 q 176 913 112 842 q 353 998 240 983 l 353 1147 l 460 1147 l 460 997 q 637 900 574 981 q 699 682 699 818 l 567 682 q 524 831 567 774 q 405 888 481 888 q 285 847 325 888 q 246 732 246 805 q 287 626 246 666 q 435 548 328 585 q 641 437 574 504 q 708 255 708 370 q 638 70 708 139 q 446 -11 569 1 l 446 -141 l 340 -141 l 340 -12 q 149 73 223 0 q 77 287 74 146 l 78 290 l 207 290 q 260 141 207 186 q 389 97 312 97 q 525 138 476 97 q 575 254 575 180 "},"w":{"x_min":30.515625,"x_max":1017.328125,"ha":1051,"o":"m 284 267 l 300 178 l 304 178 l 323 267 l 470 734 l 577 734 l 724 267 l 745 168 l 749 168 l 769 267 l 884 734 l 1017 734 l 804 0 l 696 0 l 554 447 l 524 571 l 520 571 l 491 447 l 351 0 l 243 0 l 30 734 l 163 734 l 284 267 "},"о":{"x_min":65.78125,"x_max":722.984375,"ha":789,"o":"m 65 373 q 153 641 65 536 q 393 747 242 747 q 634 641 545 747 q 722 373 722 536 l 722 358 q 634 90 722 194 q 394 -14 546 -14 q 154 90 242 -14 q 65 358 65 195 l 65 373 m 199 358 q 248 166 199 242 q 394 90 297 90 q 539 166 490 90 q 589 358 589 242 l 589 373 q 539 565 589 488 q 393 641 489 641 q 248 565 297 641 q 199 373 199 488 l 199 358 "},"Д":{"x_min":32.5625,"x_max":1012.59375,"ha":1051,"o":"m 876 104 l 1012 104 l 999 -241 l 878 -241 l 878 0 l 166 0 l 166 -243 l 52 -243 l 32 104 l 117 104 q 212 277 169 163 q 260 588 256 392 l 282 988 l 876 988 l 876 104 m 395 588 q 354 303 389 426 q 265 104 320 181 l 743 104 l 743 882 l 411 882 l 395 588 "},"Ç":{"x_min":80.03125,"x_max":821.40625,"ha":880,"o":"m 819 316 l 821 312 q 723 79 824 173 q 458 -14 623 -14 q 185 104 290 -14 q 80 405 80 223 l 80 581 q 185 882 80 763 q 458 1002 290 1002 q 725 912 626 1002 q 821 676 824 823 l 819 672 l 691 672 q 630 836 691 776 q 458 896 569 896 q 280 806 346 896 q 213 582 213 716 l 213 405 q 280 180 213 270 q 458 90 346 90 q 630 150 569 90 q 691 316 691 210 l 819 316 m 511 -4 l 502 -40 q 576 -75 546 -47 q 605 -157 605 -103 q 551 -261 605 -222 q 398 -300 498 -300 l 393 -226 q 472 -209 442 -226 q 502 -159 502 -192 q 477 -114 502 -127 q 394 -96 453 -101 l 416 -4 l 511 -4 "},"Ŝ":{"x_min":69.078125,"x_max":793.515625,"ha":866,"o":"m 659 249 q 609 362 659 316 q 428 439 558 408 q 184 549 271 477 q 96 732 96 622 q 190 924 96 847 q 436 1002 285 1002 q 694 913 598 1002 q 786 706 790 824 l 785 702 l 657 702 q 600 843 657 789 q 436 896 543 896 q 283 851 336 896 q 229 734 229 806 q 287 626 229 669 q 474 550 345 583 q 712 437 630 512 q 793 250 793 361 q 695 58 793 131 q 440 -14 598 -14 q 179 66 293 -14 q 69 280 65 146 l 70 284 l 198 284 q 267 139 198 189 q 440 90 337 90 q 600 133 541 90 q 659 249 659 175 m 624 1116 l 624 1100 l 515 1100 l 415 1200 l 316 1100 l 207 1100 l 207 1117 l 374 1278 l 456 1278 l 624 1116 "},"Ӛ":{"x_min":60.359375,"x_max":890.5,"ha":966,"o":"m 416 1002 q 765 866 640 1002 q 890 510 890 731 l 890 477 q 771 124 890 262 q 482 -14 653 -14 q 168 105 276 -14 q 60 436 60 225 l 60 510 l 752 510 l 753 513 q 671 789 756 681 q 416 896 587 896 q 291 880 343 896 q 189 839 239 865 l 155 934 q 254 979 189 957 q 416 1002 319 1002 m 482 90 q 668 181 597 90 q 751 415 739 272 l 749 418 l 193 418 l 193 397 q 261 173 193 257 q 482 90 328 90 m 660 1058 l 512 1058 l 512 1193 l 660 1193 l 660 1058 m 341 1058 l 193 1058 l 193 1193 l 341 1193 l 341 1058 "},"ӣ":{"x_min":96.984375,"x_max":691.78125,"ha":789,"o":"m 558 734 l 691 734 l 691 0 l 558 0 l 558 521 l 554 522 l 229 0 l 96 0 l 96 734 l 229 734 l 229 212 l 233 211 l 558 734 m 642 881 l 153 881 l 153 980 l 642 980 l 642 881 "},"C":{"x_min":80.03125,"x_max":821.40625,"ha":880,"o":"m 819 316 l 821 312 q 723 79 824 173 q 458 -14 623 -14 q 185 104 290 -14 q 80 405 80 223 l 80 581 q 185 882 80 763 q 458 1002 290 1002 q 725 912 626 1002 q 821 676 824 823 l 819 672 l 691 672 q 630 836 691 776 q 458 896 569 896 q 280 806 346 896 q 213 582 213 716 l 213 405 q 280 180 213 270 q 458 90 346 90 q 630 150 569 90 q 691 316 691 210 l 819 316 "},"Ӂ":{"x_min":18.984375,"x_max":1249.28125,"ha":1268,"o":"m 807 452 l 704 452 l 704 0 l 570 0 l 570 452 l 460 452 l 185 0 l 18 0 l 349 522 l 46 988 l 202 988 l 459 558 l 570 558 l 570 988 l 704 988 l 704 558 l 809 558 l 1066 988 l 1222 988 l 918 522 l 1249 0 l 1083 0 l 807 452 m 835 1268 l 837 1264 q 784 1136 839 1186 q 636 1087 729 1087 q 488 1136 543 1087 q 436 1264 433 1186 l 438 1268 l 540 1268 q 563 1196 540 1224 q 636 1168 586 1168 q 709 1196 685 1168 q 733 1268 733 1224 l 835 1268 "},"Ḁ":{"x_min":13.5625,"x_max":885.765625,"ha":899,"o":"m 657 254 l 243 254 l 149 0 l 13 0 l 395 988 l 510 988 l 885 0 l 749 0 l 657 254 m 284 365 l 617 365 l 454 816 l 450 816 l 284 365 m 354 -158 q 385 -85 354 -114 q 460 -56 416 -56 q 534 -85 503 -56 q 564 -158 564 -114 q 534 -229 564 -201 q 460 -257 504 -257 q 385 -229 416 -257 q 354 -158 354 -201 m 414 -158 q 428 -189 414 -176 q 460 -202 441 -202 q 491 -189 478 -202 q 504 -158 504 -177 q 491 -125 504 -138 q 460 -111 478 -111 q 428 -125 441 -111 q 414 -158 414 -139 "},"Ĵ":{"x_min":44.640625,"x_max":789.40625,"ha":766,"o":"m 519 988 l 653 988 l 653 273 q 569 63 653 141 q 352 -14 485 -14 q 125 58 209 -14 q 44 268 41 130 l 46 272 l 174 272 q 220 135 174 180 q 352 90 267 90 q 472 140 425 90 q 519 273 519 190 l 519 988 m 789 1094 l 789 1078 l 680 1078 l 580 1178 l 481 1078 l 372 1078 l 372 1095 l 539 1256 l 621 1256 l 789 1094 "},"Ẻ":{"x_min":122.078125,"x_max":777.25,"ha":812,"o":"m 708 457 l 255 457 l 255 104 l 777 104 l 777 0 l 122 0 l 122 988 l 769 988 l 769 882 l 255 882 l 255 563 l 708 563 l 708 457 m 381 1072 l 380 1176 q 454 1190 432 1179 q 476 1225 476 1200 q 446 1265 476 1252 q 367 1278 417 1278 l 372 1351 q 525 1316 472 1351 q 579 1223 579 1281 q 550 1151 579 1175 q 477 1120 521 1126 l 476 1072 l 381 1072 "},"Ҕ":{"x_min":122.078125,"x_max":784.703125,"ha":850,"o":"m 727 882 l 255 882 l 255 565 l 377 565 q 677 460 570 565 q 784 173 784 356 q 702 -100 784 -5 q 465 -192 619 -195 l 461 -191 l 460 -94 q 607 -25 562 -94 q 651 173 651 43 q 581 381 649 310 q 377 453 514 453 l 255 453 l 255 0 l 122 0 l 122 988 l 727 988 l 727 882 "},"È":{"x_min":122.078125,"x_max":777.25,"ha":812,"o":"m 708 457 l 255 457 l 255 104 l 777 104 l 777 0 l 122 0 l 122 988 l 769 988 l 769 882 l 255 882 l 255 563 l 708 563 l 708 457 m 482 1057 l 375 1057 l 205 1233 l 207 1238 l 363 1238 l 482 1057 "},"X":{"x_min":44.765625,"x_max":839.640625,"ha":878,"o":"m 440 602 l 671 988 l 832 988 l 519 498 l 839 0 l 680 0 l 443 392 l 206 0 l 44 0 l 364 498 l 51 988 l 211 988 l 440 602 "},"ô":{"x_min":65.78125,"x_max":722.984375,"ha":789,"o":"m 65 373 q 153 641 65 536 q 393 747 242 747 q 634 641 545 747 q 722 373 722 536 l 722 358 q 634 90 722 194 q 394 -14 546 -14 q 154 90 242 -14 q 65 358 65 195 l 65 373 m 199 358 q 248 166 199 242 q 394 90 297 90 q 539 166 490 90 q 589 358 589 242 l 589 373 q 539 565 589 488 q 393 641 489 641 q 248 565 297 641 q 199 373 199 488 l 199 358 m 603 883 l 603 867 l 494 867 l 394 967 l 295 867 l 186 867 l 186 884 l 353 1045 l 435 1045 l 603 883 "},"ҝ":{"x_min":103.765625,"x_max":761.640625,"ha":765,"o":"m 737 734 l 507 386 l 761 0 l 592 0 l 410 311 l 394 311 l 394 181 l 288 181 l 288 311 l 237 311 l 237 0 l 103 0 l 103 734 l 237 734 l 237 424 l 288 424 l 288 567 l 394 567 l 394 424 l 404 424 l 577 734 l 737 734 "},"Ė":{"x_min":122.078125,"x_max":777.25,"ha":812,"o":"m 708 457 l 255 457 l 255 104 l 777 104 l 777 0 l 122 0 l 122 988 l 769 988 l 769 882 l 255 882 l 255 563 l 708 563 l 708 457 m 499 1088 l 351 1088 l 351 1224 l 499 1224 l 499 1088 "},"г":{"x_min":96.984375,"x_max":563.609375,"ha":576,"o":"m 563 628 l 230 628 l 230 0 l 96 0 l 96 734 l 563 734 l 563 628 "},"ấ":{"x_min":71.890625,"x_max":812.140625,"ha":764,"o":"m 548 0 q 537 58 541 33 q 533 109 533 84 q 435 21 495 56 q 306 -14 375 -14 q 131 44 191 -14 q 71 206 71 103 q 157 370 71 311 q 387 430 242 430 l 533 430 l 533 502 q 493 604 533 566 q 382 641 454 641 q 277 609 318 641 q 237 530 237 576 l 109 530 l 108 534 q 184 680 104 614 q 389 747 263 747 q 590 683 514 747 q 666 500 666 620 l 666 147 q 670 71 666 108 q 685 0 674 35 l 548 0 m 326 97 q 457 135 398 97 q 533 220 515 172 l 533 339 l 383 339 q 253 299 302 339 q 205 203 205 258 q 236 126 205 154 q 326 97 266 97 m 318 1043 l 425 1043 l 620 869 l 619 865 l 485 865 l 371 971 l 258 865 l 123 865 l 122 869 l 318 1043 m 669 1160 l 812 1160 l 673 984 l 574 984 l 669 1160 "},"Ŀ":{"x_min":122.078125,"x_max":722.984375,"ha":750,"o":"m 255 104 l 722 104 l 722 0 l 122 0 l 122 988 l 255 988 l 255 104 m 563 465 l 415 465 l 415 602 l 563 602 l 563 465 "},"х":{"x_min":31.203125,"x_max":664.65625,"ha":699,"o":"m 345 463 l 501 734 l 657 734 l 419 371 l 664 0 l 511 0 l 348 277 l 185 0 l 31 0 l 276 371 l 37 734 l 191 734 l 345 463 "},"ŋ":{"x_min":96.984375,"x_max":687.046875,"ha":789,"o":"m 216 734 l 225 632 q 316 717 261 687 q 438 747 370 747 q 621 677 556 747 q 687 463 687 608 l 687 -60 q 628 -234 687 -173 q 465 -296 570 -296 q 426 -292 444 -296 q 389 -283 408 -289 l 399 -175 q 431 -181 408 -178 q 465 -183 453 -183 q 530 -151 507 -183 q 553 -60 553 -119 l 553 460 q 514 597 553 557 q 397 638 476 638 q 298 616 339 638 q 230 553 256 593 l 230 0 l 96 0 l 96 734 l 216 734 "},"Ỵ":{"x_min":13.5625,"x_max":834.21875,"ha":848,"o":"m 423 485 l 681 988 l 834 988 l 487 347 l 487 0 l 354 0 l 354 356 l 13 988 l 166 988 l 423 485 m 497 -221 l 349 -221 l 349 -85 l 497 -85 l 497 -221 "},"Ч":{"x_min":99.703125,"x_max":832.859375,"ha":956,"o":"m 832 988 l 832 0 l 699 0 l 699 408 q 574 380 634 388 q 431 371 514 371 q 183 442 267 371 q 99 675 99 514 l 99 988 l 233 988 l 233 675 q 280 520 233 563 q 431 477 327 477 q 567 486 501 477 q 699 514 632 496 l 699 988 l 832 988 "},"ü":{"x_min":94.265625,"x_max":691.78125,"ha":789,"o":"m 562 108 q 474 17 528 49 q 348 -14 419 -14 q 161 62 228 -14 q 94 301 94 139 l 94 734 l 227 734 l 227 299 q 262 138 227 182 q 370 94 297 94 q 487 123 441 94 q 558 205 534 152 l 558 734 l 691 734 l 691 0 l 571 0 l 562 108 m 627 856 l 479 856 l 479 991 l 627 991 l 627 856 m 308 856 l 160 856 l 160 991 l 308 991 l 308 856 "},"ь":{"x_min":103.765625,"x_max":694.5,"ha":755,"o":"m 237 454 l 419 454 q 622 391 550 454 q 694 229 694 329 q 621 64 694 129 q 419 0 548 0 l 103 0 l 103 734 l 237 734 l 237 454 m 237 349 l 237 104 l 419 104 q 525 138 491 104 q 560 224 560 173 q 525 312 560 275 q 419 349 491 349 l 237 349 "},"Җ":{"x_min":18.984375,"x_max":1297.71875,"ha":1268,"o":"m 807 452 l 704 452 l 704 0 l 570 0 l 570 452 l 460 452 l 185 0 l 18 0 l 349 522 l 46 988 l 202 988 l 459 558 l 570 558 l 570 988 l 704 988 l 704 558 l 809 558 l 1066 988 l 1222 988 l 918 522 l 1249 0 l 1083 0 l 807 452 m 1297 -243 l 1164 -243 l 1164 106 l 1297 106 l 1297 -243 "},"Ҍ":{"x_min":-34.59375,"x_max":821.328125,"ha":875,"o":"m 400 746 l 244 746 l 244 597 l 487 597 q 733 515 645 597 q 821 301 821 434 q 733 83 821 166 q 487 0 644 0 l 110 0 l 110 746 l -34 746 l -34 852 l 110 852 l 110 988 l 244 988 l 244 852 l 400 852 l 400 746 m 244 491 l 244 104 l 487 104 q 637 161 587 104 q 687 302 687 219 q 637 437 687 383 q 487 491 588 491 l 244 491 "},"Ÿ":{"x_min":13.5625,"x_max":834.21875,"ha":848,"o":"m 423 485 l 681 988 l 834 988 l 487 347 l 487 0 l 354 0 l 354 356 l 13 988 l 166 988 l 423 485 m 657 1088 l 509 1088 l 509 1223 l 657 1223 l 657 1088 m 338 1088 l 190 1088 l 190 1223 l 338 1223 l 338 1088 "},"ҽ":{"x_min":-22.375,"x_max":755.546875,"ha":824,"o":"m 475 -14 q 231 88 322 -14 q 141 352 141 190 l 141 358 q 18 437 60 378 q -22 588 -22 496 l 84 588 q 99 508 84 541 q 147 458 114 475 q 257 666 169 585 q 455 747 344 747 q 679 657 603 747 q 755 419 755 568 l 755 336 l 279 336 l 277 332 q 330 158 279 226 q 475 90 382 90 q 594 109 543 90 q 682 163 645 129 l 735 76 q 631 11 695 37 q 475 -14 567 -14 m 455 641 q 340 585 387 641 q 282 443 293 529 l 283 440 l 621 440 l 621 458 q 579 589 621 536 q 455 641 537 641 "},"в":{"x_min":97.671875,"x_max":718.234375,"ha":789,"o":"m 97 0 l 97 734 l 387 734 q 612 683 532 734 q 692 531 692 632 q 661 439 692 480 q 573 378 630 399 q 679 315 641 361 q 718 208 718 268 q 643 52 718 105 q 434 0 568 0 l 97 0 m 231 321 l 231 103 l 434 103 q 545 131 507 103 q 583 212 583 159 q 545 293 583 264 q 434 321 507 321 l 231 321 m 231 424 l 387 424 q 515 449 472 424 q 558 525 558 474 q 515 603 558 577 q 387 630 472 630 l 231 630 l 231 424 "},"Η":{"x_min":122.078125,"x_max":868.796875,"ha":991,"o":"m 868 0 l 735 0 l 735 435 l 255 435 l 255 0 l 122 0 l 122 988 l 255 988 l 255 541 l 735 541 l 735 988 l 868 988 l 868 0 "},"С":{"x_min":80.03125,"x_max":821.40625,"ha":880,"o":"m 819 316 l 821 312 q 723 79 824 173 q 458 -14 623 -14 q 185 104 290 -14 q 80 405 80 223 l 80 581 q 185 882 80 763 q 458 1002 290 1002 q 725 912 626 1002 q 821 676 824 823 l 819 672 l 691 672 q 630 836 691 776 q 458 896 569 896 q 280 806 346 896 q 213 582 213 716 l 213 405 q 280 180 213 270 q 458 90 346 90 q 630 150 569 90 q 691 316 691 210 l 819 316 "},"ß":{"x_min":92.921875,"x_max":770.46875,"ha":828,"o":"m 225 0 l 92 0 l 92 734 q 172 970 92 885 q 376 1055 252 1055 q 554 996 485 1055 q 622 825 622 938 q 578 670 622 745 q 535 557 535 595 q 652 405 535 501 q 770 214 770 308 q 699 43 770 101 q 507 -14 628 -14 q 390 0 451 -14 q 305 34 330 13 l 335 142 q 408 106 364 123 q 494 90 453 90 q 602 122 567 90 q 636 207 636 154 q 519 362 636 264 q 401 558 401 459 q 449 687 401 612 q 497 814 497 762 q 462 913 497 877 q 383 950 427 950 q 269 893 312 950 q 225 734 225 837 l 225 0 "},"њ":{"x_min":96.984375,"x_max":1148.234375,"ha":1208,"o":"m 230 456 l 557 456 l 557 734 l 691 734 l 691 454 l 873 454 q 1076 391 1003 454 q 1148 229 1148 329 q 1075 64 1148 129 q 873 0 1002 0 l 557 0 l 557 352 l 230 352 l 230 0 l 96 0 l 96 734 l 230 734 l 230 456 m 691 350 l 691 103 l 873 103 q 979 141 944 103 q 1013 231 1013 178 q 979 315 1013 280 q 873 350 945 350 l 691 350 "},"Ể":{"x_min":122.078125,"x_max":824.734375,"ha":812,"o":"m 708 457 l 255 457 l 255 104 l 777 104 l 777 0 l 122 0 l 122 988 l 769 988 l 769 882 l 255 882 l 255 563 l 708 563 l 708 457 m 670 1062 l 668 1058 l 553 1058 l 420 1184 l 287 1058 l 172 1058 l 171 1062 l 353 1236 l 487 1236 l 670 1062 m 653 1151 l 652 1241 q 715 1253 697 1244 q 734 1283 734 1262 q 709 1317 734 1306 q 641 1328 683 1328 l 645 1392 q 778 1362 731 1392 q 824 1282 824 1333 q 799 1219 824 1241 q 735 1192 773 1197 l 734 1151 l 653 1151 "},"Ӓ":{"x_min":13.5625,"x_max":885.765625,"ha":899,"o":"m 657 254 l 243 254 l 149 0 l 13 0 l 395 988 l 510 988 l 885 0 l 749 0 l 657 254 m 284 365 l 617 365 l 454 816 l 450 816 l 284 365 m 683 1089 l 535 1089 l 535 1224 l 683 1224 l 683 1089 m 364 1089 l 216 1089 l 216 1224 l 364 1224 l 364 1089 "},"ẳ":{"x_min":71.890625,"x_max":685.6875,"ha":764,"o":"m 548 0 q 537 58 541 33 q 533 109 533 84 q 435 21 495 56 q 306 -14 375 -14 q 131 44 191 -14 q 71 206 71 103 q 157 370 71 311 q 387 430 242 430 l 533 430 l 533 502 q 493 604 533 566 q 382 641 454 641 q 277 609 318 641 q 237 530 237 576 l 109 530 l 108 534 q 184 680 104 614 q 389 747 263 747 q 590 683 514 747 q 666 500 666 620 l 666 147 q 670 71 666 108 q 685 0 674 35 l 548 0 m 326 97 q 457 135 398 97 q 533 220 515 172 l 533 339 l 383 339 q 253 299 302 339 q 205 203 205 258 q 236 126 205 154 q 326 97 266 97 m 560 992 l 562 988 q 512 889 566 927 q 368 851 459 851 q 223 889 276 851 q 174 988 169 927 l 175 992 l 273 992 q 296 936 273 958 q 368 914 319 914 q 439 936 416 914 q 462 992 462 957 l 560 992 m 334 1030 l 334 1115 q 404 1125 383 1117 q 421 1150 424 1133 l 421 1154 q 397 1182 424 1173 q 322 1192 369 1192 l 326 1248 q 474 1221 423 1248 q 526 1150 526 1195 q 498 1096 526 1114 q 427 1072 469 1077 l 426 1030 l 334 1030 "},"Ű":{"x_min":99.703125,"x_max":843.703125,"ha":940,"o":"m 843 988 l 843 318 q 738 71 843 156 q 465 -14 634 -14 q 201 71 302 -14 q 99 318 99 157 l 99 988 l 233 988 l 233 318 q 297 148 233 206 q 465 90 360 90 q 642 148 575 90 q 710 318 710 206 l 710 988 l 843 988 m 658 1266 l 814 1266 l 816 1262 l 612 1086 l 496 1086 l 495 1089 l 658 1266 m 437 1266 l 580 1266 l 582 1263 l 419 1086 l 312 1086 l 437 1266 "},"c":{"x_min":65.78125,"x_max":685.09375,"ha":737,"o":"m 395 90 q 512 131 461 90 q 562 232 562 172 l 682 232 l 684 228 q 599 59 687 133 q 395 -14 512 -14 q 150 90 235 -14 q 65 352 65 194 l 65 381 q 150 642 65 537 q 395 747 236 747 q 605 671 524 747 q 685 484 687 595 l 683 480 l 562 480 q 515 594 562 547 q 395 641 467 641 q 245 566 290 641 q 200 381 200 490 l 200 352 q 244 165 200 240 q 395 90 289 90 "},"¶":{"x_min":42.734375,"x_max":567,"ha":682,"o":"m 433 0 l 433 352 l 376 352 q 130 440 218 352 q 42 670 42 528 q 130 899 42 810 q 376 988 218 988 l 567 988 l 567 0 l 433 0 "},"Ή":{"x_min":13.25,"x_max":936.796875,"ha":1059,"o":"m 936 0 l 803 0 l 803 435 l 323 435 l 323 0 l 190 0 l 190 988 l 323 988 l 323 541 l 803 541 l 803 988 l 936 988 l 936 0 m 54 1120 l 195 1120 l 77 862 l 13 862 l 54 1120 "},"Ὅ":{"x_min":-149.46875,"x_max":869.484375,"ha":947,"o":"m 869 405 q 757 105 869 224 q 465 -14 644 -14 q 184 105 293 -14 q 76 405 76 224 l 76 581 q 184 881 76 761 q 465 1002 293 1002 q 757 882 644 1002 q 869 581 869 762 l 869 405 m 735 582 q 662 805 735 718 q 465 892 589 892 q 279 805 349 892 q 210 582 210 718 l 210 405 q 279 182 210 268 q 465 95 349 95 q 662 181 590 95 q 735 405 735 268 l 735 582 m 54 929 l 123 1141 l 265 1141 l 265 1127 l 110 911 l 54 911 l 54 929 m -149 1006 l -39 1141 l 33 1141 l -21 1002 l -21 909 l -149 909 l -149 1006 "},"Ụ":{"x_min":99.703125,"x_max":843.703125,"ha":940,"o":"m 843 988 l 843 318 q 738 71 843 156 q 465 -14 634 -14 q 201 71 302 -14 q 99 318 99 157 l 99 988 l 233 988 l 233 318 q 297 148 233 206 q 465 90 360 90 q 642 148 575 90 q 710 318 710 206 l 710 988 l 843 988 m 545 -233 l 397 -233 l 397 -97 l 545 -97 l 545 -233 "},"γ":{"x_min":31.203125,"x_max":675.515625,"ha":699,"o":"m 539 734 l 675 734 l 421 42 l 421 -283 l 287 -283 l 287 45 l 31 734 l 168 734 l 341 216 l 353 164 l 357 164 l 370 216 l 539 734 "},"­":{"x_min":23.734375,"x_max":356.0625,"ha":380,"o":"m 356 364 l 23 364 l 23 469 l 356 469 l 356 364 "},"ѫ":{"x_min":101.0625,"x_max":927.125,"ha":1028,"o":"m 761 734 l 845 734 l 651 409 q 856 331 786 402 q 927 109 927 259 l 927 0 l 792 0 l 792 109 q 752 262 792 220 q 622 305 712 305 l 590 305 l 583 292 l 583 0 l 449 0 l 449 298 l 445 305 l 404 305 q 274 262 314 305 q 234 109 234 220 l 234 0 l 101 0 l 101 109 q 172 333 101 263 q 383 409 244 404 l 191 734 l 298 734 l 298 734 l 761 734 l 761 734 m 518 411 l 637 628 l 398 628 l 518 411 "},":":{"x_min":109.1875,"x_max":242.796875,"ha":351,"o":"m 242 0 l 109 0 l 109 137 l 242 137 l 242 0 m 242 594 l 109 594 l 109 731 l 242 731 l 242 594 "},"Ѝ":{"x_min":122.078125,"x_max":868.796875,"ha":991,"o":"m 735 988 l 868 988 l 868 0 l 735 0 l 735 753 l 731 754 l 255 0 l 122 0 l 122 988 l 255 988 l 255 235 l 259 233 l 735 988 m 553 1057 l 446 1057 l 276 1233 l 278 1238 l 434 1238 l 553 1057 "},"ś":{"x_min":73.734375,"x_max":657.203125,"ha":726,"o":"m 523 194 q 490 267 523 238 q 362 316 456 295 q 161 395 229 345 q 94 531 94 445 q 170 683 94 620 q 368 747 246 747 q 572 681 496 747 q 644 521 647 615 l 642 517 l 515 517 q 475 603 515 565 q 368 641 434 641 q 262 610 297 641 q 227 535 227 579 q 258 467 227 492 q 382 422 288 442 q 589 341 521 392 q 657 204 657 290 q 578 46 657 106 q 371 -14 499 -14 q 150 57 231 -14 q 73 223 69 128 l 75 227 l 202 227 q 255 123 206 156 q 371 90 305 90 q 483 119 442 90 q 523 194 523 148 m 427 1017 l 583 1017 l 584 1013 l 401 837 l 301 837 l 427 1017 "},"ӄ":{"x_min":103.765625,"x_max":714.84375,"ha":760,"o":"m 440 415 q 637 320 564 395 q 710 119 710 244 q 643 -61 709 29 q 448 -175 577 -151 l 414 -73 q 539 -2 501 -51 q 577 119 577 46 q 516 264 576 217 q 351 311 455 311 l 237 311 l 237 0 l 103 0 l 103 734 l 237 734 l 237 424 l 294 424 l 556 734 l 713 734 l 714 730 l 440 415 "}," ":{"x_min":0,"x_max":0,"ha":345},"У":{"x_min":57.65625,"x_max":830.140625,"ha":873,"o":"m 398 526 l 448 398 l 452 398 l 674 988 l 830 988 l 484 162 q 397 29 444 73 q 247 -14 350 -14 q 207 -11 230 -14 q 179 -7 185 -9 l 182 93 q 211 91 189 91 q 246 90 234 90 q 315 114 294 90 q 361 193 335 139 l 388 250 l 57 988 l 207 988 l 398 526 "},"ү":{"x_min":31.203125,"x_max":675.515625,"ha":699,"o":"m 539 734 l 675 734 l 421 42 l 421 -283 l 287 -283 l 287 45 l 31 734 l 168 734 l 341 216 l 353 164 l 357 164 l 370 216 l 539 734 "},"¾":{"x_min":86.71875,"x_max":1150,"ha":1208,"o":"m 427 80 l 354 125 l 836 897 l 910 851 l 427 80 m 1064 191 l 1150 191 l 1150 103 l 1064 103 l 1064 0 l 949 0 l 949 103 l 666 103 l 661 172 l 947 543 l 1064 543 l 1064 191 m 784 191 l 949 191 l 949 401 l 945 401 l 936 387 l 784 191 m 298 772 q 366 791 344 772 q 388 845 388 810 q 363 894 388 874 q 291 914 338 914 q 230 897 253 914 q 207 854 207 881 l 97 854 l 95 858 q 149 962 91 922 q 291 1003 206 1003 q 447 962 390 1003 q 504 847 504 922 q 479 779 504 810 q 413 731 455 748 q 487 683 461 715 q 512 604 512 650 q 451 487 512 529 q 291 445 390 445 q 144 484 205 445 q 86 598 82 523 l 87 603 l 198 603 q 223 552 198 571 q 291 533 249 533 q 369 553 340 533 q 397 605 397 573 q 372 667 397 647 q 298 686 348 686 l 209 686 l 209 772 l 298 772 "},"Ί":{"x_min":16.25,"x_max":331.15625,"ha":461,"o":"m 331 0 l 196 0 l 196 988 l 331 988 l 331 0 m 57 1120 l 198 1120 l 80 862 l 16 862 l 57 1120 "},"ŉ":{"x_min":-21.5,"x_max":692.46875,"ha":789,"o":"m 216 734 l 225 624 q 317 715 262 683 q 443 747 373 747 q 627 677 562 747 q 692 462 692 608 l 692 0 l 558 0 l 558 460 q 520 597 558 557 q 403 638 482 638 q 301 610 345 638 q 230 534 257 582 l 230 0 l 96 0 l 96 734 l 216 734 m 127 963 l 44 802 l -21 802 l 19 969 l 19 1058 l 127 1058 l 127 963 "},"Ѭ":{"x_min":128.859375,"x_max":1477.171875,"ha":1578,"o":"m 1130 552 q 1392 481 1307 552 q 1477 251 1477 410 l 1477 0 l 1343 0 l 1343 251 q 1296 404 1343 361 q 1145 446 1249 446 l 1066 446 l 1049 418 l 1049 0 l 916 0 l 916 428 l 904 446 l 815 446 q 665 404 712 446 q 619 251 619 361 l 619 0 l 485 0 l 485 251 q 537 447 485 377 l 263 447 l 263 0 l 128 0 l 128 988 l 263 988 l 263 552 l 841 552 l 575 988 l 1395 988 l 1130 552 m 982 552 l 989 552 l 1182 882 l 790 882 l 982 552 "},"Ģ":{"x_min":81.390625,"x_max":837.609375,"ha":947,"o":"m 837 131 q 715 31 802 76 q 489 -14 628 -14 q 197 99 312 -14 q 81 392 81 212 l 81 595 q 189 888 81 775 q 467 1002 297 1002 q 733 918 636 1002 q 832 703 830 835 l 831 699 l 704 699 q 638 841 697 785 q 467 896 579 896 q 284 812 354 896 q 215 597 215 727 l 215 392 q 292 175 215 260 q 489 90 370 90 q 627 112 573 90 q 704 163 680 135 l 704 387 l 487 387 l 487 493 l 837 493 l 837 131 m 502 -173 l 419 -334 l 353 -334 l 394 -167 l 394 -79 l 502 -79 l 502 -173 "},"m":{"x_min":96.984375,"x_max":1117.03125,"ha":1214,"o":"m 216 734 l 225 637 q 317 718 261 689 q 445 747 372 747 q 571 713 518 747 q 650 611 623 679 q 741 710 685 673 q 874 747 798 747 q 1051 670 986 747 q 1117 438 1117 593 l 1117 0 l 983 0 l 983 439 q 946 593 983 548 q 834 638 908 638 q 724 591 766 638 q 674 471 681 543 l 674 465 l 674 0 l 539 0 l 539 439 q 501 590 539 542 q 391 638 463 638 q 290 613 330 638 q 230 542 251 588 l 230 0 l 96 0 l 96 734 l 216 734 "},"Ị":{"x_min":121.8125,"x_max":269.671875,"ha":393,"o":"m 263 0 l 128 0 l 128 988 l 263 988 l 263 0 m 269 -222 l 121 -222 l 121 -86 l 269 -86 l 269 -222 "},"Ҏ":{"x_min":122.078125,"x_max":850.484375,"ha":888,"o":"m 255 396 l 255 0 l 122 0 l 122 988 l 499 988 q 745 906 657 988 q 832 692 832 825 q 758 490 832 568 l 850 391 l 771 320 l 672 429 q 499 396 600 396 l 255 396 m 255 501 l 499 501 q 592 515 552 501 l 518 595 l 596 666 l 672 584 q 699 690 699 629 q 649 827 699 772 q 499 882 599 882 l 255 882 l 255 501 "},"Е":{"x_min":122.078125,"x_max":777.25,"ha":812,"o":"m 708 457 l 255 457 l 255 104 l 777 104 l 777 0 l 122 0 l 122 988 l 769 988 l 769 882 l 255 882 l 255 563 l 708 563 l 708 457 "},"ž":{"x_min":63.75,"x_max":647.03125,"ha":699,"o":"m 223 104 l 647 104 l 647 0 l 63 0 l 63 93 l 460 628 l 68 628 l 68 734 l 623 734 l 623 643 l 223 104 m 354 932 l 453 1032 l 569 1032 l 569 1020 l 394 854 l 314 854 l 141 1018 l 141 1032 l 254 1032 l 354 932 "},"ớ":{"x_min":65.78125,"x_max":851.84375,"ha":797,"o":"m 65 373 q 153 641 65 536 q 393 747 242 747 q 520 723 462 747 q 621 656 577 699 q 703 713 676 669 q 731 829 731 758 l 851 829 q 806 668 851 732 q 674 583 761 604 q 710 485 697 538 q 722 373 722 431 l 722 358 q 634 90 722 194 q 394 -14 546 -14 q 154 90 242 -14 q 65 358 65 195 l 65 373 m 199 358 q 248 166 199 242 q 394 90 297 90 q 539 166 490 90 q 589 358 589 242 l 589 373 q 539 565 589 488 q 393 641 489 641 q 248 565 297 641 q 199 373 199 488 l 199 358 m 459 1017 l 615 1017 l 616 1013 l 433 837 l 333 837 l 459 1017 "},"á":{"x_min":71.890625,"x_max":685.6875,"ha":764,"o":"m 548 0 q 537 58 541 33 q 533 109 533 84 q 435 21 495 56 q 306 -14 375 -14 q 131 44 191 -14 q 71 206 71 103 q 157 370 71 311 q 387 430 242 430 l 533 430 l 533 502 q 493 604 533 566 q 382 641 454 641 q 277 609 318 641 q 237 530 237 576 l 109 530 l 108 534 q 184 680 104 614 q 389 747 263 747 q 590 683 514 747 q 666 500 666 620 l 666 147 q 670 71 666 108 q 685 0 674 35 l 548 0 m 326 97 q 457 135 398 97 q 533 220 515 172 l 533 339 l 383 339 q 253 299 302 339 q 205 203 205 258 q 236 126 205 154 q 326 97 266 97 m 441 1017 l 597 1017 l 598 1013 l 415 837 l 315 837 l 441 1017 "},"Ӻ":{"x_min":44.015625,"x_max":779.734375,"ha":824,"o":"m 779 882 l 307 882 l 307 0 l 174 0 l 174 988 l 779 988 l 779 882 m 478 482 l 44 482 l 44 588 l 478 588 l 478 482 m 428 104 l 428 -59 q 370 -234 428 -173 q 208 -296 312 -296 q 170 -292 187 -296 q 133 -283 152 -289 l 142 -175 q 173 -181 152 -178 q 208 -183 195 -183 q 272 -151 249 -183 q 295 -59 295 -119 l 295 104 l 428 104 "},"×":{"x_min":59.6875,"x_max":673.46875,"ha":743,"o":"m 59 238 l 281 465 l 59 691 l 145 777 l 366 551 l 588 777 l 673 691 l 451 465 l 673 238 l 588 153 l 366 378 l 145 153 l 59 238 "},"Ӱ":{"x_min":57.65625,"x_max":830.140625,"ha":873,"o":"m 398 526 l 448 398 l 452 398 l 674 988 l 830 988 l 484 162 q 397 29 444 73 q 247 -14 350 -14 q 207 -11 230 -14 q 179 -7 185 -9 l 182 93 q 211 91 189 91 q 246 90 234 90 q 315 114 294 90 q 361 193 335 139 l 388 250 l 57 988 l 207 988 l 398 526 m 672 1089 l 524 1089 l 524 1224 l 672 1224 l 672 1089 m 353 1089 l 205 1089 l 205 1224 l 353 1224 l 353 1089 "},"ӆ":{"x_min":17.640625,"x_max":802.640625,"ha":768,"o":"m 691 734 l 691 0 l 558 0 l 558 628 l 309 628 l 309 420 q 252 101 309 203 q 55 0 194 0 l 17 0 l 20 113 l 48 114 q 147 184 119 114 q 175 420 175 253 l 175 734 l 691 734 m 802 6 l 700 -200 l 621 -200 l 669 13 l 669 124 l 802 124 l 802 6 "},"п":{"x_min":96.984375,"x_max":691.78125,"ha":789,"o":"m 691 0 l 558 0 l 558 628 l 230 628 l 230 0 l 96 0 l 96 734 l 691 734 l 691 0 "},"Ǻ":{"x_min":13.5625,"x_max":885.765625,"ha":899,"o":"m 657 254 l 243 254 l 149 0 l 13 0 l 395 988 l 510 988 l 885 0 l 749 0 l 657 254 m 284 365 l 617 365 l 454 816 l 450 816 l 284 365 m 514 1414 l 649 1414 l 650 1409 l 504 1288 l 416 1288 l 514 1414 m 330 1142 q 364 1223 330 1191 q 448 1255 399 1255 q 530 1223 496 1255 q 564 1142 564 1191 q 530 1062 564 1093 q 448 1031 496 1031 q 364 1062 399 1031 q 330 1142 330 1093 m 389 1142 q 407 1101 389 1118 q 448 1085 424 1085 q 488 1101 471 1085 q 505 1142 505 1117 q 488 1184 505 1167 q 448 1201 471 1201 q 407 1184 424 1201 q 389 1142 389 1167 "},"K":{"x_min":122.078125,"x_max":889.828125,"ha":893,"o":"m 370 445 l 255 445 l 255 0 l 122 0 l 122 988 l 255 988 l 255 551 l 358 551 l 712 988 l 859 988 l 862 984 l 478 510 l 889 3 l 887 0 l 728 0 l 370 445 "},"7":{"x_min":52.21875,"x_max":720.265625,"ha":782,"o":"m 720 882 q 478 505 541 669 q 387 106 415 340 l 377 0 l 243 0 l 254 106 q 364 523 282 339 q 589 882 446 707 l 52 882 l 52 988 l 720 988 l 720 882 "},"¨":{"x_min":115.296875,"x_max":582.59375,"ha":692,"o":"m 582 852 l 434 852 l 434 987 l 582 987 l 582 852 m 263 852 l 115 852 l 115 987 l 263 987 l 263 852 "},"Y":{"x_min":13.5625,"x_max":834.21875,"ha":848,"o":"m 423 485 l 681 988 l 834 988 l 487 347 l 487 0 l 354 0 l 354 356 l 13 988 l 166 988 l 423 485 "},"E":{"x_min":122.078125,"x_max":777.25,"ha":812,"o":"m 708 457 l 255 457 l 255 104 l 777 104 l 777 0 l 122 0 l 122 988 l 769 988 l 769 882 l 255 882 l 255 563 l 708 563 l 708 457 "},"Ô":{"x_min":76.640625,"x_max":869.484375,"ha":947,"o":"m 869 405 q 757 105 869 224 q 465 -14 644 -14 q 184 105 293 -14 q 76 405 76 224 l 76 581 q 184 881 76 761 q 465 1002 293 1002 q 757 882 644 1002 q 869 581 869 762 l 869 405 m 735 582 q 662 805 735 718 q 465 892 589 892 q 279 805 349 892 q 210 582 210 718 l 210 405 q 279 182 210 268 q 465 95 349 95 q 662 181 590 95 q 735 405 735 268 l 735 582 m 682 1116 l 682 1100 l 573 1100 l 473 1200 l 374 1100 l 265 1100 l 265 1117 l 432 1278 l 514 1278 l 682 1116 "},"ổ":{"x_min":65.78125,"x_max":793.734375,"ha":789,"o":"m 65 373 q 153 641 65 536 q 393 747 242 747 q 634 641 545 747 q 722 373 722 536 l 722 358 q 634 90 722 194 q 394 -14 546 -14 q 154 90 242 -14 q 65 358 65 195 l 65 373 m 199 358 q 248 166 199 242 q 394 90 297 90 q 539 166 490 90 q 589 358 589 242 l 589 373 q 539 565 589 488 q 393 641 489 641 q 248 565 297 641 q 199 373 199 488 l 199 358 m 639 845 l 637 841 l 522 841 l 389 967 l 256 841 l 141 841 l 140 845 l 322 1019 l 456 1019 l 639 845 m 622 934 l 621 1024 q 684 1036 666 1027 q 703 1066 703 1045 q 678 1100 703 1089 q 610 1111 652 1111 l 614 1175 q 747 1145 700 1175 q 793 1065 793 1116 q 768 1002 793 1024 q 704 975 742 980 l 703 934 l 622 934 "},"Є":{"x_min":91.5625,"x_max":832.9375,"ha":940,"o":"m 831 316 l 832 312 q 735 79 835 173 q 470 -14 634 -14 q 197 104 302 -14 q 91 405 91 223 l 91 581 q 197 882 91 763 q 470 1002 302 1002 q 736 912 637 1002 q 832 676 835 823 l 831 672 l 703 672 q 642 836 703 776 q 470 896 581 896 q 291 806 358 896 q 225 582 225 716 l 225 551 l 606 551 l 606 446 l 225 446 l 225 405 q 291 180 225 270 q 470 90 358 90 q 642 150 581 90 q 703 316 703 210 l 831 316 "},"Ï":{"x_min":-35.703125,"x_max":431.59375,"ha":393,"o":"m 263 0 l 128 0 l 128 988 l 263 988 l 263 0 m 431 1089 l 283 1089 l 283 1224 l 431 1224 l 431 1089 m 112 1089 l -35 1089 l -35 1224 l 112 1224 l 112 1089 "},"Ѷ":{"x_min":14.921875,"x_max":843.703125,"ha":878,"o":"m 394 259 l 416 177 l 420 177 l 442 259 l 614 805 q 692 955 647 910 q 809 1001 736 1001 l 843 1000 l 843 885 l 834 885 q 780 864 800 885 q 741 788 759 842 l 475 0 l 360 0 l 14 988 l 160 988 l 394 259 m 388 1087 l 386 1083 l 270 1083 l 67 1259 l 69 1264 l 224 1264 l 388 1087 m 570 1084 l 464 1084 l 300 1261 l 302 1264 l 445 1264 l 570 1084 "},"ġ":{"x_min":67.828125,"x_max":692.46875,"ha":789,"o":"m 67 353 q 145 638 67 530 q 358 747 222 747 q 481 719 428 747 q 569 638 534 691 l 585 734 l 692 734 l 692 -3 q 610 -220 692 -144 q 373 -296 528 -296 q 259 -281 320 -296 q 151 -241 198 -266 l 185 -137 q 271 -170 221 -158 q 372 -183 322 -183 q 514 -139 470 -183 q 558 -3 558 -94 l 558 78 q 472 9 522 32 q 357 -14 422 -14 q 145 83 222 -14 q 67 339 67 181 l 67 353 m 201 339 q 248 161 201 228 q 390 94 295 94 q 491 121 451 94 q 558 199 532 149 l 558 536 q 491 611 533 583 q 392 638 450 638 q 248 558 296 638 q 201 353 201 478 l 201 339 m 456 869 l 308 869 l 308 1005 l 456 1005 l 456 869 "},"Ẳ":{"x_min":13.5625,"x_max":885.765625,"ha":899,"o":"m 657 254 l 243 254 l 149 0 l 13 0 l 395 988 l 510 988 l 885 0 l 749 0 l 657 254 m 284 365 l 617 365 l 454 816 l 450 816 l 284 365 m 642 1213 l 644 1209 q 594 1110 648 1148 q 450 1072 541 1072 q 305 1110 358 1072 q 256 1209 251 1148 l 257 1213 l 355 1213 q 378 1157 355 1179 q 450 1135 401 1135 q 521 1157 498 1135 q 544 1213 544 1178 l 642 1213 m 416 1251 l 416 1336 q 486 1346 465 1338 q 503 1371 506 1354 l 503 1375 q 479 1403 506 1394 q 404 1413 451 1413 l 408 1469 q 556 1442 505 1469 q 608 1371 608 1416 q 580 1317 608 1335 q 509 1293 551 1298 l 508 1251 l 416 1251 "},"ҕ":{"x_min":96.984375,"x_max":652.453125,"ha":700,"o":"m 563 628 l 230 628 l 230 439 l 305 439 q 555 351 459 439 q 652 115 652 264 q 585 -73 651 21 q 390 -193 519 -169 l 355 -91 q 480 -15 442 -68 q 518 115 518 37 q 459 271 517 215 q 305 327 401 327 l 230 327 l 230 0 l 96 0 l 96 734 l 563 734 l 563 628 "},"ứ":{"x_min":94.265625,"x_max":938.046875,"ha":817,"o":"m 935 832 l 937 827 q 879 642 940 707 q 691 568 819 577 l 691 0 l 571 0 l 562 108 q 474 17 528 49 q 348 -14 419 -14 q 161 62 228 -14 q 94 301 94 139 l 94 734 l 227 734 l 227 299 q 262 138 227 182 q 370 94 297 94 q 487 123 441 94 q 558 205 534 152 l 558 734 l 691 734 l 691 656 l 695 655 q 792 703 763 659 q 821 832 821 746 l 935 832 m 457 1002 l 613 1002 l 614 998 l 431 822 l 331 822 l 457 1002 "},"έ":{"x_min":66.46875,"x_max":675.640625,"ha":748,"o":"m 364 323 q 241 294 282 323 q 200 206 200 265 q 247 123 200 157 q 373 89 293 89 q 498 127 449 89 q 548 216 548 165 l 674 216 l 675 212 q 588 44 678 102 q 373 -13 498 -13 q 151 45 236 -13 q 66 206 66 104 q 101 311 66 268 q 203 376 136 355 q 111 441 144 400 q 79 532 79 483 q 158 690 79 634 q 373 746 237 746 q 582 686 497 746 q 663 533 666 627 l 661 528 l 535 528 q 488 609 535 576 q 373 642 441 642 q 254 610 295 642 q 212 532 212 578 q 249 453 212 482 q 364 425 286 425 l 506 425 l 506 323 l 364 323 m 376 1123 l 517 1123 l 399 865 l 335 865 l 376 1123 "},"Ấ":{"x_min":13.5625,"x_max":892.140625,"ha":899,"o":"m 657 254 l 243 254 l 149 0 l 13 0 l 395 988 l 510 988 l 885 0 l 749 0 l 657 254 m 284 365 l 617 365 l 454 816 l 450 816 l 284 365 m 398 1261 l 505 1261 l 700 1087 l 699 1083 l 565 1083 l 451 1189 l 338 1083 l 203 1083 l 202 1087 l 398 1261 m 749 1378 l 892 1378 l 753 1202 l 654 1202 l 749 1378 "}," ":{"x_min":0,"x_max":0,"ha":473},"ể":{"x_min":67.140625,"x_max":777.734375,"ha":735,"o":"m 401 -14 q 157 87 248 -14 q 67 352 67 189 l 67 382 q 160 642 67 538 q 381 747 253 747 q 605 657 529 747 q 681 419 681 568 l 681 336 l 205 336 l 203 332 q 257 158 205 226 q 401 90 308 90 q 520 109 469 90 q 609 163 571 129 l 661 76 q 557 11 621 37 q 401 -14 493 -14 m 381 641 q 266 585 314 641 q 208 443 219 529 l 209 440 l 548 440 l 548 458 q 505 589 548 536 q 381 641 463 641 m 623 846 l 621 842 l 506 842 l 373 968 l 240 842 l 125 842 l 124 846 l 306 1020 l 440 1020 l 623 846 m 606 935 l 605 1025 q 668 1037 650 1028 q 687 1067 687 1046 q 662 1101 687 1090 q 594 1112 636 1112 l 598 1176 q 731 1146 684 1176 q 777 1066 777 1117 q 752 1003 777 1025 q 688 976 726 981 l 687 935 l 606 935 "},"ϋ":{"x_min":95.625,"x_max":720.265625,"ha":789,"o":"m 229 734 l 229 318 q 276 145 229 200 q 402 90 322 90 q 540 176 495 90 q 586 381 586 262 q 562 554 584 466 q 502 734 539 641 l 642 734 q 698 573 676 661 q 720 381 720 485 q 644 97 720 208 q 408 -14 569 -14 q 177 68 259 -14 q 95 320 95 150 l 95 734 l 229 734 m 640 856 l 492 856 l 492 991 l 640 991 l 640 856 m 321 856 l 173 856 l 173 991 l 321 991 l 321 856 "},"җ":{"x_min":14.25,"x_max":1068.71875,"ha":1063,"o":"m 681 317 l 596 317 l 596 0 l 462 0 l 462 317 l 376 317 l 182 0 l 14 0 l 276 388 l 37 734 l 198 734 l 379 431 l 462 431 l 462 734 l 596 734 l 596 431 l 679 431 l 860 734 l 1022 734 l 782 388 l 1044 0 l 876 0 l 681 317 m 1068 -243 l 935 -243 l 935 106 l 1068 106 l 1068 -243 "},"й":{"x_min":96.984375,"x_max":691.78125,"ha":789,"o":"m 558 734 l 691 734 l 691 0 l 558 0 l 558 521 l 554 522 l 229 0 l 96 0 l 96 734 l 229 734 l 229 212 l 233 211 l 558 734 m 593 1035 l 595 1031 q 542 903 597 953 q 394 854 487 854 q 246 903 301 854 q 194 1031 191 953 l 196 1035 l 298 1035 q 321 963 298 991 q 394 935 344 935 q 467 963 443 935 q 491 1035 491 991 l 593 1035 "},"b":{"x_min":96.984375,"x_max":723.65625,"ha":789,"o":"m 723 339 q 647 83 723 180 q 437 -14 571 -14 q 311 14 364 -14 q 222 96 257 42 l 206 0 l 96 0 l 96 1058 l 230 1058 l 230 646 q 316 721 265 695 q 436 747 367 747 q 647 638 571 747 q 723 353 723 530 l 723 339 m 590 353 q 543 558 590 479 q 402 638 497 638 q 298 608 340 638 q 230 527 255 578 l 230 209 q 298 125 256 155 q 403 94 339 94 q 543 161 497 94 q 590 339 590 228 l 590 353 "},"ύ":{"x_min":95.625,"x_max":720.265625,"ha":789,"o":"m 229 734 l 229 318 q 276 145 229 200 q 402 90 322 90 q 540 176 495 90 q 586 381 586 262 q 562 554 584 466 q 502 734 539 641 l 642 734 q 698 573 676 661 q 720 381 720 485 q 644 97 720 208 q 408 -14 569 -14 q 177 68 259 -14 q 95 320 95 150 l 95 734 l 229 734 m 409 1111 l 550 1111 l 432 853 l 368 853 l 409 1111 "},"ӏ":{"x_min":128.859375,"x_max":263.15625,"ha":393,"o":"m 263 0 l 128 0 l 128 988 l 263 988 l 263 0 "},"ҋ":{"x_min":96.984375,"x_max":802.640625,"ha":789,"o":"m 558 734 l 691 734 l 691 0 l 558 0 l 558 521 l 554 522 l 229 0 l 96 0 l 96 734 l 229 734 l 229 212 l 233 211 l 558 734 m 593 1035 l 595 1031 q 542 903 597 953 q 394 854 487 854 q 246 903 301 854 q 194 1031 191 953 l 196 1035 l 298 1035 q 321 963 298 991 q 394 935 344 935 q 467 963 443 935 q 491 1035 491 991 l 593 1035 m 802 6 l 700 -200 l 621 -200 l 669 13 l 669 124 l 802 124 l 802 6 "},"ф":{"x_min":66.46875,"x_max":940.6875,"ha":1007,"o":"m 66 353 q 135 639 66 531 q 333 747 204 747 q 384 742 360 747 q 430 729 408 737 l 430 1058 l 564 1058 l 564 725 q 614 741 587 735 q 673 747 641 747 q 871 639 802 747 q 940 353 940 531 l 940 339 q 871 82 940 179 q 674 -14 801 -14 q 615 -8 642 -14 q 564 6 587 -3 l 564 -282 l 430 -282 l 430 2 q 384 -9 408 -5 q 332 -14 360 -14 q 135 82 204 -14 q 66 339 66 179 l 66 353 m 807 353 q 764 561 807 480 q 632 641 720 641 q 595 638 612 641 q 564 630 578 635 l 564 99 q 595 92 577 95 q 634 90 612 90 q 764 158 722 90 q 807 339 807 227 l 807 353 m 200 339 q 239 158 200 225 q 366 90 278 90 q 400 92 384 90 q 430 99 417 95 l 430 632 q 401 639 417 636 q 367 641 385 641 q 239 561 279 641 q 200 353 200 482 l 200 339 "},"Ŋ":{"x_min":109.1875,"x_max":855.921875,"ha":960,"o":"m 855 988 l 855 -59 q 797 -234 855 -173 q 634 -296 739 -296 q 596 -292 613 -296 q 558 -283 578 -289 l 568 -182 q 600 -188 577 -185 q 634 -190 623 -190 q 698 -156 675 -190 q 722 -60 722 -121 l 722 0 l 246 754 l 242 753 l 242 0 l 109 0 l 109 988 l 242 988 l 718 233 l 722 234 l 722 988 l 855 988 "},"Ũ":{"x_min":99.703125,"x_max":843.703125,"ha":940,"o":"m 843 988 l 843 318 q 738 71 843 156 q 465 -14 634 -14 q 201 71 302 -14 q 99 318 99 157 l 99 988 l 233 988 l 233 318 q 297 148 233 206 q 465 90 360 90 q 642 148 575 90 q 710 318 710 206 l 710 988 l 843 988 m 708 1249 q 667 1142 708 1186 q 566 1098 627 1098 q 466 1129 518 1098 q 379 1161 413 1161 q 330 1139 350 1161 q 310 1085 310 1117 l 237 1103 q 277 1212 237 1166 q 379 1259 317 1259 q 474 1227 417 1259 q 566 1195 531 1195 q 614 1217 594 1195 q 635 1271 635 1239 l 708 1249 "},"Щ":{"x_min":122.078125,"x_max":1293.375,"ha":1352,"o":"m 255 988 l 255 104 l 589 104 l 589 988 l 722 988 l 722 104 l 1054 104 l 1054 988 l 1188 988 l 1188 105 l 1293 105 l 1279 -238 l 1161 -238 l 1161 0 l 122 0 l 122 988 l 255 988 "},"L":{"x_min":122.078125,"x_max":722.984375,"ha":750,"o":"m 255 104 l 722 104 l 722 0 l 122 0 l 122 988 l 255 988 l 255 104 "},"Ҡ":{"x_min":45.4375,"x_max":1136.015625,"ha":1139,"o":"m 617 445 l 501 445 l 501 0 l 368 0 l 368 882 l 45 882 l 45 988 l 501 988 l 501 551 l 604 551 l 958 988 l 1106 988 l 1108 984 l 725 510 l 1136 3 l 1133 0 l 974 0 l 617 445 "},"ď":{"x_min":66.46875,"x_max":888.03125,"ha":891,"o":"m 66 353 q 142 638 66 530 q 354 747 217 747 q 468 723 418 747 q 553 654 518 699 l 553 1058 l 687 1058 l 687 0 l 577 0 l 562 90 q 474 12 526 38 q 352 -14 421 -14 q 142 83 218 -14 q 66 339 66 180 l 66 353 m 200 339 q 245 161 200 227 q 386 94 290 94 q 486 121 446 94 q 553 197 527 148 l 553 539 q 486 611 527 584 q 387 638 445 638 q 245 559 291 638 q 200 353 200 479 l 200 339 m 888 963 l 805 802 l 739 802 l 780 969 l 780 1058 l 888 1058 l 888 963 "},"Ο":{"x_min":76.640625,"x_max":869.484375,"ha":947,"o":"m 869 405 q 757 105 869 224 q 465 -14 644 -14 q 184 105 293 -14 q 76 405 76 224 l 76 581 q 184 881 76 761 q 465 1002 293 1002 q 757 882 644 1002 q 869 581 869 762 l 869 405 m 735 582 q 662 805 735 718 q 465 892 589 892 q 279 805 349 892 q 210 582 210 718 l 210 405 q 279 182 210 268 q 465 95 349 95 q 662 181 590 95 q 735 405 735 268 l 735 582 "},"Ĭ":{"x_min":-2.328125,"x_max":398.15625,"ha":393,"o":"m 263 0 l 128 0 l 128 988 l 263 988 l 263 0 m 396 1268 l 398 1264 q 345 1136 400 1186 q 197 1087 290 1087 q 49 1136 104 1087 q -2 1264 -5 1186 l 0 1268 l 101 1268 q 124 1196 101 1224 q 197 1168 147 1168 q 270 1196 246 1168 q 294 1268 294 1224 l 396 1268 "},"ŧ":{"x_min":-5.421875,"x_max":429.3125,"ha":480,"o":"m 273 911 l 273 734 l 412 734 l 412 634 l 273 634 l 273 512 l 429 512 l 429 406 l 273 406 l 273 189 q 294 116 273 137 q 351 95 316 95 q 376 98 362 95 q 401 105 390 101 l 419 13 q 375 -6 404 1 q 317 -14 346 -14 q 187 35 236 -14 q 139 189 139 84 l 139 406 l -5 406 l -5 512 l 139 512 l 139 634 l 23 634 l 23 734 l 139 734 l 139 911 l 273 911 "},"À":{"x_min":13.5625,"x_max":885.765625,"ha":899,"o":"m 657 254 l 243 254 l 149 0 l 13 0 l 395 988 l 510 988 l 885 0 l 749 0 l 657 254 m 284 365 l 617 365 l 454 816 l 450 816 l 284 365 m 533 1057 l 426 1057 l 256 1233 l 258 1238 l 414 1238 l 533 1057 "},"Ϊ":{"x_min":-35.703125,"x_max":431.59375,"ha":393,"o":"m 263 0 l 128 0 l 128 988 l 263 988 l 263 0 m 431 1089 l 283 1089 l 283 1224 l 431 1224 l 431 1089 m 112 1089 l -35 1089 l -35 1224 l 112 1224 l 112 1089 "},"ḁ":{"x_min":71.890625,"x_max":685.6875,"ha":764,"o":"m 548 0 q 537 58 541 33 q 533 109 533 84 q 435 21 495 56 q 306 -14 375 -14 q 131 44 191 -14 q 71 206 71 103 q 157 370 71 311 q 387 430 242 430 l 533 430 l 533 502 q 493 604 533 566 q 382 641 454 641 q 277 609 318 641 q 237 530 237 576 l 109 530 l 108 534 q 184 680 104 614 q 389 747 263 747 q 590 683 514 747 q 666 500 666 620 l 666 147 q 670 71 666 108 q 685 0 674 35 l 548 0 m 326 97 q 457 135 398 97 q 533 220 515 172 l 533 339 l 383 339 q 253 299 302 339 q 205 203 205 258 q 236 126 205 154 q 326 97 266 97 m 229 -158 q 260 -85 229 -114 q 335 -56 291 -56 q 409 -85 378 -56 q 439 -158 439 -114 q 409 -229 439 -201 q 335 -257 379 -257 q 260 -229 291 -257 q 229 -158 229 -201 m 289 -158 q 303 -189 289 -176 q 335 -202 316 -202 q 366 -189 353 -202 q 379 -158 379 -177 q 366 -125 379 -138 q 335 -111 353 -111 q 303 -125 316 -111 q 289 -158 289 -139 "},"½":{"x_min":124.4375,"x_max":1034.25,"ha":1158,"o":"m 312 80 l 239 125 l 721 897 l 795 851 l 312 80 m 328 450 l 210 450 l 210 894 l 124 894 l 124 985 l 328 1001 l 328 450 m 1034 0 l 632 0 l 632 88 l 837 266 q 899 332 884 306 q 914 386 914 357 q 894 441 914 420 q 836 462 875 462 q 766 440 790 462 q 741 384 741 418 l 632 384 l 630 388 q 683 503 626 456 q 836 551 740 551 q 979 507 927 551 q 1030 385 1030 464 q 1000 293 1030 331 q 891 183 970 255 l 788 92 l 789 88 l 1034 88 l 1034 0 "},"'":{"x_min":54.265625,"x_max":188.546875,"ha":243,"o":"m 188 906 l 120 715 l 54 715 l 54 895 l 54 1058 l 188 1058 l 188 906 "},"ĳ":{"x_min":107.84375,"x_max":600.9375,"ha":709,"o":"m 241 0 l 107 0 l 107 734 l 241 734 l 241 0 m 241 921 l 107 921 l 107 1058 l 241 1058 l 241 921 m 600 734 l 600 -60 q 542 -234 600 -173 q 380 -296 484 -296 q 342 -292 359 -296 q 305 -283 324 -289 l 314 -178 q 341 -184 324 -182 q 371 -186 359 -186 q 441 -156 415 -186 q 467 -60 467 -127 l 467 734 l 600 734 m 596 924 l 463 924 l 463 1058 l 596 1058 l 596 924 "},"Ҽ":{"x_min":54.8125,"x_max":1071.59375,"ha":1179,"o":"m 742 -16 q 394 118 518 -16 q 269 475 269 253 l 269 479 q 107 559 162 493 q 54 730 52 626 l 56 733 l 158 733 q 186 628 158 670 q 272 573 215 585 q 405 881 290 762 q 677 1000 519 1000 q 970 879 869 1000 q 1071 548 1071 759 l 1071 475 l 408 475 l 406 472 q 487 195 403 302 q 742 88 571 88 q 867 104 815 88 q 970 145 919 119 l 1003 51 q 904 5 969 26 q 742 -16 838 -16 m 677 894 q 490 803 561 894 q 408 570 419 711 l 411 567 l 937 567 l 937 588 q 876 811 937 727 q 677 894 815 894 "},"Р":{"x_min":122.078125,"x_max":832.859375,"ha":890,"o":"m 255 396 l 255 0 l 122 0 l 122 988 l 499 988 q 745 906 657 988 q 832 692 832 825 q 745 476 832 556 q 499 396 657 396 l 255 396 m 255 500 l 499 500 q 649 554 600 500 q 699 690 699 608 q 649 827 699 772 q 499 882 599 882 l 255 882 l 255 500 "},"Ѿ":{"x_min":106.484375,"x_max":1112.96875,"ha":1219,"o":"m 318 1145 l 318 1219 l 874 1219 l 875 1145 l 651 1145 l 651 1059 l 530 1059 l 530 1145 l 318 1145 m 1112 988 l 1112 265 q 1034 57 1112 129 q 829 -14 956 -14 q 697 15 755 -14 q 608 103 640 45 q 514 15 573 45 q 377 -14 454 -14 q 181 57 255 -14 q 106 265 106 129 l 106 988 l 240 988 l 240 265 q 277 134 240 179 q 377 90 315 90 q 495 134 451 90 q 540 265 540 179 l 540 988 l 678 988 l 678 265 q 720 135 678 180 q 829 90 761 90 q 937 135 896 90 q 979 265 979 180 l 979 988 l 1112 988 "},"Ć":{"x_min":80.03125,"x_max":821.40625,"ha":880,"o":"m 819 316 l 821 312 q 723 79 824 173 q 458 -14 623 -14 q 185 104 290 -14 q 80 405 80 223 l 80 581 q 185 882 80 763 q 458 1002 290 1002 q 725 912 626 1002 q 821 676 824 823 l 819 672 l 691 672 q 630 836 691 776 q 458 896 569 896 q 280 806 346 896 q 213 582 213 716 l 213 405 q 280 180 213 270 q 458 90 346 90 q 630 150 569 90 q 691 316 691 210 l 819 316 m 524 1249 l 680 1249 l 681 1244 l 498 1068 l 398 1068 l 524 1249 "},"Т":{"x_min":23.0625,"x_max":790.8125,"ha":814,"o":"m 790 882 l 473 882 l 473 0 l 339 0 l 339 882 l 23 882 l 23 988 l 790 988 l 790 882 "},"£":{"x_min":47.46875,"x_max":753.5,"ha":810,"o":"m 291 416 l 295 315 q 285 199 295 254 q 255 104 274 144 l 753 104 l 752 0 l 90 0 l 90 104 l 97 104 q 146 179 130 113 q 162 315 162 246 l 158 416 l 47 416 l 47 522 l 154 522 l 147 705 q 223 922 147 843 q 427 1002 299 1002 q 637 931 562 1002 q 709 743 712 860 l 708 739 l 579 739 q 536 858 579 819 q 427 896 493 896 q 320 846 360 896 q 281 705 281 795 l 288 522 l 571 522 l 571 416 l 291 416 "},"ẹ":{"x_min":67.140625,"x_max":681.609375,"ha":735,"o":"m 401 -14 q 157 87 248 -14 q 67 352 67 189 l 67 382 q 160 642 67 538 q 381 747 253 747 q 605 657 529 747 q 681 419 681 568 l 681 336 l 205 336 l 203 332 q 257 158 205 226 q 401 90 308 90 q 520 109 469 90 q 609 163 571 129 l 661 76 q 557 11 621 37 q 401 -14 493 -14 m 381 641 q 266 585 314 641 q 208 443 219 529 l 209 440 l 548 440 l 548 458 q 505 589 548 536 q 381 641 463 641 m 462 -228 l 314 -228 l 314 -92 l 462 -92 l 462 -228 "},"ů":{"x_min":94.265625,"x_max":691.78125,"ha":789,"o":"m 562 108 q 474 17 528 49 q 348 -14 419 -14 q 161 62 228 -14 q 94 301 94 139 l 94 734 l 227 734 l 227 299 q 262 138 227 182 q 370 94 297 94 q 487 123 441 94 q 558 205 534 152 l 558 734 l 691 734 l 691 0 l 571 0 l 562 108 m 251 943 q 292 1039 251 1000 q 392 1077 333 1077 q 490 1039 449 1077 q 531 943 531 1001 q 490 848 531 885 q 392 812 450 812 q 292 848 333 812 q 251 943 251 885 m 321 943 q 342 893 321 914 q 392 873 363 873 q 441 893 420 873 q 461 943 461 913 q 441 995 461 974 q 392 1016 420 1016 q 342 995 363 1016 q 321 943 321 974 "},"Ō":{"x_min":76.640625,"x_max":869.484375,"ha":947,"o":"m 869 405 q 757 105 869 224 q 465 -14 644 -14 q 184 105 293 -14 q 76 405 76 224 l 76 581 q 184 881 76 761 q 465 1002 293 1002 q 757 882 644 1002 q 869 581 869 762 l 869 405 m 735 582 q 662 805 735 718 q 465 892 589 892 q 279 805 349 892 q 210 582 210 718 l 210 405 q 279 182 210 268 q 465 95 349 95 q 662 181 590 95 q 735 405 735 268 l 735 582 m 721 1126 l 232 1126 l 232 1225 l 721 1225 l 721 1126 "},"а":{"x_min":71.890625,"x_max":685.6875,"ha":764,"o":"m 548 0 q 537 58 541 33 q 533 109 533 84 q 435 21 495 56 q 306 -14 375 -14 q 131 44 191 -14 q 71 206 71 103 q 157 370 71 311 q 387 430 242 430 l 533 430 l 533 502 q 493 604 533 566 q 382 641 454 641 q 277 609 318 641 q 237 530 237 576 l 109 530 l 108 534 q 184 680 104 614 q 389 747 263 747 q 590 683 514 747 q 666 500 666 620 l 666 147 q 670 71 666 108 q 685 0 674 35 l 548 0 m 326 97 q 457 135 398 97 q 533 220 515 172 l 533 339 l 383 339 q 253 299 302 339 q 205 203 205 258 q 236 126 205 154 q 326 97 266 97 "},"Ğ":{"x_min":81.390625,"x_max":837.609375,"ha":947,"o":"m 837 131 q 715 31 802 76 q 489 -14 628 -14 q 197 99 312 -14 q 81 392 81 212 l 81 595 q 189 888 81 775 q 467 1002 297 1002 q 733 918 636 1002 q 832 703 830 835 l 831 699 l 704 699 q 638 841 697 785 q 467 896 579 896 q 284 812 354 896 q 215 597 215 727 l 215 392 q 292 175 215 260 q 489 90 370 90 q 627 112 573 90 q 704 163 680 135 l 704 387 l 487 387 l 487 493 l 837 493 l 837 131 m 652 1282 l 654 1278 q 601 1150 656 1200 q 453 1101 546 1101 q 305 1150 360 1101 q 253 1278 250 1200 l 255 1282 l 357 1282 q 380 1210 357 1238 q 453 1182 403 1182 q 526 1210 502 1182 q 550 1282 550 1238 l 652 1282 "},"ә":{"x_min":78.46875,"x_max":692.875,"ha":739,"o":"m 358 747 q 602 645 511 747 q 692 381 692 543 l 692 351 q 599 91 692 195 q 378 -13 506 -13 q 154 76 230 -13 q 78 314 78 165 l 78 397 l 554 397 l 556 401 q 502 575 554 507 q 358 643 451 643 q 239 624 290 643 q 151 570 188 604 l 98 657 q 202 722 138 696 q 358 747 267 747 m 378 92 q 493 148 446 92 q 551 290 540 204 l 550 293 l 212 293 l 212 275 q 254 144 212 197 q 378 92 296 92 "},"v":{"x_min":31.203125,"x_max":675.515625,"ha":699,"o":"m 341 216 l 353 164 l 357 164 l 370 216 l 539 734 l 675 734 l 405 0 l 304 0 l 31 734 l 168 734 l 341 216 "},"Ї":{"x_min":-35.703125,"x_max":431.59375,"ha":393,"o":"m 263 0 l 128 0 l 128 988 l 263 988 l 263 0 m 431 1089 l 283 1089 l 283 1224 l 431 1224 l 431 1089 m 112 1089 l -35 1089 l -35 1224 l 112 1224 l 112 1089 "},"Ѯ":{"x_min":50.1875,"x_max":632.109375,"ha":720,"o":"m 279 560 q 433 603 383 560 q 482 723 482 646 q 434 837 482 792 q 293 882 385 882 l 86 882 l 86 988 l 293 988 q 526 915 436 988 q 617 720 617 843 q 573 595 617 650 q 451 509 529 539 q 585 422 538 481 q 632 276 632 362 q 542 63 632 140 q 309 -14 452 -14 l 275 -14 q 200 -33 223 -14 q 177 -89 177 -53 q 208 -165 177 -137 q 284 -215 240 -194 l 231 -301 q 103 -213 155 -269 q 50 -82 50 -158 q 110 47 50 4 q 280 91 171 91 l 309 91 q 447 141 396 91 q 497 273 497 192 q 442 409 497 363 q 279 454 386 454 l 182 454 l 182 560 l 279 560 m 362 1192 l 462 1293 l 577 1293 l 577 1281 l 403 1114 l 322 1114 l 150 1279 l 150 1293 l 263 1293 l 362 1192 "},"û":{"x_min":94.265625,"x_max":691.78125,"ha":789,"o":"m 562 108 q 474 17 528 49 q 348 -14 419 -14 q 161 62 228 -14 q 94 301 94 139 l 94 734 l 227 734 l 227 299 q 262 138 227 182 q 370 94 297 94 q 487 123 441 94 q 558 205 534 152 l 558 734 l 691 734 l 691 0 l 571 0 l 562 108 m 602 869 l 602 853 l 493 853 l 393 953 l 294 853 l 185 853 l 185 870 l 352 1031 l 434 1031 l 602 869 "},"Ź":{"x_min":65.78125,"x_max":768.421875,"ha":831,"o":"m 216 104 l 768 104 l 768 0 l 65 0 l 65 99 l 593 882 l 73 882 l 73 988 l 746 988 l 746 892 l 216 104 m 477 1235 l 633 1235 l 634 1230 l 451 1054 l 351 1054 l 477 1235 "},"Ĺ":{"x_min":122.078125,"x_max":722.984375,"ha":750,"o":"m 255 104 l 722 104 l 722 0 l 122 0 l 122 988 l 255 988 l 255 104 m 251 1235 l 407 1235 l 408 1230 l 225 1054 l 125 1054 l 251 1235 "},"ỵ":{"x_min":17.640625,"x_max":678.21875,"ha":699,"o":"m 321 272 l 345 180 l 349 180 l 529 734 l 678 734 l 369 -112 q 289 -241 341 -186 q 149 -296 238 -296 q 108 -292 133 -296 q 69 -285 83 -288 l 83 -180 q 107 -181 79 -179 q 143 -183 135 -183 q 212 -145 185 -183 q 258 -61 240 -107 l 290 15 l 17 734 l 166 734 l 321 272 m 560 -334 l 412 -334 l 412 -198 l 560 -198 l 560 -334 "},"ӻ":{"x_min":45.015625,"x_max":629.609375,"ha":570,"o":"m 629 628 l 296 628 l 296 0 l 162 0 l 162 734 l 629 734 l 629 628 m 479 364 l 45 364 l 45 470 l 479 470 l 479 364 m 417 104 l 417 -59 q 359 -234 417 -173 q 197 -296 301 -296 q 159 -292 176 -296 q 122 -283 141 -289 l 131 -175 q 162 -181 141 -178 q 197 -183 184 -183 q 261 -151 238 -183 q 284 -59 284 -119 l 284 104 l 417 104 "},"Č":{"x_min":80.03125,"x_max":821.40625,"ha":880,"o":"m 819 316 l 821 312 q 723 79 824 173 q 458 -14 623 -14 q 185 104 290 -14 q 80 405 80 223 l 80 581 q 185 882 80 763 q 458 1002 290 1002 q 725 912 626 1002 q 821 676 824 823 l 819 672 l 691 672 q 630 836 691 776 q 458 896 569 896 q 280 806 346 896 q 213 582 213 716 l 213 405 q 280 180 213 270 q 458 90 346 90 q 630 150 569 90 q 691 316 691 210 l 819 316 m 459 1179 l 558 1279 l 674 1279 l 674 1267 l 499 1101 l 419 1101 l 246 1265 l 246 1279 l 359 1279 l 459 1179 "},"x":{"x_min":31.203125,"x_max":664.65625,"ha":699,"o":"m 345 463 l 501 734 l 657 734 l 419 371 l 664 0 l 511 0 l 348 277 l 185 0 l 31 0 l 276 371 l 37 734 l 191 734 l 345 463 "},"è":{"x_min":67.140625,"x_max":681.609375,"ha":735,"o":"m 401 -14 q 157 87 248 -14 q 67 352 67 189 l 67 382 q 160 642 67 538 q 381 747 253 747 q 605 657 529 747 q 681 419 681 568 l 681 336 l 205 336 l 203 332 q 257 158 205 226 q 401 90 308 90 q 520 109 469 90 q 609 163 571 129 l 661 76 q 557 11 621 37 q 401 -14 493 -14 m 381 641 q 266 585 314 641 q 208 443 219 529 l 209 440 l 548 440 l 548 458 q 505 589 548 536 q 381 641 463 641 m 434 840 l 327 840 l 157 1016 l 159 1020 l 315 1020 l 434 840 "},"Ń":{"x_min":122.078125,"x_max":868.796875,"ha":991,"o":"m 868 0 l 735 0 l 259 764 l 255 762 l 255 0 l 122 0 l 122 988 l 255 988 l 731 225 l 735 226 l 735 988 l 868 988 l 868 0 m 558 1235 l 714 1235 l 715 1230 l 532 1054 l 432 1054 l 558 1235 "},"ḿ":{"x_min":96.984375,"x_max":1117.03125,"ha":1214,"o":"m 216 734 l 225 637 q 317 718 261 689 q 445 747 372 747 q 571 713 518 747 q 650 611 623 679 q 741 710 685 673 q 874 747 798 747 q 1051 670 986 747 q 1117 438 1117 593 l 1117 0 l 983 0 l 983 439 q 946 593 983 548 q 834 638 908 638 q 724 591 766 638 q 674 471 681 543 l 674 465 l 674 0 l 539 0 l 539 439 q 501 590 539 542 q 391 638 463 638 q 290 613 330 638 q 230 542 251 588 l 230 0 l 96 0 l 96 734 l 216 734 m 685 1017 l 841 1017 l 842 1013 l 659 837 l 559 837 l 685 1017 "},"μ":{"x_min":103.765625,"x_max":685,"ha":789,"o":"m 236 734 l 236 298 q 275 134 238 177 q 381 90 313 90 q 488 114 447 90 q 551 186 529 139 l 551 734 l 685 734 l 685 0 l 564 0 l 558 73 q 485 8 529 30 q 386 -14 442 -14 q 300 -2 337 -14 q 236 32 263 8 l 236 -282 l 103 -282 l 103 734 l 236 734 "},".":{"x_min":109.1875,"x_max":242.796875,"ha":372,"o":"m 242 0 l 109 0 l 109 137 l 242 137 l 242 0 "},"Ѡ":{"x_min":106.484375,"x_max":1112.96875,"ha":1219,"o":"m 1112 988 l 1112 265 q 1034 57 1112 129 q 829 -14 956 -14 q 697 15 755 -14 q 608 103 640 45 q 514 15 573 45 q 377 -14 454 -14 q 181 57 255 -14 q 106 265 106 129 l 106 988 l 240 988 l 240 265 q 277 134 240 179 q 377 90 315 90 q 495 134 451 90 q 540 265 540 179 l 540 988 l 678 988 l 678 265 q 720 135 678 180 q 829 90 761 90 q 937 135 896 90 q 979 265 979 180 l 979 988 l 1112 988 "},"ӑ":{"x_min":71.890625,"x_max":685.6875,"ha":764,"o":"m 548 0 q 537 58 541 33 q 533 109 533 84 q 435 21 495 56 q 306 -14 375 -14 q 131 44 191 -14 q 71 206 71 103 q 157 370 71 311 q 387 430 242 430 l 533 430 l 533 502 q 493 604 533 566 q 382 641 454 641 q 277 609 318 641 q 237 530 237 576 l 109 530 l 108 534 q 184 680 104 614 q 389 747 263 747 q 590 683 514 747 q 666 500 666 620 l 666 147 q 670 71 666 108 q 685 0 674 35 l 548 0 m 326 97 q 457 135 398 97 q 533 220 515 172 l 533 339 l 383 339 q 253 299 302 339 q 205 203 205 258 q 236 126 205 154 q 326 97 266 97 m 575 1049 l 577 1045 q 524 917 579 967 q 376 868 469 868 q 228 917 283 868 q 176 1045 173 967 l 178 1049 l 280 1049 q 303 977 280 1005 q 376 949 326 949 q 449 977 425 949 q 473 1049 473 1005 l 575 1049 "},"‘":{"x_min":54.265625,"x_max":228.5625,"ha":284,"o":"m 54 816 l 162 1058 l 228 1058 l 187 812 l 187 691 l 54 691 l 54 816 "},"π":{"x_min":53.578125,"x_max":832.859375,"ha":828,"o":"m 758 628 l 674 628 l 674 182 q 692 113 674 132 q 741 94 710 94 q 774 99 758 94 q 803 112 790 104 l 832 21 q 772 -6 802 0 q 706 -14 741 -14 q 583 34 625 -14 q 541 189 541 82 l 541 628 l 273 628 l 273 0 l 139 0 l 139 628 l 53 628 l 53 734 l 758 734 l 758 628 "},"Ỏ":{"x_min":76.640625,"x_max":869.484375,"ha":947,"o":"m 869 405 q 757 105 869 224 q 465 -14 644 -14 q 184 105 293 -14 q 76 405 76 224 l 76 581 q 184 881 76 761 q 465 1002 293 1002 q 757 882 644 1002 q 869 581 869 762 l 869 405 m 735 582 q 662 805 735 718 q 465 892 589 892 q 279 805 349 892 q 210 582 210 718 l 210 405 q 279 182 210 268 q 465 95 349 95 q 662 181 590 95 q 735 405 735 268 l 735 582 m 428 1086 l 427 1190 q 501 1204 479 1193 q 523 1239 523 1214 q 493 1279 523 1266 q 414 1292 464 1292 l 419 1365 q 572 1330 519 1365 q 626 1237 626 1295 q 597 1165 626 1189 q 524 1134 568 1140 l 523 1086 l 428 1086 "},"Ѩ":{"x_min":141.75,"x_max":1207.234375,"ha":1224,"o":"m 276 408 l 535 408 l 744 988 l 858 988 l 1207 0 l 1070 0 l 969 297 l 860 297 l 860 0 l 727 0 l 727 297 l 627 297 l 524 0 l 387 0 l 495 297 l 276 297 l 276 0 l 141 0 l 141 988 l 276 988 l 276 408 m 666 408 l 931 408 l 802 790 l 798 790 l 666 408 "},"Ớ":{"x_min":73.25,"x_max":1041.078125,"ha":952,"o":"m 866 405 q 753 105 866 224 q 462 -14 641 -14 q 181 105 289 -14 q 73 405 73 224 l 73 581 q 181 881 73 761 q 462 1002 289 1002 q 613 974 543 1002 q 737 898 683 947 q 864 963 820 905 q 907 1121 907 1021 l 1041 1121 q 981 908 1041 990 q 811 801 921 826 q 851 697 837 753 q 866 581 866 640 l 866 405 m 732 582 q 659 805 732 718 q 462 892 585 892 q 276 805 345 892 q 206 582 206 718 l 206 405 q 276 182 206 268 q 462 95 345 95 q 659 181 586 95 q 732 405 732 268 l 732 582 m 540 1223 l 696 1223 l 697 1219 l 514 1043 l 414 1043 l 540 1223 "},"9":{"x_min":56.296875,"x_max":695.171875,"ha":782,"o":"m 346 90 q 502 164 444 90 q 561 383 561 238 l 561 428 q 478 355 528 380 q 367 331 428 331 q 140 419 224 331 q 56 663 56 508 q 145 907 56 812 q 362 1002 234 1002 q 605 905 516 1002 q 695 620 695 808 l 695 385 q 598 89 695 192 q 346 -14 501 -14 q 240 -4 294 -14 q 143 26 186 5 l 164 128 q 247 98 204 107 q 346 90 290 90 m 367 435 q 490 467 441 435 q 561 548 539 499 l 561 634 q 511 830 561 763 q 366 896 461 896 q 241 831 293 896 q 189 663 189 765 q 237 498 189 561 q 367 435 285 435 "},"l":{"x_min":107.84375,"x_max":241.453125,"ha":350,"o":"m 241 0 l 107 0 l 107 1058 l 241 1058 l 241 0 "},"Ẫ":{"x_min":13.5625,"x_max":885.765625,"ha":899,"o":"m 657 254 l 243 254 l 149 0 l 13 0 l 395 988 l 510 988 l 885 0 l 749 0 l 657 254 m 284 365 l 617 365 l 454 816 l 450 816 l 284 365 m 699 1063 l 697 1059 l 582 1059 l 449 1178 l 316 1059 l 201 1059 l 200 1063 l 396 1237 l 503 1237 l 699 1063 m 626 1406 q 593 1323 626 1360 q 515 1287 560 1287 q 441 1311 480 1287 q 377 1335 403 1335 q 339 1315 356 1335 q 322 1272 322 1295 l 267 1285 q 300 1369 267 1332 q 377 1407 332 1407 q 447 1384 406 1407 q 515 1360 489 1360 q 554 1379 536 1360 q 572 1422 572 1398 l 626 1406 "},"Ъ":{"x_min":14.921875,"x_max":995.625,"ha":1050,"o":"m 14 988 l 418 988 l 418 584 l 661 584 q 908 505 820 584 q 995 294 995 427 q 907 80 995 161 q 661 0 819 0 l 284 0 l 284 882 l 14 882 l 14 988 m 418 478 l 418 104 l 661 104 q 812 158 762 104 q 862 296 862 213 q 812 427 862 376 q 661 478 762 478 l 418 478 "}," ":{"x_min":0,"x_max":0,"ha":142},"Ś":{"x_min":69.078125,"x_max":793.515625,"ha":866,"o":"m 659 249 q 609 362 659 316 q 428 439 558 408 q 184 549 271 477 q 96 732 96 622 q 190 924 96 847 q 436 1002 285 1002 q 694 913 598 1002 q 786 706 790 824 l 785 702 l 657 702 q 600 843 657 789 q 436 896 543 896 q 283 851 336 896 q 229 734 229 806 q 287 626 229 669 q 474 550 345 583 q 712 437 630 512 q 793 250 793 361 q 695 58 793 131 q 440 -14 598 -14 q 179 66 293 -14 q 69 280 65 146 l 70 284 l 198 284 q 267 139 198 189 q 440 90 337 90 q 600 133 541 90 q 659 249 659 175 m 480 1249 l 636 1249 l 637 1244 l 454 1068 l 354 1068 l 480 1249 "},"Ü":{"x_min":99.703125,"x_max":843.703125,"ha":940,"o":"m 843 988 l 843 318 q 738 71 843 156 q 465 -14 634 -14 q 201 71 302 -14 q 99 318 99 157 l 99 988 l 233 988 l 233 318 q 297 148 233 206 q 465 90 360 90 q 642 148 575 90 q 710 318 710 206 l 710 988 l 843 988 m 706 1089 l 558 1089 l 558 1224 l 706 1224 l 706 1089 m 387 1089 l 239 1089 l 239 1224 l 387 1224 l 387 1089 "},"à":{"x_min":71.890625,"x_max":685.6875,"ha":764,"o":"m 548 0 q 537 58 541 33 q 533 109 533 84 q 435 21 495 56 q 306 -14 375 -14 q 131 44 191 -14 q 71 206 71 103 q 157 370 71 311 q 387 430 242 430 l 533 430 l 533 502 q 493 604 533 566 q 382 641 454 641 q 277 609 318 641 q 237 530 237 576 l 109 530 l 108 534 q 184 680 104 614 q 389 747 263 747 q 590 683 514 747 q 666 500 666 620 l 666 147 q 670 71 666 108 q 685 0 674 35 l 548 0 m 326 97 q 457 135 398 97 q 533 220 515 172 l 533 339 l 383 339 q 253 299 302 339 q 205 203 205 258 q 236 126 205 154 q 326 97 266 97 m 432 839 l 325 839 l 155 1015 l 157 1019 l 313 1019 l 432 839 "},"η":{"x_min":96.984375,"x_max":687.046875,"ha":789,"o":"m 216 734 l 225 632 q 316 717 261 687 q 438 747 370 747 q 622 680 558 747 q 687 463 687 614 l 687 -281 l 553 -281 l 553 460 q 514 599 553 557 q 397 641 476 641 q 298 619 339 641 q 230 555 256 596 l 230 0 l 96 0 l 96 734 l 216 734 "},"ó":{"x_min":65.78125,"x_max":722.984375,"ha":789,"o":"m 65 373 q 153 641 65 536 q 393 747 242 747 q 634 641 545 747 q 722 373 722 536 l 722 358 q 634 90 722 194 q 394 -14 546 -14 q 154 90 242 -14 q 65 358 65 195 l 65 373 m 199 358 q 248 166 199 242 q 394 90 297 90 q 539 166 490 90 q 589 358 589 242 l 589 373 q 539 565 589 488 q 393 641 489 641 q 248 565 297 641 q 199 373 199 488 l 199 358 m 459 1017 l 615 1017 l 616 1013 l 433 837 l 333 837 l 459 1017 "},"¦":{"x_min":98.34375,"x_max":231.953125,"ha":338,"o":"m 98 -183 l 98 353 l 231 353 l 231 -183 l 98 -183 m 231 473 l 98 473 l 98 988 l 231 988 l 231 473 "},"Ѣ":{"x_min":-34.59375,"x_max":821.328125,"ha":875,"o":"m 400 746 l 244 746 l 244 597 l 487 597 q 733 515 645 597 q 821 301 821 434 q 733 83 821 166 q 487 0 644 0 l 110 0 l 110 746 l -34 746 l -34 852 l 110 852 l 110 988 l 244 988 l 244 852 l 400 852 l 400 746 m 244 491 l 244 104 l 487 104 q 637 161 587 104 q 687 302 687 219 q 637 437 687 383 q 487 491 588 491 l 244 491 "},"Ӈ":{"x_min":122.078125,"x_max":868.796875,"ha":991,"o":"m 255 988 l 255 541 l 734 541 l 734 988 l 868 988 l 868 -59 q 810 -234 868 -173 q 647 -296 751 -296 q 608 -292 626 -296 q 571 -283 590 -289 l 580 -182 q 612 -188 589 -185 q 647 -190 635 -190 q 711 -155 688 -190 q 734 -60 734 -121 l 734 435 l 255 435 l 255 0 l 122 0 l 122 988 l 255 988 "},"Ỷ":{"x_min":13.5625,"x_max":834.21875,"ha":848,"o":"m 423 485 l 681 988 l 834 988 l 487 347 l 487 0 l 354 0 l 354 356 l 13 988 l 166 988 l 423 485 m 379 1072 l 378 1176 q 452 1190 430 1179 q 474 1225 474 1200 q 444 1265 474 1252 q 365 1278 415 1278 l 370 1351 q 523 1316 470 1351 q 577 1223 577 1281 q 548 1151 577 1175 q 475 1120 519 1126 l 474 1072 l 379 1072 "},"Ő":{"x_min":76.640625,"x_max":869.484375,"ha":947,"o":"m 869 405 q 757 105 869 224 q 465 -14 644 -14 q 184 105 293 -14 q 76 405 76 224 l 76 581 q 184 881 76 761 q 465 1002 293 1002 q 757 882 644 1002 q 869 581 869 762 l 869 405 m 735 582 q 662 805 735 718 q 465 892 589 892 q 279 805 349 892 q 210 582 210 718 l 210 405 q 279 182 210 268 q 465 95 349 95 q 662 181 590 95 q 735 405 735 268 l 735 582 m 659 1280 l 815 1280 l 817 1276 l 613 1100 l 497 1100 l 496 1103 l 659 1280 m 438 1280 l 581 1280 l 583 1277 l 420 1100 l 313 1100 l 438 1280 "},"ҁ":{"x_min":66.46875,"x_max":670.859375,"ha":745,"o":"m 460 -260 l 326 -260 l 326 -9 q 135 113 204 12 q 66 352 66 214 l 66 380 q 152 640 66 534 q 388 747 239 747 q 592 671 512 747 q 670 484 673 595 l 669 480 l 548 480 q 502 594 548 546 q 388 641 455 641 q 247 563 295 641 q 200 380 200 485 l 200 352 q 247 167 200 244 q 388 90 294 90 l 460 90 l 460 -260 "},"Ҧ":{"x_min":122.078125,"x_max":1354.40625,"ha":1424,"o":"m 870 565 l 947 565 q 1247 460 1140 565 q 1354 172 1354 356 q 1272 -100 1354 -5 q 1035 -193 1189 -195 l 1031 -191 l 1030 -95 q 1176 -26 1132 -95 q 1220 172 1220 43 q 1151 381 1219 309 q 947 453 1083 453 l 870 453 l 870 0 l 735 0 l 735 882 l 255 882 l 255 0 l 122 0 l 122 988 l 870 988 l 870 565 "},"Ž":{"x_min":65.78125,"x_max":768.421875,"ha":831,"o":"m 216 104 l 768 104 l 768 0 l 65 0 l 65 99 l 593 882 l 73 882 l 73 988 l 746 988 l 746 892 l 216 104 m 412 1164 l 511 1264 l 627 1264 l 627 1252 l 452 1086 l 372 1086 l 199 1250 l 199 1264 l 312 1264 l 412 1164 "},"е":{"x_min":67.140625,"x_max":681.609375,"ha":735,"o":"m 401 -14 q 157 87 248 -14 q 67 352 67 189 l 67 382 q 160 642 67 538 q 381 747 253 747 q 605 657 529 747 q 681 419 681 568 l 681 336 l 205 336 l 203 332 q 257 158 205 226 q 401 90 308 90 q 520 109 469 90 q 609 163 571 129 l 661 76 q 557 11 621 37 q 401 -14 493 -14 m 381 641 q 266 585 314 641 q 208 443 219 529 l 209 440 l 548 440 l 548 458 q 505 589 548 536 q 381 641 463 641 "},"Î":{"x_min":-10.03125,"x_max":406.40625,"ha":393,"o":"m 263 0 l 128 0 l 128 988 l 263 988 l 263 0 m 406 1102 l 406 1086 l 297 1086 l 197 1186 l 98 1086 l -10 1086 l -10 1103 l 156 1264 l 238 1264 l 406 1102 "},"e":{"x_min":67.140625,"x_max":681.609375,"ha":735,"o":"m 401 -14 q 157 87 248 -14 q 67 352 67 189 l 67 382 q 160 642 67 538 q 381 747 253 747 q 605 657 529 747 q 681 419 681 568 l 681 336 l 205 336 l 203 332 q 257 158 205 226 q 401 90 308 90 q 520 109 469 90 q 609 163 571 129 l 661 76 q 557 11 621 37 q 401 -14 493 -14 m 381 641 q 266 585 314 641 q 208 443 219 529 l 209 440 l 548 440 l 548 458 q 505 589 548 536 q 381 641 463 641 "},"ό":{"x_min":65.78125,"x_max":722.984375,"ha":789,"o":"m 65 373 q 153 641 65 536 q 393 747 242 747 q 634 641 545 747 q 722 373 722 536 l 722 358 q 634 90 722 194 q 394 -14 546 -14 q 154 90 242 -14 q 65 358 65 195 l 65 373 m 199 358 q 248 166 199 242 q 394 90 297 90 q 539 166 490 90 q 589 358 589 242 l 589 373 q 539 565 589 488 q 393 641 489 641 q 248 565 297 641 q 199 373 199 488 l 199 358 m 397 1124 l 538 1124 l 420 866 l 356 866 l 397 1124 "},"Ề":{"x_min":-13.96875,"x_max":777.25,"ha":812,"o":"m 708 457 l 255 457 l 255 104 l 777 104 l 777 0 l 122 0 l 122 988 l 769 988 l 769 882 l 255 882 l 255 563 l 708 563 l 708 457 m 675 1075 l 673 1071 l 538 1071 l 425 1177 l 312 1071 l 177 1071 l 176 1075 l 371 1249 l 479 1249 l 675 1075 m 223 1190 l 123 1190 l -13 1366 l 128 1366 l 223 1190 "},"Ĕ":{"x_min":122.078125,"x_max":777.25,"ha":812,"o":"m 708 457 l 255 457 l 255 104 l 777 104 l 777 0 l 122 0 l 122 988 l 769 988 l 769 882 l 255 882 l 255 563 l 708 563 l 708 457 m 625 1268 l 627 1264 q 574 1136 629 1186 q 426 1087 519 1087 q 278 1136 333 1087 q 226 1264 223 1186 l 228 1268 l 330 1268 q 353 1196 330 1224 q 426 1168 376 1168 q 499 1196 475 1168 q 523 1268 523 1224 l 625 1268 "},"ļ":{"x_min":74.5,"x_max":241.453125,"ha":350,"o":"m 241 0 l 107 0 l 107 1058 l 241 1058 l 241 0 m 223 -160 l 140 -321 l 74 -321 l 115 -154 l 115 -66 l 223 -66 l 223 -160 "},"ị":{"x_min":100.8125,"x_max":248.671875,"ha":350,"o":"m 241 0 l 107 0 l 107 734 l 241 734 l 241 0 m 241 921 l 107 921 l 107 1058 l 241 1058 l 241 921 m 248 -221 l 100 -221 l 100 -85 l 248 -85 l 248 -221 "}," ":{"x_min":0,"x_max":0,"ha":708},"Ѓ":{"x_min":122.078125,"x_max":727.734375,"ha":773,"o":"m 727 882 l 255 882 l 255 0 l 122 0 l 122 988 l 727 988 l 727 882 m 489 1235 l 645 1235 l 646 1230 l 463 1054 l 363 1054 l 489 1235 "},"Ѽ":{"x_min":106.484375,"x_max":1109.578125,"ha":1214,"o":"m 838 981 l 842 983 q 1034 907 960 985 q 1109 681 1109 829 l 1109 291 q 1034 64 1109 142 q 838 -14 959 -14 q 701 14 760 -14 q 607 101 641 43 q 513 14 573 43 q 377 -14 453 -14 q 181 64 255 -14 q 106 291 106 142 l 106 681 q 180 907 106 829 q 373 983 255 985 l 377 981 l 377 882 q 277 831 315 882 q 240 681 240 779 l 240 291 q 277 141 240 192 q 377 90 315 90 q 495 134 451 90 q 540 265 540 179 l 540 558 l 674 558 l 674 265 q 719 134 674 179 q 838 90 764 90 q 937 141 899 90 q 975 291 975 192 l 975 681 q 937 831 975 779 q 838 882 899 882 l 838 981 m 907 1191 l 907 1104 l 876 1104 q 686 1145 787 1104 q 556 1187 584 1187 q 502 1169 522 1187 q 482 1115 482 1150 l 482 1103 l 392 1103 l 392 1127 q 434 1238 392 1200 q 553 1275 476 1275 q 701 1233 602 1275 q 877 1191 800 1191 l 907 1191 m 578 894 l 524 938 l 563 1016 l 562 1111 l 690 1111 l 690 1028 l 578 894 "},"ò":{"x_min":65.78125,"x_max":722.984375,"ha":789,"o":"m 65 373 q 153 641 65 536 q 393 747 242 747 q 634 641 545 747 q 722 373 722 536 l 722 358 q 634 90 722 194 q 394 -14 546 -14 q 154 90 242 -14 q 65 358 65 195 l 65 373 m 199 358 q 248 166 199 242 q 394 90 297 90 q 539 166 490 90 q 589 358 589 242 l 589 373 q 539 565 589 488 q 393 641 489 641 q 248 565 297 641 q 199 373 199 488 l 199 358 m 451 839 l 344 839 l 174 1015 l 176 1019 l 332 1019 l 451 839 "},"^":{"x_min":41.375,"x_max":537.15625,"ha":581,"o":"m 165 494 l 41 494 l 244 988 l 335 988 l 537 494 l 414 494 l 301 779 l 290 826 l 286 826 l 276 779 l 165 494 "},"Ӑ":{"x_min":13.5625,"x_max":885.765625,"ha":899,"o":"m 657 254 l 243 254 l 149 0 l 13 0 l 395 988 l 510 988 l 885 0 l 749 0 l 657 254 m 284 365 l 617 365 l 454 816 l 450 816 l 284 365 m 648 1268 l 650 1264 q 597 1136 652 1186 q 449 1087 542 1087 q 301 1136 356 1087 q 249 1264 246 1186 l 251 1268 l 353 1268 q 376 1196 353 1224 q 449 1168 399 1168 q 522 1196 498 1168 q 546 1268 546 1224 l 648 1268 "},"к":{"x_min":103.765625,"x_max":738.578125,"ha":737,"o":"m 324 311 l 237 311 l 237 0 l 103 0 l 103 734 l 237 734 l 237 424 l 314 424 l 556 734 l 713 734 l 715 730 l 427 382 l 738 3 l 736 0 l 572 0 l 324 311 "},"￼":{"x_min":61.71875,"x_max":1376.796875,"ha":1424,"o":"m 559 317 q 516 210 559 251 q 404 169 472 169 q 290 210 333 169 q 246 317 246 251 l 246 393 q 290 500 246 458 q 402 542 333 542 q 515 500 472 542 q 559 393 559 458 l 559 317 m 604 171 l 604 543 l 732 543 q 838 517 800 543 q 876 441 876 492 q 861 394 876 415 q 819 362 846 373 q 870 330 851 354 q 888 276 888 306 q 852 197 888 224 q 754 171 817 171 l 604 171 m 497 393 q 471 466 497 439 q 402 493 446 493 q 334 466 359 493 q 309 393 309 439 l 309 317 q 334 244 309 270 q 404 217 359 217 q 472 244 446 217 q 497 317 497 270 l 497 393 m 1144 545 l 1206 545 l 1206 288 q 1170 203 1206 234 q 1079 172 1134 172 q 982 199 1018 172 q 950 279 946 226 l 952 283 l 1009 283 q 1027 236 1009 252 q 1079 221 1045 221 q 1125 239 1106 221 q 1144 288 1144 258 l 1144 545 m 61 -270 l 61 -56 l 138 -56 l 138 -193 l 271 -193 l 271 -270 l 61 -270 m 1166 -270 l 1166 -193 l 1301 -193 l 1301 -56 l 1376 -56 l 1376 -270 l 1166 -270 m 61 793 l 61 986 l 271 986 l 271 907 l 138 907 l 138 793 l 61 793 m 1166 907 l 1166 986 l 1376 986 l 1376 793 l 1301 793 l 1301 907 l 1166 907 m 669 336 l 669 221 l 754 221 q 806 236 788 221 q 824 278 824 251 q 807 319 824 303 q 758 336 790 335 l 754 336 l 669 336 m 895 907 l 895 986 l 1084 986 l 1084 907 l 895 907 m 625 907 l 625 986 l 813 986 l 813 907 l 625 907 m 354 907 l 354 986 l 541 986 l 541 907 l 354 907 m 895 -270 l 895 -193 l 1084 -193 l 1084 -270 l 895 -270 m 625 -270 l 625 -193 l 813 -193 l 813 -270 l 625 -270 m 354 -270 l 354 -193 l 541 -193 l 541 -270 l 354 -270 m 669 384 l 732 384 q 792 397 771 384 q 812 438 812 411 q 793 475 812 464 q 732 486 773 486 l 669 486 l 669 384 m 138 282 l 61 282 l 61 453 l 138 453 l 138 282 m 138 539 l 61 539 l 61 708 l 138 708 l 138 539 m 138 28 l 61 28 l 61 196 l 138 196 l 138 28 m 1376 282 l 1301 282 l 1301 453 l 1376 453 l 1376 282 m 1376 539 l 1301 539 l 1301 708 l 1376 708 l 1376 539 m 1376 28 l 1301 28 l 1301 196 l 1376 196 l 1376 28 "},"ѻ":{"x_min":65.78125,"x_max":722.984375,"ha":789,"o":"m 461 -80 l 328 -80 l 328 -9 q 153 90 222 9 q 65 358 65 195 l 65 373 q 153 641 65 536 q 328 742 221 723 l 328 817 l 461 817 l 461 741 q 634 642 567 722 q 722 373 722 536 l 722 358 q 634 90 722 194 q 461 -8 567 10 l 461 -80 m 199 358 q 248 166 199 242 q 328 100 278 118 l 328 170 l 461 170 l 461 101 q 539 166 509 119 q 589 358 589 242 l 589 373 q 539 565 589 488 q 461 629 509 611 l 461 566 l 328 566 l 328 631 q 248 565 279 613 q 199 373 199 488 l 199 358 "},"ū":{"x_min":94.265625,"x_max":691.78125,"ha":789,"o":"m 562 108 q 474 17 528 49 q 348 -14 419 -14 q 161 62 228 -14 q 94 301 94 139 l 94 734 l 227 734 l 227 299 q 262 138 227 182 q 370 94 297 94 q 487 123 441 94 q 558 205 534 152 l 558 734 l 691 734 l 691 0 l 571 0 l 562 108 m 641 881 l 152 881 l 152 980 l 641 980 l 641 881 "},"Ẅ":{"x_min":36.625,"x_max":1182.140625,"ha":1227,"o":"m 320 341 l 338 218 l 342 217 l 368 341 l 550 988 l 668 988 l 850 341 l 877 215 l 881 215 l 901 341 l 1048 988 l 1182 988 l 944 0 l 824 0 l 630 685 l 612 774 l 608 774 l 591 685 l 393 0 l 274 0 l 36 988 l 169 988 l 320 341 m 842 1089 l 694 1089 l 694 1224 l 842 1224 l 842 1089 m 523 1089 l 375 1089 l 375 1224 l 523 1224 l 523 1089 "},"ȷ":{"x_min":-46.125,"x_max":249.59375,"ha":355,"o":"m 249 734 l 249 -60 q 191 -234 249 -173 q 29 -296 132 -296 q -9 -292 8 -296 q -46 -283 -26 -289 l -36 -182 q -5 -188 -27 -185 q 29 -190 16 -190 q 92 -155 69 -190 q 115 -60 115 -121 l 115 734 l 249 734 "},"č":{"x_min":65.78125,"x_max":685.09375,"ha":737,"o":"m 395 90 q 512 131 461 90 q 562 232 562 172 l 682 232 l 684 228 q 599 59 687 133 q 395 -14 512 -14 q 150 90 235 -14 q 65 352 65 194 l 65 381 q 150 642 65 537 q 395 747 236 747 q 605 671 524 747 q 685 484 687 595 l 683 480 l 562 480 q 515 594 562 547 q 395 641 467 641 q 245 566 290 641 q 200 381 200 490 l 200 352 q 244 165 200 240 q 395 90 289 90 m 363 946 l 462 1046 l 578 1046 l 578 1034 l 403 868 l 323 868 l 150 1032 l 150 1046 l 263 1046 l 363 946 "},"’":{"x_min":54.265625,"x_max":228.5625,"ha":284,"o":"m 228 927 l 120 692 l 54 692 l 94 925 l 94 1058 l 228 1058 l 228 927 "},"Ν":{"x_min":122.078125,"x_max":868.796875,"ha":991,"o":"m 868 0 l 735 0 l 259 764 l 255 762 l 255 0 l 122 0 l 122 988 l 255 988 l 731 225 l 735 226 l 735 988 l 868 988 l 868 0 "},"-":{"x_min":23.734375,"x_max":356.0625,"ha":380,"o":"m 356 364 l 23 364 l 23 469 l 356 469 l 356 364 "},"Q":{"x_min":76.640625,"x_max":908.140625,"ha":947,"o":"m 869 405 q 835 227 869 309 q 740 88 801 145 l 908 -69 l 816 -157 l 629 17 q 550 -6 591 1 q 465 -14 509 -14 q 184 105 293 -14 q 76 405 76 224 l 76 581 q 184 881 76 761 q 465 1002 293 1002 q 757 882 644 1002 q 869 581 869 762 l 869 405 m 735 582 q 662 805 735 718 q 465 892 589 892 q 279 805 349 892 q 210 582 210 718 l 210 405 q 279 182 210 268 q 465 95 349 95 q 662 181 590 95 q 735 405 735 268 l 735 582 "},"ј":{"x_min":-44.765625,"x_max":250.9375,"ha":359,"o":"m 250 734 l 250 -60 q 192 -234 250 -173 q 30 -296 134 -296 q -7 -292 9 -296 q -44 -283 -25 -289 l -35 -178 q -8 -184 -25 -182 q 21 -186 9 -186 q 91 -156 65 -186 q 117 -60 117 -127 l 117 734 l 250 734 m 246 924 l 113 924 l 113 1058 l 246 1058 l 246 924 "},"Ҋ":{"x_min":122.078125,"x_max":979.640625,"ha":991,"o":"m 735 988 l 868 988 l 868 0 l 735 0 l 735 753 l 731 754 l 255 0 l 122 0 l 122 988 l 255 988 l 255 235 l 259 233 l 735 988 m 696 1268 l 698 1264 q 645 1136 700 1186 q 497 1087 590 1087 q 349 1136 404 1087 q 297 1264 294 1186 l 299 1268 l 401 1268 q 424 1196 401 1224 q 497 1168 447 1168 q 570 1196 546 1168 q 594 1268 594 1224 l 696 1268 m 979 6 l 877 -200 l 798 -200 l 846 13 l 846 124 l 979 124 l 979 6 "},"ě":{"x_min":67.140625,"x_max":681.609375,"ha":735,"o":"m 401 -14 q 157 87 248 -14 q 67 352 67 189 l 67 382 q 160 642 67 538 q 381 747 253 747 q 605 657 529 747 q 681 419 681 568 l 681 336 l 205 336 l 203 332 q 257 158 205 226 q 401 90 308 90 q 520 109 469 90 q 609 163 571 129 l 661 76 q 557 11 621 37 q 401 -14 493 -14 m 381 641 q 266 585 314 641 q 208 443 219 529 l 209 440 l 548 440 l 548 458 q 505 589 548 536 q 381 641 463 641 m 378 947 l 477 1047 l 593 1047 l 593 1035 l 418 869 l 338 869 l 165 1033 l 165 1047 l 278 1047 l 378 947 "},"œ":{"x_min":65.78125,"x_max":1209.265625,"ha":1257,"o":"m 929 -14 q 771 21 840 -14 q 658 122 702 57 q 548 21 615 57 q 394 -14 480 -14 q 154 90 242 -14 q 65 358 65 195 l 65 373 q 153 641 65 536 q 393 747 242 747 q 549 710 481 747 q 660 606 617 673 q 770 709 704 672 q 908 747 835 747 q 1133 657 1057 747 q 1209 419 1209 568 l 1209 336 l 733 336 l 731 332 q 784 158 733 226 q 929 90 836 90 q 1048 109 996 90 q 1136 163 1099 129 l 1188 76 q 1085 11 1149 37 q 929 -14 1020 -14 m 199 358 q 248 166 199 242 q 394 90 297 90 q 539 166 490 90 q 589 358 589 242 l 589 373 q 539 565 589 488 q 393 641 489 641 q 248 565 297 641 q 199 373 199 488 l 199 358 m 908 641 q 794 585 841 641 q 735 443 746 529 l 737 440 l 1075 440 l 1075 458 q 1033 589 1075 536 q 908 641 991 641 "},"Ộ":{"x_min":76.640625,"x_max":869.484375,"ha":947,"o":"m 869 405 q 757 105 869 224 q 465 -14 644 -14 q 184 105 293 -14 q 76 405 76 224 l 76 581 q 184 881 76 761 q 465 1002 293 1002 q 757 882 644 1002 q 869 581 869 762 l 869 405 m 735 582 q 662 805 735 718 q 465 892 589 892 q 279 805 349 892 q 210 582 210 718 l 210 405 q 279 182 210 268 q 465 95 349 95 q 662 181 590 95 q 735 405 735 268 l 735 582 m 682 1116 l 682 1100 l 573 1100 l 473 1200 l 374 1100 l 265 1100 l 265 1117 l 432 1278 l 514 1278 l 682 1116 m 547 -233 l 399 -233 l 399 -97 l 547 -97 l 547 -233 "},"Ậ":{"x_min":13.5625,"x_max":885.765625,"ha":899,"o":"m 657 254 l 243 254 l 149 0 l 13 0 l 395 988 l 510 988 l 885 0 l 749 0 l 657 254 m 284 365 l 617 365 l 454 816 l 450 816 l 284 365 m 657 1102 l 657 1086 l 548 1086 l 448 1186 l 349 1086 l 240 1086 l 240 1103 l 407 1264 l 489 1264 l 657 1102 m 523 -228 l 375 -228 l 375 -92 l 523 -92 l 523 -228 "},"ҏ":{"x_min":96.984375,"x_max":724.34375,"ha":789,"o":"m 722 339 q 652 91 722 187 l 724 12 l 645 -58 l 574 19 q 436 -14 515 -14 q 317 8 368 -14 q 230 76 266 31 l 230 -282 l 96 -282 l 96 734 l 211 734 l 223 643 q 312 720 259 693 q 434 747 365 747 q 646 638 571 747 q 722 353 722 530 l 722 339 m 588 353 q 539 558 588 477 q 394 638 490 638 q 296 612 337 638 q 230 540 255 586 l 230 186 q 296 115 255 141 q 396 90 337 90 q 490 113 451 90 l 417 194 l 495 265 l 560 194 q 588 339 588 255 l 588 353 "},"ӗ":{"x_min":67.140625,"x_max":681.609375,"ha":735,"o":"m 401 -14 q 157 87 248 -14 q 67 352 67 189 l 67 382 q 160 642 67 538 q 381 747 253 747 q 605 657 529 747 q 681 419 681 568 l 681 336 l 205 336 l 203 332 q 257 158 205 226 q 401 90 308 90 q 520 109 469 90 q 609 163 571 129 l 661 76 q 557 11 621 37 q 401 -14 493 -14 m 381 641 q 266 585 314 641 q 208 443 219 529 l 209 440 l 548 440 l 548 458 q 505 589 548 536 q 381 641 463 641 m 577 1050 l 579 1046 q 526 918 581 968 q 378 869 471 869 q 230 918 285 869 q 178 1046 175 968 l 180 1050 l 282 1050 q 305 978 282 1006 q 378 950 328 950 q 451 978 427 950 q 475 1050 475 1006 l 577 1050 "},"ҩ":{"x_min":73.25,"x_max":803.6875,"ha":840,"o":"m 803 -8 q 688 1 742 -8 q 585 30 633 11 q 501 -2 545 8 q 407 -14 456 -14 q 166 100 259 -14 q 73 386 73 214 l 73 425 q 139 655 73 564 q 308 742 205 745 l 312 741 l 312 638 q 235 579 263 638 q 206 426 206 519 l 206 386 q 261 177 206 259 q 407 95 315 95 q 437 96 422 95 q 465 102 451 98 q 369 229 402 156 q 336 388 336 302 l 336 458 q 395 667 336 586 q 552 748 453 748 q 710 661 651 748 q 770 444 770 575 l 770 373 q 748 231 770 297 q 685 114 725 165 q 740 103 710 107 q 803 100 770 100 l 803 -8 m 636 373 l 636 446 q 614 583 636 529 q 554 634 592 638 l 550 634 q 491 589 512 638 q 470 459 470 541 l 470 387 q 495 263 470 318 q 568 173 520 208 l 572 174 q 619 259 602 207 q 636 373 636 311 "},"#":{"x_min":47.46875,"x_max":804.375,"ha":865,"o":"m 482 278 l 309 278 l 255 0 l 153 0 l 207 278 l 47 278 l 47 373 l 226 373 l 272 608 l 99 608 l 99 705 l 291 705 l 347 988 l 449 988 l 394 705 l 567 705 l 622 988 l 725 988 l 669 705 l 804 705 l 804 608 l 651 608 l 604 373 l 753 373 l 753 278 l 585 278 l 531 0 l 428 0 l 482 278 m 328 373 l 501 373 l 548 608 l 375 608 l 328 373 "},"Џ":{"x_min":122.078125,"x_max":869.484375,"ha":992,"o":"m 122 988 l 255 988 l 255 104 l 735 104 l 735 988 l 869 988 l 869 0 l 567 0 l 567 -243 l 434 -243 l 434 0 l 122 0 l 122 988 "},"Ѥ":{"x_min":129.546875,"x_max":1138.0625,"ha":1246,"o":"m 263 565 l 396 565 l 396 581 q 502 882 396 763 q 775 1002 607 1002 q 1032 914 939 1002 q 1138 676 1125 827 l 1136 672 l 1008 672 q 937 838 992 780 q 775 896 882 896 q 596 806 663 896 q 530 582 530 716 l 530 565 l 895 565 l 895 459 l 530 459 l 530 405 q 596 180 530 270 q 775 90 663 90 q 937 148 883 90 q 1008 316 992 205 l 1136 316 l 1138 312 q 1030 77 1125 169 q 775 -14 936 -14 q 502 104 607 -14 q 396 405 396 223 l 396 459 l 263 459 l 263 0 l 129 0 l 129 988 l 263 988 l 263 565 "},"Å":{"x_min":13.5625,"x_max":885.765625,"ha":899,"o":"m 657 254 l 243 254 l 149 0 l 13 0 l 395 988 l 510 988 l 885 0 l 749 0 l 657 254 m 284 365 l 617 365 l 454 816 l 450 816 l 284 365 m 310 1176 q 351 1272 310 1233 q 451 1310 392 1310 q 549 1272 508 1310 q 590 1176 590 1234 q 549 1081 590 1118 q 451 1045 509 1045 q 351 1081 392 1045 q 310 1176 310 1118 m 380 1176 q 401 1126 380 1147 q 451 1106 422 1106 q 500 1126 479 1106 q 520 1176 520 1146 q 500 1228 520 1207 q 451 1249 479 1249 q 401 1228 422 1249 q 380 1176 380 1207 "},"ș":{"x_min":73.734375,"x_max":657.203125,"ha":726,"o":"m 523 194 q 490 267 523 238 q 362 316 456 295 q 161 395 229 345 q 94 531 94 445 q 170 683 94 620 q 368 747 246 747 q 572 681 496 747 q 644 521 647 615 l 642 517 l 515 517 q 475 603 515 565 q 368 641 434 641 q 262 610 297 641 q 227 535 227 579 q 258 467 227 492 q 382 422 288 442 q 589 341 521 392 q 657 204 657 290 q 578 46 657 106 q 371 -14 499 -14 q 150 57 231 -14 q 73 223 69 128 l 75 227 l 202 227 q 255 123 206 156 q 371 90 305 90 q 483 119 442 90 q 523 194 523 148 m 411 -173 l 328 -334 l 262 -334 l 303 -167 l 303 -79 l 411 -79 l 411 -173 "},"Ѵ":{"x_min":14.921875,"x_max":843.703125,"ha":878,"o":"m 394 259 l 416 177 l 420 177 l 442 259 l 614 805 q 692 955 647 910 q 809 1001 736 1001 l 843 1000 l 843 885 l 834 885 q 780 864 800 885 q 741 788 759 842 l 475 0 l 360 0 l 14 988 l 160 988 l 394 259 "},"Ә":{"x_min":60.359375,"x_max":890.5,"ha":966,"o":"m 416 1002 q 765 866 640 1002 q 890 510 890 731 l 890 477 q 771 124 890 262 q 482 -14 653 -14 q 168 105 276 -14 q 60 436 60 225 l 60 510 l 752 510 l 753 513 q 671 789 756 681 q 416 896 587 896 q 291 880 343 896 q 189 839 239 865 l 155 934 q 254 979 189 957 q 416 1002 319 1002 m 482 90 q 668 181 597 90 q 751 415 739 272 l 749 418 l 193 418 l 193 397 q 261 173 193 257 q 482 90 328 90 "},"¸":{"x_min":80.703125,"x_max":292.3125,"ha":345,"o":"m 198 0 l 189 -35 q 263 -70 233 -42 q 292 -152 292 -98 q 238 -256 292 -217 q 85 -295 185 -295 l 80 -221 q 159 -204 129 -221 q 189 -154 189 -187 q 164 -109 189 -122 q 81 -91 140 -96 l 103 0 l 198 0 "},"=":{"x_min":103.09375,"x_max":668.734375,"ha":782,"o":"m 668 558 l 103 558 l 103 669 l 668 669 l 668 558 m 668 275 l 103 275 l 103 387 l 668 387 l 668 275 "},"ạ":{"x_min":71.890625,"x_max":685.6875,"ha":764,"o":"m 548 0 q 537 58 541 33 q 533 109 533 84 q 435 21 495 56 q 306 -14 375 -14 q 131 44 191 -14 q 71 206 71 103 q 157 370 71 311 q 387 430 242 430 l 533 430 l 533 502 q 493 604 533 566 q 382 641 454 641 q 277 609 318 641 q 237 530 237 576 l 109 530 l 108 534 q 184 680 104 614 q 389 747 263 747 q 590 683 514 747 q 666 500 666 620 l 666 147 q 670 71 666 108 q 685 0 674 35 l 548 0 m 326 97 q 457 135 398 97 q 533 220 515 172 l 533 339 l 383 339 q 253 299 302 339 q 205 203 205 258 q 236 126 205 154 q 326 97 266 97 m 417 -228 l 269 -228 l 269 -92 l 417 -92 l 417 -228 "},"ρ":{"x_min":96.984375,"x_max":718.921875,"ha":789,"o":"m 718 339 q 644 82 718 179 q 436 -14 570 -14 q 319 6 370 -14 q 230 66 267 26 l 230 -282 l 96 -282 l 96 390 l 96 391 q 184 652 96 558 q 401 747 271 747 q 637 639 555 747 q 718 353 718 532 l 718 339 m 585 353 q 540 561 585 481 q 401 641 495 641 q 274 563 318 641 q 230 390 230 485 l 230 186 q 296 115 255 141 q 396 90 337 90 q 537 159 490 90 q 585 339 585 228 l 585 353 "},"Ћ":{"x_min":44.765625,"x_max":1015.984375,"ha":1133,"o":"m 812 882 l 454 882 l 454 588 q 559 609 505 602 q 684 616 613 616 q 931 544 847 616 q 1015 312 1015 472 l 1015 0 l 882 0 l 882 312 q 835 466 882 423 q 684 510 788 510 q 566 502 623 510 q 454 481 510 495 l 454 0 l 320 0 l 320 882 l 44 882 l 44 988 l 812 988 l 812 882 "},"ú":{"x_min":94.265625,"x_max":691.78125,"ha":789,"o":"m 562 108 q 474 17 528 49 q 348 -14 419 -14 q 161 62 228 -14 q 94 301 94 139 l 94 734 l 227 734 l 227 299 q 262 138 227 182 q 370 94 297 94 q 487 123 441 94 q 558 205 534 152 l 558 734 l 691 734 l 691 0 l 571 0 l 562 108 m 457 1002 l 613 1002 l 614 998 l 431 822 l 331 822 l 457 1002 "},"д":{"x_min":31.203125,"x_max":803.015625,"ha":846,"o":"m 88 104 q 174 240 145 169 q 215 457 204 311 l 225 734 l 705 734 l 705 104 l 803 104 l 790 -216 l 669 -216 l 669 0 l 164 0 l 164 -216 l 44 -216 l 31 104 l 88 104 m 348 457 q 313 249 341 335 q 242 104 286 163 l 571 104 l 571 615 l 354 615 l 348 457 "},"ӥ":{"x_min":96.984375,"x_max":691.78125,"ha":789,"o":"m 558 734 l 691 734 l 691 0 l 558 0 l 558 521 l 554 522 l 229 0 l 96 0 l 96 734 l 229 734 l 229 212 l 233 211 l 558 734 m 627 856 l 479 856 l 479 991 l 627 991 l 627 856 m 308 856 l 160 856 l 160 991 l 308 991 l 308 856 "},"¯":{"x_min":83.421875,"x_max":572.421875,"ha":644,"o":"m 572 888 l 83 888 l 83 987 l 572 987 l 572 888 "},"":{"x_min":68.5,"x_max":217.03125,"ha":353,"o":"m 217 70 l 134 -90 l 68 -90 l 109 76 l 109 165 l 217 165 l 217 70 "},"u":{"x_min":94.265625,"x_max":691.78125,"ha":789,"o":"m 562 108 q 474 17 528 49 q 348 -14 419 -14 q 161 62 228 -14 q 94 301 94 139 l 94 734 l 227 734 l 227 299 q 262 138 227 182 q 370 94 297 94 q 487 123 441 94 q 558 205 534 152 l 558 734 l 691 734 l 691 0 l 571 0 l 562 108 "},"З":{"x_min":84.6875,"x_max":845.75,"ha":939,"o":"m 830 720 q 784 595 830 651 q 657 506 738 538 q 797 419 748 478 q 845 275 845 360 q 737 62 845 139 q 454 -14 629 -14 q 191 58 301 -14 q 84 270 81 131 l 86 274 l 213 274 q 280 143 213 196 q 454 90 347 90 q 643 140 575 90 q 712 272 712 191 q 649 406 712 362 q 465 450 587 450 l 341 450 l 341 556 l 465 556 q 640 600 583 556 q 697 723 697 645 q 635 847 697 799 q 454 896 574 896 q 293 848 358 896 q 227 729 227 800 l 100 729 l 99 733 q 199 927 95 852 q 454 1002 302 1002 q 729 928 628 1002 q 830 720 830 855 "},"Α":{"x_min":13.5625,"x_max":885.765625,"ha":899,"o":"m 657 254 l 243 254 l 149 0 l 13 0 l 395 988 l 510 988 l 885 0 l 749 0 l 657 254 m 284 365 l 617 365 l 454 816 l 450 816 l 284 365 "},"ẻ":{"x_min":67.140625,"x_max":681.609375,"ha":735,"o":"m 401 -14 q 157 87 248 -14 q 67 352 67 189 l 67 382 q 160 642 67 538 q 381 747 253 747 q 605 657 529 747 q 681 419 681 568 l 681 336 l 205 336 l 203 332 q 257 158 205 226 q 401 90 308 90 q 520 109 469 90 q 609 163 571 129 l 661 76 q 557 11 621 37 q 401 -14 493 -14 m 381 641 q 266 585 314 641 q 208 443 219 529 l 209 440 l 548 440 l 548 458 q 505 589 548 536 q 381 641 463 641 m 333 855 l 332 959 q 406 973 384 962 q 428 1008 428 983 q 398 1048 428 1035 q 319 1061 369 1061 l 324 1134 q 477 1099 424 1134 q 531 1006 531 1064 q 502 934 531 958 q 429 903 473 909 l 428 855 l 333 855 "},"ẵ":{"x_min":71.890625,"x_max":685.6875,"ha":764,"o":"m 548 0 q 537 58 541 33 q 533 109 533 84 q 435 21 495 56 q 306 -14 375 -14 q 131 44 191 -14 q 71 206 71 103 q 157 370 71 311 q 387 430 242 430 l 533 430 l 533 502 q 493 604 533 566 q 382 641 454 641 q 277 609 318 641 q 237 530 237 576 l 109 530 l 108 534 q 184 680 104 614 q 389 747 263 747 q 590 683 514 747 q 666 500 666 620 l 666 147 q 670 71 666 108 q 685 0 674 35 l 548 0 m 326 97 q 457 135 398 97 q 533 220 515 172 l 533 339 l 383 339 q 253 299 302 339 q 205 203 205 258 q 236 126 205 154 q 326 97 266 97 m 566 997 l 568 993 q 518 892 572 931 q 371 853 463 853 q 224 892 278 853 q 174 993 169 931 l 175 997 l 275 997 q 298 940 275 962 q 371 918 321 918 q 443 940 419 918 q 466 997 466 962 l 566 997 m 566 1179 q 534 1092 566 1128 q 454 1055 502 1055 q 372 1081 415 1055 q 303 1107 330 1107 q 264 1089 280 1107 q 249 1046 249 1072 l 189 1061 q 221 1149 189 1111 q 303 1186 253 1186 q 379 1160 333 1186 q 454 1135 425 1135 q 492 1152 476 1135 q 508 1195 508 1169 l 566 1179 "},"ữ":{"x_min":94.265625,"x_max":938.046875,"ha":817,"o":"m 935 832 l 937 827 q 879 642 940 707 q 691 568 819 577 l 691 0 l 571 0 l 562 108 q 474 17 528 49 q 348 -14 419 -14 q 161 62 228 -14 q 94 301 94 139 l 94 734 l 227 734 l 227 299 q 262 138 227 182 q 370 94 297 94 q 487 123 441 94 q 558 205 534 152 l 558 734 l 691 734 l 691 656 l 695 655 q 792 703 763 659 q 821 832 821 746 l 935 832 m 628 1017 q 587 910 628 954 q 486 866 547 866 q 386 897 438 866 q 299 929 333 929 q 250 907 270 929 q 230 853 230 885 l 157 871 q 197 980 157 934 q 299 1027 237 1027 q 394 995 337 1027 q 486 963 451 963 q 534 985 514 963 q 555 1039 555 1007 l 628 1017 "},"é":{"x_min":67.140625,"x_max":681.609375,"ha":735,"o":"m 401 -14 q 157 87 248 -14 q 67 352 67 189 l 67 382 q 160 642 67 538 q 381 747 253 747 q 605 657 529 747 q 681 419 681 568 l 681 336 l 205 336 l 203 332 q 257 158 205 226 q 401 90 308 90 q 520 109 469 90 q 609 163 571 129 l 661 76 q 557 11 621 37 q 401 -14 493 -14 m 381 641 q 266 585 314 641 q 208 443 219 529 l 209 440 l 548 440 l 548 458 q 505 589 548 536 q 381 641 463 641 m 443 1017 l 599 1017 l 600 1013 l 417 837 l 317 837 l 443 1017 "},"Ş":{"x_min":69.078125,"x_max":793.515625,"ha":866,"o":"m 659 249 q 609 362 659 316 q 428 439 558 408 q 184 549 271 477 q 96 732 96 622 q 190 924 96 847 q 436 1002 285 1002 q 694 913 598 1002 q 786 706 790 824 l 785 702 l 657 702 q 600 843 657 789 q 436 896 543 896 q 283 851 336 896 q 229 734 229 806 q 287 626 229 669 q 474 550 345 583 q 712 437 630 512 q 793 250 793 361 q 695 58 793 131 q 440 -14 598 -14 q 179 66 293 -14 q 69 280 65 146 l 70 284 l 198 284 q 267 139 198 189 q 440 90 337 90 q 600 133 541 90 q 659 249 659 175 m 467 -4 l 458 -40 q 532 -75 502 -47 q 561 -157 561 -103 q 507 -261 561 -222 q 354 -300 454 -300 l 349 -226 q 428 -209 398 -226 q 458 -159 458 -192 q 433 -114 458 -127 q 350 -96 409 -101 l 372 -4 l 467 -4 "},"B":{"x_min":122.078125,"x_max":813.1875,"ha":888,"o":"m 122 0 l 122 988 l 444 988 q 686 921 598 988 q 773 720 773 854 q 731 602 773 654 q 621 525 689 551 q 761 438 710 506 q 813 278 813 369 q 725 71 813 143 q 486 0 637 0 l 122 0 m 255 463 l 255 104 l 486 104 q 628 149 577 104 q 679 277 679 194 q 637 413 679 364 q 506 463 594 463 l 255 463 m 255 568 l 472 568 q 593 609 546 568 q 640 723 640 650 q 589 843 640 803 q 444 882 539 882 l 255 882 l 255 568 "},"…":{"x_min":109.1875,"x_max":827.796875,"ha":936,"o":"m 242 0 l 109 0 l 109 137 l 242 137 l 242 0 m 542 0 l 409 0 l 409 137 l 542 137 l 542 0 m 827 0 l 694 0 l 694 137 l 827 137 l 827 0 "},"Ủ":{"x_min":99.703125,"x_max":843.703125,"ha":940,"o":"m 843 988 l 843 318 q 738 71 843 156 q 465 -14 634 -14 q 201 71 302 -14 q 99 318 99 157 l 99 988 l 233 988 l 233 318 q 297 148 233 206 q 465 90 360 90 q 642 148 575 90 q 710 318 710 206 l 710 988 l 843 988 m 428 1072 l 427 1176 q 501 1190 479 1179 q 523 1225 523 1200 q 493 1265 523 1252 q 414 1278 464 1278 l 419 1351 q 572 1316 519 1351 q 626 1223 626 1281 q 597 1151 626 1175 q 524 1120 568 1126 l 523 1072 l 428 1072 "},"H":{"x_min":122.078125,"x_max":868.796875,"ha":991,"o":"m 868 0 l 735 0 l 735 435 l 255 435 l 255 0 l 122 0 l 122 988 l 255 988 l 255 541 l 735 541 l 735 988 l 868 988 l 868 0 "},"î":{"x_min":-35.03125,"x_max":381.40625,"ha":349,"o":"m 237 0 l 103 0 l 103 734 l 237 734 l 237 0 m 381 869 l 381 853 l 272 853 l 172 953 l 73 853 l -35 853 l -35 870 l 131 1031 l 213 1031 l 381 869 "},"ν":{"x_min":31.203125,"x_max":675.515625,"ha":699,"o":"m 341 216 l 353 164 l 357 164 l 370 216 l 539 734 l 675 734 l 405 0 l 304 0 l 31 734 l 168 734 l 341 216 "},"ư":{"x_min":94.265625,"x_max":938.046875,"ha":817,"o":"m 935 832 l 937 827 q 879 642 940 707 q 691 568 819 577 l 691 0 l 571 0 l 562 108 q 474 17 528 49 q 348 -14 419 -14 q 161 62 228 -14 q 94 301 94 139 l 94 734 l 227 734 l 227 299 q 262 138 227 182 q 370 94 297 94 q 487 123 441 94 q 558 205 534 152 l 558 734 l 691 734 l 691 656 l 695 655 q 792 703 763 659 q 821 832 821 746 l 935 832 "},"Ό":{"x_min":46.25,"x_max":883.484375,"ha":960,"o":"m 883 405 q 771 105 883 224 q 479 -14 658 -14 q 198 105 307 -14 q 90 405 90 224 l 90 581 q 198 881 90 761 q 479 1002 307 1002 q 771 882 658 1002 q 883 581 883 762 l 883 405 m 749 582 q 676 805 749 718 q 479 892 603 892 q 293 805 363 892 q 224 582 224 718 l 224 405 q 293 182 224 268 q 479 95 363 95 q 676 181 604 95 q 749 405 749 268 l 749 582 m 87 1119 l 228 1119 l 110 861 l 46 861 l 87 1119 "},"ӎ":{"x_min":103.765625,"x_max":1036.640625,"ha":1036,"o":"m 514 174 l 518 174 l 758 734 l 925 734 l 925 0 l 792 0 l 792 509 l 788 510 l 562 0 l 470 0 l 241 522 l 237 521 l 237 0 l 103 0 l 103 734 l 276 734 l 514 174 m 1036 6 l 934 -200 l 855 -200 l 903 13 l 903 124 l 1036 124 l 1036 6 "},"҉":{"x_min":52.21875,"x_max":1311,"ha":1362,"o":"m 748 -40 l 756 -50 l 673 -280 l 608 -280 l 655 -40 l 748 -40 m 616 763 l 608 772 l 691 1002 l 756 1002 l 708 763 l 616 763 m 1076 427 l 1085 436 l 1311 351 l 1311 285 l 1076 333 l 1076 427 m 286 293 l 278 285 l 52 369 l 52 436 l 286 387 l 286 293 m 913 679 l 914 690 l 1132 794 l 1178 747 q 979 612 1153 732 l 913 679 m 449 14 l 448 2 l 231 -101 l 184 -54 l 383 81 l 449 14 m 354 583 l 343 585 l 242 806 l 286 853 l 421 650 l 354 583 m 1007 108 l 1018 107 l 1119 -112 l 1074 -161 l 941 41 l 1007 108 "},"ǰ":{"x_min":-46.125,"x_max":399.234375,"ha":355,"o":"m 249 734 l 249 -60 q 191 -234 249 -173 q 29 -296 132 -296 q -9 -292 8 -296 q -46 -283 -26 -289 l -36 -182 q -5 -188 -27 -185 q 29 -190 16 -190 q 92 -155 69 -190 q 115 -60 115 -121 l 115 734 l 249 734 m 184 920 l 283 1020 l 399 1020 l 399 1008 l 224 842 l 144 842 l -28 1006 l -28 1020 l 84 1020 l 184 920 "},"ā":{"x_min":71.890625,"x_max":685.6875,"ha":764,"o":"m 548 0 q 537 58 541 33 q 533 109 533 84 q 435 21 495 56 q 306 -14 375 -14 q 131 44 191 -14 q 71 206 71 103 q 157 370 71 311 q 387 430 242 430 l 533 430 l 533 502 q 493 604 533 566 q 382 641 454 641 q 277 609 318 641 q 237 530 237 576 l 109 530 l 108 534 q 184 680 104 614 q 389 747 263 747 q 590 683 514 747 q 666 500 666 620 l 666 147 q 670 71 666 108 q 685 0 674 35 l 548 0 m 326 97 q 457 135 398 97 q 533 220 515 172 l 533 339 l 383 339 q 253 299 302 339 q 205 203 205 258 q 236 126 205 154 q 326 97 266 97 m 624 893 l 135 893 l 135 992 l 624 992 l 624 893 "},"ĵ":{"x_min":-46.125,"x_max":393.40625,"ha":355,"o":"m 249 734 l 249 -60 q 191 -234 249 -173 q 29 -296 132 -296 q -9 -292 8 -296 q -46 -283 -26 -289 l -36 -182 q -5 -188 -27 -185 q 29 -190 16 -190 q 92 -155 69 -190 q 115 -60 115 -121 l 115 734 l 249 734 m 393 857 l 393 841 l 284 841 l 184 941 l 85 841 l -23 841 l -23 858 l 143 1019 l 225 1019 l 393 857 "},"ҵ":{"x_min":21.703125,"x_max":887.796875,"ha":968,"o":"m 203 629 l 21 629 l 21 735 l 501 735 l 501 629 l 337 629 l 337 104 l 664 104 l 664 734 l 798 734 l 798 104 l 887 104 l 887 -240 l 754 -240 l 754 0 l 203 0 l 203 629 "},"ӭ":{"x_min":70.390625,"x_max":674.828125,"ha":747,"o":"m 352 641 q 241 600 290 641 q 193 500 193 559 l 72 500 l 71 504 q 153 672 67 598 q 352 747 240 747 q 588 640 501 747 q 674 381 674 534 l 674 352 q 588 92 674 198 q 352 -14 501 -14 q 147 61 228 -14 q 70 247 67 137 l 71 251 l 193 251 q 239 137 193 184 q 352 90 284 90 q 484 156 438 90 q 537 318 531 223 l 535 321 l 274 321 l 274 426 l 533 426 l 535 429 q 481 579 528 518 q 352 641 435 641 m 604 870 l 456 870 l 456 1005 l 604 1005 l 604 870 m 285 870 l 137 870 l 137 1005 l 285 1005 l 285 870 "},"Ĩ":{"x_min":-38.4375,"x_max":432.25,"ha":393,"o":"m 263 0 l 128 0 l 128 988 l 263 988 l 263 0 m 432 1249 q 391 1142 432 1186 q 290 1098 351 1098 q 190 1129 242 1098 q 103 1161 137 1161 q 54 1139 74 1161 q 34 1085 34 1117 l -38 1103 q 1 1212 -38 1166 q 103 1259 41 1259 q 198 1227 141 1259 q 290 1195 255 1195 q 338 1217 318 1195 q 359 1271 359 1239 l 432 1249 "},"*":{"x_min":18.984375,"x_max":579.875,"ha":600,"o":"m 219 666 l 18 726 l 52 831 l 252 755 l 246 988 l 355 988 l 348 751 l 547 826 l 579 720 l 375 660 l 505 476 l 417 411 l 294 606 l 174 417 l 85 480 l 219 666 "},"ă":{"x_min":71.890625,"x_max":685.6875,"ha":764,"o":"m 548 0 q 537 58 541 33 q 533 109 533 84 q 435 21 495 56 q 306 -14 375 -14 q 131 44 191 -14 q 71 206 71 103 q 157 370 71 311 q 387 430 242 430 l 533 430 l 533 502 q 493 604 533 566 q 382 641 454 641 q 277 609 318 641 q 237 530 237 576 l 109 530 l 108 534 q 184 680 104 614 q 389 747 263 747 q 590 683 514 747 q 666 500 666 620 l 666 147 q 670 71 666 108 q 685 0 674 35 l 548 0 m 326 97 q 457 135 398 97 q 533 220 515 172 l 533 339 l 383 339 q 253 299 302 339 q 205 203 205 258 q 236 126 205 154 q 326 97 266 97 m 575 1049 l 577 1045 q 524 917 579 967 q 376 868 469 868 q 228 917 283 868 q 176 1045 173 967 l 178 1049 l 280 1049 q 303 977 280 1005 q 376 949 326 949 q 449 977 425 949 q 473 1049 473 1005 l 575 1049 "},"Χ":{"x_min":44.765625,"x_max":839.640625,"ha":878,"o":"m 440 602 l 671 988 l 832 988 l 519 498 l 839 0 l 680 0 l 443 392 l 206 0 l 44 0 l 364 498 l 51 988 l 211 988 l 440 602 "},"†":{"x_min":47.46875,"x_max":718.921875,"ha":766,"o":"m 718 628 l 448 628 l 448 0 l 314 0 l 314 628 l 47 628 l 47 734 l 314 734 l 314 988 l 448 988 l 448 734 l 718 734 l 718 628 "},"°":{"x_min":86.8125,"x_max":432.03125,"ha":517,"o":"m 86 824 q 138 949 86 896 q 261 1002 189 1002 q 381 949 330 1002 q 432 824 432 896 q 381 701 432 751 q 261 650 331 650 q 138 701 189 650 q 86 824 86 751 m 175 824 q 200 763 175 787 q 261 738 225 738 q 320 763 296 738 q 344 824 344 787 q 320 887 344 862 q 261 913 295 913 q 200 887 225 913 q 175 824 175 862 "},"Ξ":{"x_min":83.421875,"x_max":718.921875,"ha":796,"o":"m 83 104 l 718 104 l 718 0 l 83 0 l 83 104 m 139 565 l 655 565 l 655 459 l 139 459 l 139 565 m 84 988 l 710 988 l 710 882 l 84 882 l 84 988 "},"ồ":{"x_min":-44.96875,"x_max":722.984375,"ha":789,"o":"m 65 373 q 153 641 65 536 q 393 747 242 747 q 634 641 545 747 q 722 373 722 536 l 722 358 q 634 90 722 194 q 394 -14 546 -14 q 154 90 242 -14 q 65 358 65 195 l 65 373 m 199 358 q 248 166 199 242 q 394 90 297 90 q 539 166 490 90 q 589 358 589 242 l 589 373 q 539 565 589 488 q 393 641 489 641 q 248 565 297 641 q 199 373 199 488 l 199 358 m 644 857 l 642 853 l 507 853 l 394 959 l 281 853 l 146 853 l 145 857 l 340 1031 l 448 1031 l 644 857 m 192 972 l 92 972 l -44 1148 l 97 1148 l 192 972 "},"Ķ":{"x_min":122.078125,"x_max":889.828125,"ha":893,"o":"m 370 445 l 255 445 l 255 0 l 122 0 l 122 988 l 255 988 l 255 551 l 358 551 l 712 988 l 859 988 l 862 984 l 478 510 l 889 3 l 887 0 l 728 0 l 370 445 m 479 -162 l 396 -323 l 330 -323 l 371 -156 l 371 -68 l 479 -68 l 479 -162 "},"ŵ":{"x_min":30.515625,"x_max":1017.328125,"ha":1051,"o":"m 284 267 l 300 178 l 304 178 l 323 267 l 470 734 l 577 734 l 724 267 l 745 168 l 749 168 l 769 267 l 884 734 l 1017 734 l 804 0 l 696 0 l 554 447 l 524 571 l 520 571 l 491 447 l 351 0 l 243 0 l 30 734 l 163 734 l 284 267 m 733 869 l 733 853 l 624 853 l 524 953 l 425 853 l 316 853 l 316 870 l 483 1031 l 565 1031 l 733 869 "},"΄":{"x_min":132.25,"x_max":314.703125,"ha":357,"o":"m 173 1119 l 314 1119 l 196 861 l 132 861 l 173 1119 "},"ǽ":{"x_min":39.34375,"x_max":1125.84375,"ha":1173,"o":"m 855 -14 q 693 18 763 -14 q 577 112 622 51 q 464 22 539 59 q 280 -14 388 -14 q 102 45 164 -14 q 39 206 39 104 q 117 372 39 313 q 344 430 195 430 l 499 430 l 499 488 q 464 600 499 560 q 363 641 430 641 q 252 604 293 641 q 210 514 210 567 l 83 527 l 82 531 q 156 685 78 624 q 363 747 233 747 q 500 719 440 747 q 593 639 559 692 q 696 718 636 690 q 824 747 755 747 q 1047 658 969 747 q 1125 416 1125 570 l 1125 336 l 644 336 l 643 332 q 697 157 644 224 q 855 90 750 90 q 970 109 925 90 q 1068 162 1015 127 l 1114 68 q 1014 12 1078 38 q 855 -14 950 -14 m 306 90 q 414 119 358 90 q 499 188 470 149 l 499 334 l 345 334 q 218 296 264 334 q 172 203 172 258 q 206 121 172 153 q 306 90 240 90 m 824 641 q 700 584 747 641 q 646 437 653 527 l 647 434 l 992 434 l 992 455 q 951 589 992 537 q 824 641 910 641 m 647 1017 l 803 1017 l 804 1013 l 621 837 l 521 837 l 647 1017 "},"Β":{"x_min":122.078125,"x_max":813.1875,"ha":888,"o":"m 122 0 l 122 988 l 444 988 q 686 921 598 988 q 773 720 773 854 q 731 602 773 654 q 621 525 689 551 q 761 438 710 506 q 813 278 813 369 q 725 71 813 143 q 486 0 637 0 l 122 0 m 255 463 l 255 104 l 486 104 q 628 149 577 104 q 679 277 679 194 q 637 413 679 364 q 506 463 594 463 l 255 463 m 255 568 l 472 568 q 593 609 546 568 q 640 723 640 650 q 589 843 640 803 q 444 882 539 882 l 255 882 l 255 568 "},"Ļ":{"x_min":122.078125,"x_max":722.984375,"ha":750,"o":"m 255 104 l 722 104 l 722 0 l 122 0 l 122 988 l 255 988 l 255 104 m 474 -160 l 391 -321 l 325 -321 l 366 -154 l 366 -66 l 474 -66 l 474 -160 "},"Õ":{"x_min":76.640625,"x_max":869.484375,"ha":947,"o":"m 869 405 q 757 105 869 224 q 465 -14 644 -14 q 184 105 293 -14 q 76 405 76 224 l 76 581 q 184 881 76 761 q 465 1002 293 1002 q 757 882 644 1002 q 869 581 869 762 l 869 405 m 735 582 q 662 805 735 718 q 465 892 589 892 q 279 805 349 892 q 210 582 210 718 l 210 405 q 279 182 210 268 q 465 95 349 95 q 662 181 590 95 q 735 405 735 268 l 735 582 m 709 1265 q 668 1157 709 1201 q 567 1113 628 1113 q 467 1144 519 1113 q 380 1176 414 1176 q 331 1154 351 1176 q 311 1101 311 1132 l 238 1118 q 278 1228 238 1181 q 380 1274 318 1274 q 475 1242 418 1274 q 567 1210 532 1210 q 615 1232 595 1210 q 636 1286 636 1254 l 709 1265 "},"Ҙ":{"x_min":84.6875,"x_max":845.75,"ha":824,"o":"m 830 720 q 784 595 830 651 q 657 506 738 538 q 797 419 748 478 q 845 275 845 360 q 737 62 845 139 q 454 -14 629 -14 q 191 58 301 -14 q 84 270 81 131 l 86 274 l 213 274 q 280 143 213 196 q 454 90 347 90 q 643 140 575 90 q 712 272 712 191 q 649 406 712 362 q 465 450 587 450 l 341 450 l 341 556 l 465 556 q 640 600 583 556 q 697 723 697 645 q 635 847 697 799 q 454 896 574 896 q 293 848 358 896 q 227 729 227 800 l 100 729 l 99 733 q 199 927 95 852 q 454 1002 302 1002 q 729 928 628 1002 q 830 720 830 855 m 477 -291 l 344 -291 l 344 58 l 477 58 l 477 -291 "},"χ":{"x_min":63.75,"x_max":745.359375,"ha":775,"o":"m 137 744 q 275 689 224 744 q 355 562 326 635 l 417 411 l 421 411 l 579 734 l 714 734 l 482 254 l 621 -78 q 663 -153 642 -128 q 714 -179 685 -179 q 727 -178 723 -179 q 745 -175 730 -177 l 743 -285 q 724 -292 736 -289 q 702 -296 711 -296 q 576 -251 623 -296 q 494 -111 529 -207 l 408 91 l 404 91 l 224 -281 l 82 -281 l 342 249 l 231 510 q 180 600 209 566 q 110 634 151 634 q 85 633 103 634 q 64 631 67 631 l 63 733 q 99 740 78 737 q 137 744 120 744 "},"ί":{"x_min":133.609375,"x_max":425.25,"ha":456,"o":"m 267 733 l 267 181 q 285 113 267 132 q 333 94 303 94 q 366 99 350 94 q 395 112 383 104 l 425 21 q 364 -6 394 0 q 298 -14 334 -14 q 175 34 217 -14 q 133 189 133 82 l 133 733 l 267 733 m 207 1111 l 348 1111 l 230 853 l 166 853 l 207 1111 "},"Ζ":{"x_min":65.78125,"x_max":768.421875,"ha":831,"o":"m 216 104 l 768 104 l 768 0 l 65 0 l 65 99 l 593 882 l 73 882 l 73 988 l 746 988 l 746 892 l 216 104 "},"Ľ":{"x_min":122.078125,"x_max":722.984375,"ha":750,"o":"m 255 104 l 722 104 l 722 0 l 122 0 l 122 988 l 255 988 l 255 104 m 544 893 l 461 732 l 395 732 l 436 899 l 436 988 l 544 988 l 544 893 "},"ť":{"x_min":23.0625,"x_max":518.03125,"ha":507,"o":"m 273 911 l 273 734 l 412 734 l 412 634 l 273 634 l 273 189 q 294 116 273 137 q 351 95 316 95 q 376 98 362 95 q 401 105 390 101 l 419 13 q 375 -6 404 1 q 317 -14 346 -14 q 187 35 236 -14 q 139 189 139 84 l 139 634 l 23 634 l 23 734 l 139 734 l 139 911 l 273 911 m 518 982 l 435 821 l 369 821 l 410 988 l 410 1077 l 518 1077 l 518 982 "},"5":{"x_min":106.359375,"x_max":707.390625,"ha":782,"o":"m 118 445 l 175 988 l 670 988 l 670 869 l 288 869 l 256 591 q 325 629 287 614 q 414 646 364 644 q 629 557 550 647 q 707 314 707 467 q 627 76 707 166 q 395 -14 548 -14 q 186 54 269 -14 q 106 255 103 123 l 107 260 l 228 260 q 275 134 228 179 q 395 90 321 90 q 526 150 480 90 q 573 313 573 209 q 526 469 573 408 q 395 530 478 530 q 281 506 316 530 q 229 433 246 482 l 118 445 "},"o":{"x_min":65.78125,"x_max":722.984375,"ha":789,"o":"m 65 373 q 153 641 65 536 q 393 747 242 747 q 634 641 545 747 q 722 373 722 536 l 722 358 q 634 90 722 194 q 394 -14 546 -14 q 154 90 242 -14 q 65 358 65 195 l 65 373 m 199 358 q 248 166 199 242 q 394 90 297 90 q 539 166 490 90 q 589 358 589 242 l 589 373 q 539 565 589 488 q 393 641 489 641 q 248 565 297 641 q 199 373 199 488 l 199 358 "},"Ӊ":{"x_min":122.078125,"x_max":979.640625,"ha":991,"o":"m 868 0 l 735 0 l 735 435 l 255 435 l 255 0 l 122 0 l 122 988 l 255 988 l 255 541 l 735 541 l 735 988 l 868 988 l 868 0 m 979 6 l 877 -200 l 798 -200 l 846 13 l 846 124 l 979 124 l 979 6 "},"Ѕ":{"x_min":69.078125,"x_max":793.515625,"ha":866,"o":"m 659 249 q 609 362 659 316 q 428 439 558 408 q 184 549 271 477 q 96 732 96 622 q 190 924 96 847 q 436 1002 285 1002 q 694 913 598 1002 q 786 706 790 824 l 785 702 l 657 702 q 600 843 657 789 q 436 896 543 896 q 283 851 336 896 q 229 734 229 806 q 287 626 229 669 q 474 550 345 583 q 712 437 630 512 q 793 250 793 361 q 695 58 793 131 q 440 -14 598 -14 q 179 66 293 -14 q 69 280 65 146 l 70 284 l 198 284 q 267 139 198 189 q 440 90 337 90 q 600 133 541 90 q 659 249 659 175 "},"�":{"x_min":62.390625,"x_max":1361.1875,"ha":1425,"o":"m 710 1097 l 1361 436 l 710 -225 l 62 436 l 710 1097 m 767 272 q 775 329 767 308 q 811 367 784 349 q 892 438 860 394 q 924 535 924 482 q 867 673 924 622 q 710 725 809 725 q 561 680 617 725 q 506 548 504 636 l 508 544 l 640 544 q 660 596 640 579 q 710 614 680 614 q 766 593 746 614 q 786 535 786 571 q 769 475 786 501 q 723 430 752 449 q 650 362 670 393 q 630 272 630 332 l 767 272 m 767 210 l 630 210 l 630 95 l 767 95 l 767 210 m 716 -373 l 718 -373 l 718 -376 l 716 -376 l 716 -373 m 714 1455 l 717 1455 l 717 1452 l 714 1452 l 714 1455 "},"d":{"x_min":66.46875,"x_max":687.046875,"ha":789,"o":"m 66 353 q 142 638 66 530 q 354 747 217 747 q 468 723 418 747 q 553 654 518 699 l 553 1058 l 687 1058 l 687 0 l 577 0 l 562 90 q 474 12 526 38 q 352 -14 421 -14 q 142 83 218 -14 q 66 339 66 180 l 66 353 m 200 339 q 245 161 200 227 q 386 94 290 94 q 486 121 446 94 q 553 197 527 148 l 553 539 q 486 611 527 584 q 387 638 445 638 q 245 559 291 638 q 200 353 200 479 l 200 339 "},",":{"x_min":32.5625,"x_max":213.640625,"ha":274,"o":"m 213 32 l 111 -174 l 32 -174 l 80 39 l 80 150 l 213 150 l 213 32 "},"ѣ":{"x_min":-25.09375,"x_max":694.5,"ha":755,"o":"m 455 733 l 237 733 l 237 507 l 419 507 q 622 437 550 507 q 694 256 694 368 q 621 72 694 144 q 419 0 548 0 l 103 0 l 103 733 l -25 733 l -25 838 l 103 838 l 103 1058 l 237 1058 l 237 838 l 455 838 l 455 733 m 237 402 l 237 104 l 419 104 q 525 146 491 104 q 560 251 560 189 q 525 357 560 312 q 419 402 491 402 l 237 402 "},"\"":{"x_min":54.265625,"x_max":398.109375,"ha":453,"o":"m 188 874 l 120 705 l 54 705 l 54 868 l 54 1058 l 188 1058 l 188 874 m 398 874 l 329 705 l 263 705 l 264 873 l 264 1058 l 398 1058 l 398 874 "},"ľ":{"x_min":107.84375,"x_max":456.03125,"ha":452,"o":"m 241 0 l 107 0 l 107 1058 l 241 1058 l 241 0 m 456 963 l 373 802 l 307 802 l 348 969 l 348 1058 l 456 1058 l 456 963 "},"Ӳ":{"x_min":57.65625,"x_max":830.140625,"ha":873,"o":"m 398 526 l 448 398 l 452 398 l 674 988 l 830 988 l 484 162 q 397 29 444 73 q 247 -14 350 -14 q 207 -11 230 -14 q 179 -7 185 -9 l 182 93 q 211 91 189 91 q 246 90 234 90 q 315 114 294 90 q 361 193 335 139 l 388 250 l 57 988 l 207 988 l 398 526 m 623 1266 l 779 1266 l 781 1262 l 577 1086 l 461 1086 l 460 1089 l 623 1266 m 402 1266 l 545 1266 l 547 1263 l 384 1086 l 277 1086 l 402 1266 "},"ҙ":{"x_min":62.953125,"x_max":638.890625,"ha":705,"o":"m 360 429 q 461 455 430 429 q 491 533 491 482 q 456 611 491 579 q 351 642 421 642 q 245 609 288 642 q 202 528 202 576 l 75 528 l 74 533 q 151 686 70 627 q 351 746 232 746 q 552 690 480 746 q 625 533 625 635 q 595 442 625 483 q 512 378 565 401 q 606 312 573 355 q 638 207 638 268 q 559 45 638 103 q 351 -13 480 -13 q 145 44 231 -13 q 63 212 59 102 l 64 216 l 191 216 q 236 127 191 165 q 351 89 280 89 q 464 123 423 89 q 504 206 504 156 q 469 293 504 266 q 360 320 434 320 l 232 320 l 232 429 l 360 429 m 418 -290 l 285 -290 l 285 59 l 418 59 l 418 -290 "},"ė":{"x_min":67.140625,"x_max":681.609375,"ha":735,"o":"m 401 -14 q 157 87 248 -14 q 67 352 67 189 l 67 382 q 160 642 67 538 q 381 747 253 747 q 605 657 529 747 q 681 419 681 568 l 681 336 l 205 336 l 203 332 q 257 158 205 226 q 401 90 308 90 q 520 109 469 90 q 609 163 571 129 l 661 76 q 557 11 621 37 q 401 -14 493 -14 m 381 641 q 266 585 314 641 q 208 443 219 529 l 209 440 l 548 440 l 548 458 q 505 589 548 536 q 381 641 463 641 m 452 870 l 304 870 l 304 1006 l 452 1006 l 452 870 "},"ѥ":{"x_min":102.40625,"x_max":980.796875,"ha":1038,"o":"m 236 418 l 362 418 q 456 653 372 560 q 691 747 541 747 q 901 671 819 747 q 980 484 983 595 l 979 480 l 858 480 q 811 594 858 547 q 691 641 763 641 q 549 578 595 641 q 500 421 503 515 l 501 418 l 786 418 l 786 313 l 501 313 l 500 310 q 549 152 503 215 q 691 90 594 90 q 808 131 757 90 q 858 231 858 172 l 978 231 l 980 227 q 895 59 983 133 q 691 -14 807 -14 q 457 77 541 -14 q 362 313 373 169 l 236 313 l 236 0 l 102 0 l 102 734 l 236 734 l 236 418 "},"ề":{"x_min":-60.96875,"x_max":681.609375,"ha":735,"o":"m 401 -14 q 157 87 248 -14 q 67 352 67 189 l 67 382 q 160 642 67 538 q 381 747 253 747 q 605 657 529 747 q 681 419 681 568 l 681 336 l 205 336 l 203 332 q 257 158 205 226 q 401 90 308 90 q 520 109 469 90 q 609 163 571 129 l 661 76 q 557 11 621 37 q 401 -14 493 -14 m 381 641 q 266 585 314 641 q 208 443 219 529 l 209 440 l 548 440 l 548 458 q 505 589 548 536 q 381 641 463 641 m 628 858 l 626 854 l 491 854 l 378 960 l 265 854 l 130 854 l 129 858 l 324 1032 l 432 1032 l 628 858 m 176 973 l 76 973 l -60 1149 l 81 1149 l 176 973 "},"Í":{"x_min":128.859375,"x_max":417.671875,"ha":393,"o":"m 263 0 l 128 0 l 128 988 l 263 988 l 263 0 m 260 1235 l 416 1235 l 417 1230 l 234 1054 l 134 1054 l 260 1235 "},"Ú":{"x_min":99.703125,"x_max":843.703125,"ha":940,"o":"m 843 988 l 843 318 q 738 71 843 156 q 465 -14 634 -14 q 201 71 302 -14 q 99 318 99 157 l 99 988 l 233 988 l 233 318 q 297 148 233 206 q 465 90 360 90 q 642 148 575 90 q 710 318 710 206 l 710 988 l 843 988 m 537 1235 l 693 1235 l 694 1230 l 511 1054 l 411 1054 l 537 1235 "},"Ơ":{"x_min":73.25,"x_max":1041.078125,"ha":952,"o":"m 866 405 q 753 105 866 224 q 462 -14 641 -14 q 181 105 289 -14 q 73 405 73 224 l 73 581 q 181 881 73 761 q 462 1002 289 1002 q 613 974 543 1002 q 737 898 683 947 q 864 963 820 905 q 907 1121 907 1021 l 1041 1121 q 981 908 1041 990 q 811 801 921 826 q 851 697 837 753 q 866 581 866 640 l 866 405 m 732 582 q 659 805 732 718 q 462 892 585 892 q 276 805 345 892 q 206 582 206 718 l 206 405 q 276 182 206 268 q 462 95 345 95 q 659 181 586 95 q 732 405 732 268 l 732 582 "}," ":{"x_min":0,"x_max":0,"ha":284},"Ŷ":{"x_min":13.5625,"x_max":834.21875,"ha":848,"o":"m 423 485 l 681 988 l 834 988 l 487 347 l 487 0 l 354 0 l 354 356 l 13 988 l 166 988 l 423 485 m 632 1101 l 632 1085 l 523 1085 l 423 1185 l 324 1085 l 215 1085 l 215 1102 l 382 1263 l 464 1263 l 632 1101 "},"Ự":{"x_min":99.703125,"x_max":1099.4375,"ha":970,"o":"m 843 988 l 843 866 l 847 865 q 937 938 906 883 q 968 1079 968 994 l 1097 1079 l 1099 1075 q 1034 862 1100 944 q 843 756 967 779 l 843 318 q 738 71 843 156 q 465 -14 634 -14 q 201 71 302 -14 q 99 318 99 157 l 99 988 l 233 988 l 233 318 q 297 148 233 206 q 465 90 360 90 q 642 148 575 90 q 710 318 710 206 l 710 988 l 843 988 m 545 -233 l 397 -233 l 397 -97 l 545 -97 l 545 -233 "},"Ý":{"x_min":13.5625,"x_max":834.21875,"ha":848,"o":"m 423 485 l 681 988 l 834 988 l 487 347 l 487 0 l 354 0 l 354 356 l 13 988 l 166 988 l 423 485 m 488 1234 l 644 1234 l 645 1229 l 462 1053 l 362 1053 l 488 1234 "},"ŝ":{"x_min":73.734375,"x_max":657.203125,"ha":726,"o":"m 523 194 q 490 267 523 238 q 362 316 456 295 q 161 395 229 345 q 94 531 94 445 q 170 683 94 620 q 368 747 246 747 q 572 681 496 747 q 644 521 647 615 l 642 517 l 515 517 q 475 603 515 565 q 368 641 434 641 q 262 610 297 641 q 227 535 227 579 q 258 467 227 492 q 382 422 288 442 q 589 341 521 392 q 657 204 657 290 q 578 46 657 106 q 371 -14 499 -14 q 150 57 231 -14 q 73 223 69 128 l 75 227 l 202 227 q 255 123 206 156 q 371 90 305 90 q 483 119 442 90 q 523 194 523 148 m 571 883 l 571 867 l 462 867 l 362 967 l 263 867 l 154 867 l 154 884 l 321 1045 l 403 1045 l 571 883 "},"҂":{"x_min":75.96875,"x_max":794.875,"ha":869,"o":"m 409 303 l 605 186 l 557 101 l 360 216 l 237 0 l 119 0 l 271 269 l 75 385 l 124 469 l 322 353 l 459 600 l 263 716 l 312 802 l 510 686 l 635 910 l 751 910 l 596 634 l 794 518 l 744 433 l 548 549 l 409 303 "}," ":{"x_min":0,"x_max":0,"ha":1417}}}
